<?xml version="1.0" encoding="utf-8"?>
<!-- Generator: Adobe Illustrator 19.0.0, SVG Export Plug-In . SVG Version: 6.00 Build 0)  -->
<svg version="1.1" id="Layer_1" xmlns="http://www.w3.org/2000/svg" xmlns:xlink="http://www.w3.org/1999/xlink" x="0px" y="0px"
	 viewBox="0 0 200 200" enable-background="new 0 0 200 200" xml:space="preserve">
<g>
	<ellipse opacity="0.1" cx="98.6" cy="190.7" rx="86.4" ry="5.3"/>
	<circle fill="#AFACA3" cx="99.4" cy="95.5" r="93.5"/>
	<circle fill="#CCC2AC" cx="97.5" cy="98.6" r="92.1"/>
	<g opacity="0.28">
		<path fill="#FFFFFF" d="M161.1,31.8l-134.9,125c2,2.4,4,4.7,6.2,6.8L167.5,38.5C165.5,36.1,163.3,33.9,161.1,31.8z"/>
		<path fill="#FFFFFF" d="M184.2,67.3c-2.6-7.2-6-14-10.3-20.3L40.4,170.7c5.9,4.7,12.4,8.7,19.4,11.8L184.2,67.3z"/>
		<path fill="#FFFFFF" d="M10.4,128.4c2.7,7.8,6.3,15,10.9,21.7L154.9,26.3c-6.3-5-13.3-9.2-20.8-12.5L10.4,128.4z"/>
	</g>
	<g>
		
			<circle fill="none" stroke="#7F7D73" stroke-width="1.9286" stroke-linecap="round" stroke-linejoin="round" stroke-dasharray="1.9233,5.77" cx="97.2" cy="98.8" r="84.5"/>
	</g>
	<circle fill="#BAAF99" cx="97.5" cy="98.4" r="77.1"/>
	<circle fill="#9E9C90" cx="97.5" cy="98.4" r="73.7"/>
	<g opacity="0.16">
		<path fill="#FFFFFF" d="M25.5,114.4c1.8,8.3,5.1,16.1,9.4,23L141.2,39c-6.6-4.9-14.1-8.7-22.2-11.2L25.5,114.4z"/>
		<path fill="#FFFFFF" d="M147.6,44.3L39.7,144.2c1.9,2.4,4,4.7,6.2,6.9L153.9,51C152,48.6,149.8,46.4,147.6,44.3z"/>
		<path fill="#FFFFFF" d="M169.2,81.2c-1.8-7.7-4.9-14.9-8.9-21.5L54.1,158c6.2,4.6,13.2,8.1,20.7,10.6L169.2,81.2z"/>
	</g>
	<path fill="#FFFFFF" d="M66.7,112.1c-0.9,12.5-2.8,14.2-14.7,15.2c11.9,1,13.8,2.7,14.7,15.2c0.9-12.5,2.8-14.2,14.7-15.2
		C69.4,126.3,67.6,124.6,66.7,112.1z"/>
	<path fill="#FFFFFF" d="M149.7,9.7c-1.5,20-4.4,22.8-23.5,24.3c19.1,1.5,22,4.3,23.5,24.3c1.5-20,4.4-22.8,23.5-24.3
		C154.1,32.5,151.2,29.7,149.7,9.7z"/>
</g>
<g>
	<g>
		<g>
			<g>
				<path fill="#9E9C90" d="M137.9,94.4H127v14.8h10.9c3.8,0,7-3.3,7-7.4C144.9,97.7,141.8,94.4,137.9,94.4z M137.1,106h-6.2v-8.4
					h6.2c2.2,0,4,1.9,4,4.2S139.3,106,137.1,106z"/>
				<rect x="127" y="106.7" fill="#9E9C90" width="3.3" height="14.6"/>
				<rect x="124.9" y="106" fill="#9E9C90" width="7.7" height="3.2"/>
				<rect x="124.9" y="112.4" fill="#9E9C90" width="15.3" height="3.2"/>
			</g>
			<g>
				<path fill="#E0D8C7" d="M138.6,93.7h-10.9v14.8h10.9c3.8,0,7-3.3,7-7.4S142.5,93.7,138.6,93.7z M137.8,105.3h-6.2v-8.4h6.2
					c2.2,0,4,1.9,4,4.2S140,105.3,137.8,105.3z"/>
				<rect x="127.8" y="106" fill="#E0D8C7" width="3.3" height="14.6"/>
				<rect x="125.6" y="105.3" fill="#E0D8C7" width="7.7" height="3.2"/>
				<rect x="125.6" y="111.7" fill="#E0D8C7" width="15.3" height="3.2"/>
			</g>
		</g>
	</g>
	<g>
		<g>
			<path fill="#7F7D73" d="M89.7,110.4v7.5H65.6l0-6.3c7.2-11.7,11.4-19,12.8-21.8c1.4-2.8,2-5,2-6.5c0-1.2-0.2-2.1-0.6-2.7
				c-0.4-0.6-1-0.9-1.9-0.9c-0.8,0-1.5,0.3-1.9,1c-0.4,0.7-0.6,1.9-0.6,3.9v4.2h-9.8v-1.6c0-2.5,0.1-4.4,0.4-5.8
				c0.3-1.4,0.9-2.8,1.9-4.2s2.3-2.4,3.9-3.1c1.6-0.7,3.5-1.1,5.7-1.1c4.4,0,7.7,1.1,9.9,3.3c2.2,2.2,3.4,4.9,3.4,8.2
				c0,2.5-0.6,5.2-1.9,8c-1.3,2.8-5,8.8-11.1,17.9H89.7z"/>
			<path fill="#7F7D73" d="M119.9,88.8v14.7c0,3.3-0.2,5.8-0.5,7.3c-0.4,1.5-1.1,2.9-2.3,4.3c-1.1,1.3-2.5,2.3-4.1,2.9
				s-3.4,0.9-5.4,0.9c-2.6,0-4.8-0.3-6.6-0.9c-1.7-0.6-3.1-1.6-4.2-2.8c-1-1.3-1.8-2.6-2.2-4.1c-0.4-1.4-0.7-3.7-0.7-6.8V88.8
				c0-4,0.3-7.1,1-9.1c0.7-2,2.1-3.6,4.2-4.8c2.1-1.2,4.6-1.8,7.5-1.8c2.4,0,4.6,0.4,6.5,1.3s3.3,1.9,4.3,3.1
				c0.9,1.2,1.6,2.6,1.9,4.1C119.8,83,119.9,85.5,119.9,88.8z M109,85.1c0-2.3-0.1-3.8-0.3-4.4c-0.2-0.6-0.8-0.9-1.6-0.9
				c-0.8,0-1.4,0.3-1.6,0.9c-0.3,0.6-0.4,2.1-0.4,4.3v21.5c0,2.6,0.1,4.1,0.4,4.6c0.2,0.5,0.8,0.8,1.6,0.8c0.8,0,1.4-0.3,1.6-0.9
				c0.3-0.6,0.4-2,0.4-4.2V85.1z"/>
		</g>
	</g>
	<g>
		<path fill="#EFEAE1" d="M88.1,109.4v7.5H63.9l0-6.3c7.2-11.7,11.4-19,12.8-21.8c1.4-2.8,2-5,2-6.5c0-1.2-0.2-2.1-0.6-2.7
			c-0.4-0.6-1-0.9-1.9-0.9c-0.8,0-1.5,0.3-1.9,1c-0.4,0.7-0.6,1.9-0.6,3.9v4.2h-9.8v-1.6c0-2.5,0.1-4.4,0.4-5.8
			c0.3-1.4,0.9-2.8,1.9-4.2s2.3-2.4,3.9-3.1c1.6-0.7,3.5-1.1,5.7-1.1c4.4,0,7.7,1.1,9.9,3.3c2.2,2.2,3.4,4.9,3.4,8.2
			c0,2.5-0.6,5.2-1.9,8c-1.3,2.8-5,8.8-11.1,17.9H88.1z"/>
		<path fill="#EFEAE1" d="M118.3,87.7v14.7c0,3.3-0.2,5.8-0.5,7.3s-1.1,2.9-2.3,4.3s-2.5,2.3-4.1,2.9s-3.4,0.9-5.4,0.9
			c-2.6,0-4.8-0.3-6.6-0.9c-1.7-0.6-3.1-1.6-4.2-2.8c-1-1.3-1.8-2.6-2.2-4.1c-0.4-1.4-0.7-3.7-0.7-6.8V87.7c0-4,0.3-7.1,1-9.1
			c0.7-2,2.1-3.6,4.2-4.8c2.1-1.2,4.6-1.8,7.5-1.8c2.4,0,4.6,0.4,6.5,1.3s3.3,1.9,4.3,3.1c0.9,1.2,1.6,2.6,1.9,4.1
			C118.1,82,118.3,84.4,118.3,87.7z M107.3,84c0-2.3-0.1-3.8-0.3-4.4s-0.8-0.9-1.6-0.9c-0.8,0-1.4,0.3-1.6,0.9
			c-0.3,0.6-0.4,2.1-0.4,4.3v21.5c0,2.6,0.1,4.1,0.4,4.6s0.8,0.8,1.6,0.8s1.4-0.3,1.6-0.9c0.3-0.6,0.4-2,0.4-4.2V84z"/>
	</g>
</g>
</svg>
