<?xml version="1.0" encoding="utf-8"?>
<!-- Generator: Adobe Illustrator 19.0.0, SVG Export Plug-In . SVG Version: 6.00 Build 0)  -->
<svg version="1.1" id="Layer_1" xmlns="http://www.w3.org/2000/svg" xmlns:xlink="http://www.w3.org/1999/xlink" x="0px" y="0px"
	 viewBox="50 -50 200 200" style="enable-background:new 50 -50 200 200;" xml:space="preserve">
<style type="text/css">
	.st0{opacity:0.1;enable-background:new    ;}
	.st1{fill:#A88E4E;}
	.st2{fill:#B79E65;}
	.st3{opacity:0.28;}
	.st4{fill:#FFFFFF;}
	.st5{opacity:0.5;}
	.st6{fill:none;stroke:#77602D;stroke-width:1.9286;stroke-linecap:round;stroke-linejoin:round;stroke-dasharray:1.9233,5.77;}
	.st7{fill:#91763A;}
	.st8{opacity:0.16;}
	.st9{fill:#E0D8C7;}
	.st10{fill:#F2E6D1;}
</style>
<g>
	<ellipse class="st0" cx="148.6" cy="140.7" rx="86.4" ry="5.3"/>
	<circle class="st1" cx="149.4" cy="45.5" r="93.5"/>
	<circle class="st2" cx="147.5" cy="48.6" r="92.1"/>
	<g class="st3">
		<path class="st4" d="M211.1-18.2l-134.9,125c2,2.4,4,4.7,6.2,6.8L217.5-11.5C215.5-13.9,213.3-16.1,211.1-18.2z"/>
		<path class="st4" d="M234.2,17.3c-2.6-7.2-6-14-10.3-20.3L90.4,120.7c5.9,4.7,12.4,8.7,19.4,11.8L234.2,17.3z"/>
		<path class="st4" d="M60.4,78.4c2.7,7.8,6.3,15,10.9,21.7L204.9-23.7c-6.3-5-13.3-9.2-20.8-12.5L60.4,78.4z"/>
	</g>
	<g class="st5">
		<circle class="st6" cx="147.2" cy="48.8" r="84.5"/>
	</g>
	<circle class="st7" cx="147.5" cy="48.4" r="77.1"/>
	<circle class="st1" cx="147.5" cy="48.4" r="73.7"/>
	<g class="st8">
		<path class="st4" d="M75.5,64.4c1.8,8.3,5.1,16.1,9.4,23L191.2-11c-6.6-4.9-14.1-8.7-22.2-11.2L75.5,64.4z"/>
		<path class="st4" d="M197.6-5.7L89.7,94.2c1.9,2.4,4,4.7,6.2,6.9L203.9,1C202-1.4,199.8-3.6,197.6-5.7z"/>
		<path class="st4" d="M219.2,31.2c-1.8-7.7-4.9-14.9-8.9-21.5L104.1,108c6.2,4.6,13.2,8.1,20.7,10.6L219.2,31.2z"/>
	</g>
	<path class="st4" d="M116.7,62.1c-0.9,12.5-2.8,14.2-14.7,15.2c11.9,1,13.8,2.7,14.7,15.2c0.9-12.5,2.8-14.2,14.7-15.2
		C119.4,76.3,117.6,74.6,116.7,62.1z"/>
	<path class="st4" d="M199.7-40.3c-1.5,20-4.4,22.8-23.5,24.3c19.1,1.5,22,4.3,23.5,24.3c1.5-20,4.4-22.8,23.5-24.3
		C204.1-17.5,201.2-20.3,199.7-40.3z"/>
</g>
<g>
	<g>
		<g>
			<g>
				<path class="st1" d="M198.9,43.4H188v14.8h10.9c3.8,0,7-3.3,7-7.4C205.9,46.7,202.8,43.4,198.9,43.4z M198.1,55h-6.2v-8.4h6.2
					c2.2,0,4,1.9,4,4.2S200.3,55,198.1,55z"/>
				<rect x="188" y="55.7" class="st1" width="3.3" height="14.6"/>
				<rect x="185.9" y="55" class="st1" width="7.7" height="3.2"/>
				<rect x="185.9" y="61.4" class="st1" width="15.3" height="3.2"/>
			</g>
			<g>
				<path class="st9" d="M199.6,42.7h-10.9v14.8h10.9c3.8,0,7-3.3,7-7.4S203.5,42.7,199.6,42.7z M198.8,54.3h-6.2v-8.4h6.2
					c2.2,0,4,1.9,4,4.2S201,54.3,198.8,54.3z"/>
				<rect x="188.8" y="55" class="st9" width="3.3" height="14.6"/>
				<rect x="186.6" y="54.3" class="st9" width="7.7" height="3.2"/>
				<rect x="186.6" y="60.7" class="st9" width="15.3" height="3.2"/>
			</g>
		</g>
	</g>
	<g>
		<g>
			<path class="st1" d="M123,22.9v44h-11V43.3c0-3.4-0.1-5.5-0.2-6.1c-0.2-0.7-0.6-1.2-1.3-1.6s-2.4-0.5-4.9-0.5h-1.1V30
				c5.3-1.1,9.3-3.5,12.1-7.1H123z"/>
			<path class="st1" d="M153.2,37.8v14.7c0,3.3-0.2,5.8-0.5,7.3s-1.1,2.9-2.3,4.3s-2.5,2.3-4.1,2.9c-1.6,0.6-3.4,0.9-5.4,0.9
				c-2.6,0-4.8-0.3-6.6-0.9c-1.8-0.6-3.1-1.6-4.2-2.8c-1-1.3-1.8-2.6-2.2-4.1c-0.4-1.4-0.7-3.7-0.7-6.8V37.8c0-4,0.3-7.1,1-9.1
				c0.7-2,2.1-3.6,4.2-4.8c2.1-1.2,4.6-1.8,7.5-1.8c2.4,0,4.6,0.4,6.5,1.3c1.9,0.9,3.3,1.9,4.3,3.1c0.9,1.2,1.6,2.6,1.9,4.1
				C153,32,153.2,34.5,153.2,37.8z M142.2,34.1c0-2.3-0.1-3.8-0.3-4.4c-0.2-0.6-0.8-0.9-1.6-0.9c-0.8,0-1.4,0.3-1.6,0.9
				c-0.3,0.6-0.4,2.1-0.4,4.3v21.5c0,2.6,0.1,4.1,0.4,4.6c0.2,0.5,0.8,0.8,1.6,0.8c0.8,0,1.4-0.3,1.6-0.9c0.3-0.6,0.4-2,0.4-4.2
				L142.2,34.1L142.2,34.1z"/>
			<path class="st1" d="M183.1,37.8v14.7c0,3.3-0.2,5.8-0.5,7.3c-0.4,1.5-1.1,2.9-2.3,4.3s-2.5,2.3-4.1,2.9
				c-1.6,0.6-3.4,0.9-5.4,0.9c-2.6,0-4.8-0.3-6.6-0.9c-1.8-0.6-3.1-1.6-4.2-2.8c-1-1.3-1.8-2.6-2.2-4.1s-0.7-3.7-0.7-6.8V37.8
				c0-4,0.3-7.1,1-9.1c0.7-2,2.1-3.6,4.2-4.8c2.1-1.2,4.6-1.8,7.5-1.8c2.4,0,4.6,0.4,6.5,1.3c1.9,0.9,3.3,1.9,4.3,3.1
				c0.9,1.2,1.6,2.6,1.9,4.1C182.9,32,183.1,34.5,183.1,37.8z M172.1,34.1c0-2.3-0.1-3.8-0.3-4.4c-0.2-0.6-0.8-0.9-1.6-0.9
				s-1.4,0.3-1.6,0.9c-0.3,0.6-0.4,2.1-0.4,4.3v21.5c0,2.6,0.1,4.1,0.4,4.6c0.3,0.5,0.8,0.8,1.6,0.8s1.4-0.3,1.6-0.9
				c0.3-0.6,0.4-2,0.4-4.2L172.1,34.1L172.1,34.1z"/>
		</g>
	</g>
	<g>
		<path class="st10" d="M121.3,21.8v44h-11V42.3c0-3.4-0.1-5.5-0.2-6.1c-0.2-0.7-0.6-1.2-1.3-1.6c-0.8-0.4-2.4-0.6-5-0.6h-1.1v-5.1
			c5.3-1.1,9.3-3.5,12.1-7.1H121.3z"/>
		<path class="st10" d="M151.5,36.7v14.7c0,3.3-0.2,5.8-0.5,7.3c-0.4,1.5-1.1,2.9-2.3,4.3c-1.1,1.3-2.5,2.3-4.1,2.9
			c-1.6,0.6-3.4,0.9-5.4,0.9c-2.6,0-4.8-0.3-6.6-0.9c-1.8-0.6-3.1-1.6-4.2-2.8c-1-1.3-1.8-2.6-2.2-4.1c-0.4-1.4-0.7-3.7-0.7-6.8
			V36.7c0-4,0.3-7.1,1-9.1s2.1-3.6,4.2-4.8c2.1-1.2,4.6-1.8,7.5-1.8c2.4,0,4.6,0.4,6.5,1.3c1.9,0.9,3.3,1.9,4.3,3.1
			c0.9,1.2,1.6,2.6,1.9,4.1C151.3,31,151.5,33.4,151.5,36.7z M140.5,33c0-2.3-0.1-3.8-0.3-4.4s-0.8-0.9-1.6-0.9
			c-0.8,0-1.4,0.3-1.6,0.9c-0.3,0.6-0.4,2.1-0.4,4.3v21.5c0,2.6,0.1,4.1,0.4,4.6c0.2,0.5,0.8,0.8,1.6,0.8c0.8,0,1.4-0.3,1.6-0.9
			c0.3-0.6,0.4-2,0.4-4.2V33H140.5z"/>
		<path class="st10" d="M181.4,36.7v14.7c0,3.3-0.2,5.8-0.5,7.3c-0.4,1.5-1.1,2.9-2.3,4.3s-2.5,2.3-4.1,2.9
			c-1.6,0.6-3.4,0.9-5.4,0.9c-2.6,0-4.8-0.3-6.6-0.9c-1.7-0.6-3.1-1.6-4.2-2.8c-1-1.3-1.8-2.6-2.2-4.1c-0.4-1.4-0.7-3.7-0.7-6.8
			V36.7c0-4,0.3-7.1,1-9.1c0.7-2,2.1-3.6,4.2-4.8c2.1-1.2,4.6-1.8,7.6-1.8c2.4,0,4.6,0.4,6.5,1.3s3.3,1.9,4.3,3.1
			c0.9,1.2,1.6,2.6,1.9,4.1C181.2,31,181.4,33.4,181.4,36.7z M170.4,33c0-2.3-0.1-3.8-0.3-4.4c-0.2-0.6-0.8-0.9-1.6-0.9
			c-0.8,0-1.4,0.3-1.6,0.9c-0.3,0.6-0.4,2.1-0.4,4.3v21.5c0,2.6,0.1,4.1,0.4,4.6c0.2,0.5,0.8,0.8,1.6,0.8s1.4-0.3,1.6-0.9
			c0.3-0.6,0.4-2,0.4-4.2V33H170.4z"/>
	</g>
</g>
</svg>
