<?xml version="1.0" encoding="utf-8"?>
<!-- Generator: Adobe Illustrator 19.0.0, SVG Export Plug-In . SVG Version: 6.00 Build 0)  -->
<svg version="1.1" id="Layer_1" xmlns="http://www.w3.org/2000/svg" xmlns:xlink="http://www.w3.org/1999/xlink" x="0px" y="0px"
	 viewBox="-399 401 200 200" style="enable-background:new -399 401 200 200;" xml:space="preserve">
<style type="text/css">
	.st0{opacity:0.1;enable-background:new    ;}
	.st1{fill:#AFACA3;}
	.st2{fill:#CCC2AC;}
	.st3{opacity:0.28;}
	.st4{fill:#FFFFFF;}
	.st5{fill:none;stroke:#7F7D73;stroke-width:1.9286;stroke-linecap:round;stroke-linejoin:round;stroke-dasharray:1.9233,5.77;}
	.st6{fill:#BAAF99;}
	.st7{fill:#9E9C90;}
	.st8{opacity:0.16;}
	.st9{fill:#E0D8C7;}
	.st10{enable-background:new    ;}
	.st11{fill:#7F7D73;}
	.st12{fill:#EFEAE1;}
</style>
<g>
	<ellipse class="st0" cx="-300.4" cy="591.7" rx="86.4" ry="5.3"/>
	<circle class="st1" cx="-299.6" cy="496.5" r="93.5"/>
	<circle class="st2" cx="-301.5" cy="499.6" r="92.1"/>
	<g class="st3">
		<path class="st4" d="M-237.9,432.8l-134.9,125c2,2.4,4,4.7,6.2,6.8l135.1-125.1C-233.5,437.1-235.7,434.9-237.9,432.8z"/>
		<path class="st4" d="M-214.8,468.3c-2.6-7.2-6-14-10.3-20.3l-133.5,123.7c5.9,4.7,12.4,8.7,19.4,11.8L-214.8,468.3z"/>
		<path class="st4" d="M-388.6,529.4c2.7,7.8,6.3,15,10.9,21.7l133.6-123.8c-6.3-5-13.3-9.2-20.8-12.5L-388.6,529.4z"/>
	</g>
	<g>
		<circle class="st5" cx="-301.8" cy="499.8" r="84.5"/>
	</g>
	<circle class="st6" cx="-301.5" cy="499.4" r="77.1"/>
	<circle class="st7" cx="-301.5" cy="499.4" r="73.7"/>
	<g class="st8">
		<path class="st4" d="M-373.5,515.4c1.8,8.3,5.1,16.1,9.4,23l106.3-98.4c-6.6-4.9-14.1-8.7-22.2-11.2L-373.5,515.4z"/>
		<path class="st4" d="M-251.4,445.3l-107.9,99.9c1.9,2.4,4,4.7,6.2,6.9l108-100.1C-247,449.6-249.2,447.4-251.4,445.3z"/>
		<path class="st4" d="M-229.8,482.2c-1.8-7.7-4.9-14.9-8.9-21.5L-344.9,559c6.2,4.6,13.2,8.1,20.7,10.6L-229.8,482.2z"/>
	</g>
	<path class="st4" d="M-332.3,513.1c-0.9,12.5-2.8,14.2-14.7,15.2c11.9,1,13.8,2.7,14.7,15.2c0.9-12.5,2.8-14.2,14.7-15.2
		C-329.6,527.3-331.4,525.6-332.3,513.1z"/>
	<path class="st4" d="M-249.3,410.7c-1.5,20-4.4,22.8-23.5,24.3c19.1,1.5,22,4.3,23.5,24.3c1.5-20,4.4-22.8,23.5-24.3
		C-244.9,433.5-247.8,430.7-249.3,410.7z"/>
</g>
<g>
	<g>
		<g>
			<g>
				<path class="st7" d="M-261.1,495.4H-272v14.8h10.9c3.8,0,7-3.3,7-7.4C-254.1,498.7-257.2,495.4-261.1,495.4z M-261.9,507h-6.2
					v-8.4h6.2c2.2,0,4,1.9,4,4.2S-259.7,507-261.9,507z"/>
				<rect x="-272" y="507.7" class="st7" width="3.3" height="14.6"/>
				<rect x="-274.1" y="507" class="st7" width="7.7" height="3.2"/>
				<rect x="-274.1" y="513.4" class="st7" width="15.3" height="3.2"/>
			</g>
			<g>
				<path class="st9" d="M-260.4,494.7h-10.9v14.8h10.9c3.8,0,7-3.3,7-7.4S-256.5,494.7-260.4,494.7z M-261.2,506.3h-6.2v-8.4h6.2
					c2.2,0,4,1.9,4,4.2C-257.2,504.4-259,506.3-261.2,506.3z"/>
				<rect x="-271.2" y="507" class="st9" width="3.3" height="14.6"/>
				<rect x="-273.4" y="506.3" class="st9" width="7.7" height="3.2"/>
				<rect x="-273.4" y="512.7" class="st9" width="15.3" height="3.2"/>
			</g>
		</g>
	</g>
	<g class="st10">
		<path class="st11" d="M-309,474.9v44h-11v-23.6c0-3.4-0.1-5.5-0.2-6.1c-0.2-0.7-0.6-1.2-1.3-1.6c-0.7-0.4-2.4-0.5-4.9-0.5h-1.1
			V482c5.3-1.1,9.3-3.5,12.1-7.1H-309z"/>
		<path class="st11" d="M-278.8,489.8v14.7c0,3.3-0.2,5.8-0.5,7.3c-0.4,1.5-1.1,2.9-2.3,4.3s-2.5,2.3-4.1,2.9s-3.4,0.9-5.4,0.9
			c-2.6,0-4.8-0.3-6.6-0.9s-3.1-1.6-4.2-2.8c-1-1.3-1.8-2.6-2.2-4.1c-0.4-1.4-0.7-3.7-0.7-6.8v-15.4c0-4,0.3-7.1,1-9.1
			c0.7-2,2.1-3.6,4.2-4.8c2.1-1.2,4.6-1.8,7.5-1.8c2.4,0,4.6,0.4,6.5,1.3c1.9,0.8,3.3,1.9,4.3,3.1c0.9,1.2,1.6,2.6,1.9,4.1
			C-279,484-278.8,486.5-278.8,489.8z M-289.8,486.1c0-2.3-0.1-3.8-0.3-4.4c-0.2-0.6-0.8-0.9-1.6-0.9c-0.8,0-1.4,0.3-1.6,0.9
			c-0.3,0.6-0.4,2.1-0.4,4.3v21.5c0,2.6,0.1,4.1,0.4,4.6s0.8,0.8,1.6,0.8s1.4-0.3,1.6-0.9c0.3-0.6,0.4-2,0.4-4.2V486.1z"/>
	</g>
	<g class="st10">
		<path class="st12" d="M-310.7,473.8v44h-11v-23.6c0-3.4-0.1-5.5-0.2-6.1c-0.2-0.7-0.6-1.2-1.3-1.6c-0.7-0.4-2.4-0.5-4.9-0.5h-1.1
			v-5.1c5.3-1.1,9.3-3.5,12.1-7.1H-310.7z"/>
		<path class="st12" d="M-280.5,488.7v14.7c0,3.3-0.2,5.8-0.5,7.3c-0.4,1.5-1.1,2.9-2.3,4.3c-1.1,1.3-2.5,2.3-4.1,2.9
			s-3.4,0.9-5.4,0.9c-2.6,0-4.8-0.3-6.6-0.9s-3.1-1.6-4.2-2.8c-1-1.3-1.8-2.6-2.2-4.1c-0.4-1.4-0.7-3.7-0.7-6.8v-15.4
			c0-4,0.3-7.1,1-9.1c0.7-2,2.1-3.6,4.2-4.8c2.1-1.2,4.6-1.8,7.5-1.8c2.4,0,4.6,0.4,6.5,1.3c1.9,0.8,3.3,1.9,4.3,3.1
			c0.9,1.2,1.6,2.6,1.9,4.1C-280.7,483-280.5,485.4-280.5,488.7z M-291.5,485c0-2.3-0.1-3.8-0.3-4.4c-0.2-0.6-0.8-0.9-1.6-0.9
			c-0.8,0-1.4,0.3-1.6,0.9s-0.4,2.1-0.4,4.3v21.5c0,2.6,0.1,4.1,0.4,4.6c0.2,0.5,0.8,0.8,1.6,0.8c0.8,0,1.4-0.3,1.6-0.9
			c0.3-0.6,0.4-2,0.4-4.2V485z"/>
	</g>
</g>
</svg>
