<?xml version="1.0" encoding="utf-8"?>
<!-- Generator: Adobe Illustrator 19.0.0, SVG Export Plug-In . SVG Version: 6.00 Build 0)  -->
<svg version="1.1" id="Layer_1" xmlns="http://www.w3.org/2000/svg" xmlns:xlink="http://www.w3.org/1999/xlink" x="0px" y="0px"
	 viewBox="0 0 200 200" enable-background="new 0 0 200 200" xml:space="preserve">
<g>
	<ellipse opacity="0.1" cx="98.6" cy="190.7" rx="86.4" ry="5.3"/>
	<circle fill="#AFACA3" cx="99.4" cy="95.5" r="93.5"/>
	<circle fill="#CCC2AC" cx="97.5" cy="98.6" r="92.1"/>
	<g opacity="0.28">
		<path fill="#FFFFFF" d="M161.1,31.8l-134.9,125c2,2.4,4,4.7,6.2,6.8L167.5,38.5C165.5,36.1,163.3,33.9,161.1,31.8z"/>
		<path fill="#FFFFFF" d="M184.2,67.3c-2.6-7.2-6-14-10.3-20.3L40.4,170.7c5.9,4.7,12.4,8.7,19.4,11.8L184.2,67.3z"/>
		<path fill="#FFFFFF" d="M10.4,128.4c2.7,7.8,6.3,15,10.9,21.7L154.9,26.3c-6.3-5-13.3-9.2-20.8-12.5L10.4,128.4z"/>
	</g>
	<g>
		
			<circle fill="none" stroke="#7F7D73" stroke-width="1.9286" stroke-linecap="round" stroke-linejoin="round" stroke-dasharray="1.9233,5.77" cx="97.2" cy="98.8" r="84.5"/>
	</g>
	<circle fill="#BAAF99" cx="97.5" cy="98.4" r="77.1"/>
	<circle fill="#9E9C90" cx="97.5" cy="98.4" r="73.7"/>
	<g opacity="0.16">
		<path fill="#FFFFFF" d="M25.5,114.4c1.8,8.3,5.1,16.1,9.4,23L141.2,39c-6.6-4.9-14.1-8.7-22.2-11.2L25.5,114.4z"/>
		<path fill="#FFFFFF" d="M147.6,44.3L39.7,144.2c1.9,2.4,4,4.7,6.2,6.9L153.9,51C152,48.6,149.8,46.4,147.6,44.3z"/>
		<path fill="#FFFFFF" d="M169.2,81.2c-1.8-7.7-4.9-14.9-8.9-21.5L54.1,158c6.2,4.6,13.2,8.1,20.7,10.6L169.2,81.2z"/>
	</g>
	<path fill="#FFFFFF" d="M66.7,112.1c-0.9,12.5-2.8,14.2-14.7,15.2c11.9,1,13.8,2.7,14.7,15.2c0.9-12.5,2.8-14.2,14.7-15.2
		C69.4,126.3,67.6,124.6,66.7,112.1z"/>
	<path fill="#FFFFFF" d="M149.7,9.7c-1.5,20-4.4,22.8-23.5,24.3c19.1,1.5,22,4.3,23.5,24.3c1.5-20,4.4-22.8,23.5-24.3
		C154.1,32.5,151.2,29.7,149.7,9.7z"/>
</g>
<g>
	<g>
		<g>
			<g>
				<path fill="#9E9C90" d="M137.9,94.4H127v14.8h10.9c3.8,0,7-3.3,7-7.4C144.9,97.7,141.8,94.4,137.9,94.4z M137.1,106h-6.2v-8.4
					h6.2c2.2,0,4,1.9,4,4.2S139.3,106,137.1,106z"/>
				<rect x="127" y="106.7" fill="#9E9C90" width="3.3" height="14.6"/>
				<rect x="124.9" y="106" fill="#9E9C90" width="7.7" height="3.2"/>
				<rect x="124.9" y="112.4" fill="#9E9C90" width="15.3" height="3.2"/>
			</g>
			<g>
				<path fill="#E0D8C7" d="M138.6,93.7h-10.9v14.8h10.9c3.8,0,7-3.3,7-7.4S142.5,93.7,138.6,93.7z M137.8,105.3h-6.2v-8.4h6.2
					c2.2,0,4,1.9,4,4.2S140,105.3,137.8,105.3z"/>
				<rect x="127.8" y="106" fill="#E0D8C7" width="3.3" height="14.6"/>
				<rect x="125.6" y="105.3" fill="#E0D8C7" width="7.7" height="3.2"/>
				<rect x="125.6" y="111.7" fill="#E0D8C7" width="15.3" height="3.2"/>
			</g>
		</g>
	</g>
	<g>
		<g>
			<path fill="#7F7D73" d="M89.5,73.9v28.8h3.1v7.5h-3.1v7.8h-11v-7.8H65.4v-7.5l9.5-28.8H89.5z M78.5,102.7V83.9l-4.9,18.7H78.5z"
				/>
			<path fill="#7F7D73" d="M118.9,73.9v7h-13.6v7.5c1.7-2,3.9-3,6.6-3c3,0,5.3,0.8,6.9,2.5s2.3,5,2.3,9.8v6.3c0,3.1-0.1,5.4-0.4,6.9
				c-0.3,1.5-0.9,2.8-1.9,4.1s-2.3,2.2-4.1,2.9s-3.9,1-6.4,1c-2.8,0-5.3-0.5-7.5-1.5c-2.2-1-3.7-2.5-4.6-4.4c-0.9-2-1.4-5-1.4-9.1
				v-2.4h11v2.7c0,2.8,0.1,4.9,0.3,6.1c0.2,1.2,0.9,1.8,2.1,1.8c0.5,0,1-0.2,1.3-0.5c0.3-0.3,0.5-0.7,0.5-1.1c0-0.4,0.1-2.1,0.1-5.2
				v-8.7c0-1.6-0.2-2.8-0.5-3.4c-0.3-0.6-0.9-0.9-1.7-0.9c-0.5,0-0.9,0.2-1.3,0.5c-0.3,0.3-0.6,0.6-0.7,1c-0.1,0.4-0.2,1.2-0.2,2.5
				H94.8l0.5-22.2H118.9z"/>
		</g>
	</g>
	<g>
		<path fill="#EFEAE1" d="M87.8,72.8v28.8h3.1v7.5h-3.1v7.8h-11v-7.8H63.7v-7.5l9.5-28.8H87.8z M76.8,101.6V82.9l-4.9,18.7H76.8z"/>
		<path fill="#EFEAE1" d="M117.2,72.8v7h-13.6v7.5c1.7-2,3.9-3,6.6-3c3,0,5.3,0.8,6.9,2.5s2.3,5,2.3,9.8v6.3c0,3.1-0.1,5.4-0.4,6.9
			s-0.9,2.8-1.9,4.1c-1,1.2-2.3,2.2-4.1,2.9c-1.8,0.7-3.9,1-6.4,1c-2.8,0-5.3-0.5-7.5-1.5c-2.2-1-3.7-2.5-4.6-4.4
			c-0.9-2-1.4-5-1.4-9.1v-2.4h11v2.7c0,2.8,0.1,4.9,0.3,6.1s0.9,1.8,2.1,1.8c0.5,0,1-0.2,1.3-0.5c0.3-0.3,0.5-0.7,0.5-1.1
			c0-0.4,0.1-2.1,0.1-5.2v-8.7c0-1.6-0.2-2.8-0.5-3.4c-0.3-0.6-0.9-0.9-1.7-0.9c-0.5,0-0.9,0.2-1.3,0.5c-0.3,0.3-0.6,0.6-0.7,1
			c-0.1,0.4-0.1,1.2-0.1,2.5H93.1l0.5-22.2H117.2z"/>
	</g>
</g>
</svg>
