<?xml version="1.0" standalone="no"?>
<!DOCTYPE svg PUBLIC "-//W3C//DTD SVG 1.1//EN"
  "http://www.w3.org/Graphics/SVG/1.1/DTD/svg11.dtd">
<svg version="1.1" xmlns="http://www.w3.org/2000/svg" xmlns:xlink="http://www.w3.org/1999/xlink">
<title></title>
<g xml:space='preserve' >
<clipPath id="clippath0" transform="matrix(0.071919,0.000000,0.000000,0.071917,0.000000,0.000000) "  >
<path d="
M 0 0
L 0 0
L 0 11567
L 11706 11567
L 11706 0
Z
" style="clip-rule:nonzero"/>
</clipPath>
<g style="clip-path:url(#clippath0)">
<g transform="matrix(0.071919,0.000000,0.000000,0.071917,0.000000,0.000000) " fill="none" stroke="#000000" stroke-width="1" stroke-linejoin="round" stroke-linecap="round" >
<path d="
M 5011 35
L 5011 35
L 4786 75
L 4563 124
L 4341 182
L 4122 248
L 4122 248
L 3905 323
L 3691 407
L 3481 498
L 3274 598
L 3274 598
L 3073 704
L 2876 818
L 2684 940
L 2496 1069
L 2496 1069
L 2318 1204
L 2145 1345
L 1979 1493
L 1819 1648
L 1819 1648
L 1539 1935
L 1265 2228
L 1265 2228
L 1147 2361
L 1035 2499
L 930 2641
L 930 2641
L 842 2771
L 761 2905
L 687 3044
L 687 3044
L 563 3302
L 451 3566
L 451 3566
L 355 3824
L 269 4086
L 196 4352
L 134 4621
L 134 4621
L 87 4881
L 54 5143
L 34 5406
L 27 5670
L 27 5670
L 33 5936
L 53 6202
L 86 6466
L 132 6728
L 132 6728
L 193 7002
L 266 7273
L 351 7541
L 446 7805
L 446 7805
L 543 8039
L 651 8268
L 769 8492
L 898 8710
L 1037 8922
L 1037 8922
L 1189 9134
L 1350 9339
L 1520 9536
L 1699 9727
L 1885 9909
L 1885 9909
L 2079 10084
L 2281 10250
L 2489 10408
L 2704 10556
L 2925 10696
L 2925 10696
L 3146 10822
L 3373 10937
L 3605 11042
L 3842 11137
L 4083 11220
L 4083 11220
L 4278 11279
L 4476 11331
L 4675 11376
L 4675 11376
L 5001 11437
L 5330 11484
L 5330 11484
L 5632 11515
L 5935 11533
L 5935 11533
L 6072 11533
L 6210 11521
L 6345 11498
L 6345 11498
L 6489 11468
L 6489 11468
L 6687 11426
L 6687 11426
L 6902 11381
L 6902 11381
L 7101 11340
L 7101 11340
L 7360 11280
L 7615 11208
L 7867 11124
L 8114 11028
L 8356 10920
L 8593 10800
L 8824 10670
L 9049 10528
L 9266 10376
L 9266 10376
L 9480 10210
L 9686 10036
L 9883 9852
L 10073 9659
L 10253 9458
L 10424 9249
L 10585 9032
L 10736 8808
L 10877 8578
L 10877 8578
L 11007 8341
L 11125 8099
L 11233 7852
L 11330 7601
L 11414 7345
L 11487 7085
L 11548 6823
L 11597 6558
L 11634 6291
L 11634 6291
L 11658 6028
L 11669 5764
L 11667 5499
L 11652 5236
L 11625 4973
L 11584 4712
L 11531 4453
L 11466 4197
L 11388 3945
L 11388 3945
L 11320 3754
L 11244 3567
L 11244 3567
L 11144 3344
L 11040 3125
L 11040 3125
L 10936 2922
L 10829 2721
L 10829 2721
L 10786 2649
L 10737 2580
L 10684 2515
L 10684 2515
L 10624 2448
L 10624 2448
L 10497 2305
L 10497 2305
L 10347 2135
L 10347 2135
L 10188 1956
L 10188 1956
L 10045 1800
L 9896 1650
L 9742 1505
L 9582 1367
L 9582 1367
L 9356 1186
L 9121 1015
L 8879 856
L 8879 856
L 8631 709
L 8377 573
L 8116 449
L 8116 449
L 7925 367
L 7730 293
L 7533 227
L 7333 168
L 7333 168
L 7199 135
L 7064 106
L 7064 106
L 6927 83
L 6788 65
L 6788 65
L 6625 50
L 6461 39
L 6461 39
L 6027 25
L 6027 25
L 5692 20
L 5692 20
L 5382 21
L 5382 21
L 5121 25
L 5121 25
L 5066 28
L 5011 35
Z
"/>
</g>
<g transform="matrix(0.071919,0.000000,0.000000,0.071917,0.000000,0.000000) " fill="none" stroke="#000000" stroke-width="1" stroke-linejoin="round" stroke-linecap="round" >
<path d="
M 3879 873
L 3879 873
L 3874 920
L 3859 965
L 3834 1006
L 3802 1040
L 3802 1040
L 3649 1159
L 3490 1269
L 3490 1269
L 3320 1369
L 3144 1458
L 3144 1458
L 3087 1479
L 3029 1493
L 2969 1498
L 2908 1495
L 2758 1477
L 2914 1293
L 2914 1293
L 2986 1216
L 3065 1146
L 3151 1084
L 3151 1084
L 3261 1017
L 3374 956
L 3491 902
L 3491 902
L 3589 862
L 3689 829
L 3791 803
L 3791 803
L 3817 802
L 3841 810
L 3862 826
L 3875 848
L 3879 873
Z
"/>
</g>
<g transform="matrix(0.071919,0.000000,0.000000,0.071917,0.000000,0.000000) " fill="none" stroke="#000000" stroke-width="1" stroke-linejoin="round" stroke-linecap="round" >
<path d="
M 4756 1965
L 4756 1965
L 4827 1999
L 4901 2023
L 4901 2023
L 4986 2043
L 5072 2056
L 5072 2056
L 5198 2067
L 5324 2072
L 5324 2072
L 5771 2076
L 5771 2076
L 6035 2080
L 6300 2092
L 6563 2114
L 6563 2114
L 6788 2141
L 7012 2180
L 7233 2231
L 7233 2231
L 7407 2282
L 7578 2343
L 7745 2415
L 7745 2415
L 7830 2461
L 7909 2518
L 7980 2584
L 8043 2658
L 8043 2658
L 8116 2764
L 8184 2873
L 8184 2873
L 8248 2993
L 8307 3115
L 8307 3115
L 8359 3237
L 8404 3362
L 8404 3362
L 8438 3476
L 8464 3592
L 8464 3592
L 8482 3720
L 8486 3849
L 8486 3849
L 8480 4022
L 8465 4194
L 8465 4194
L 8445 4359
L 8418 4522
L 8418 4522
L 8404 4574
L 8382 4623
L 8351 4668
L 8351 4668
L 8326 4706
L 8326 4706
L 8285 4786
L 8285 4786
L 8241 4884
L 8241 4884
L 8198 4987
L 8198 4987
L 8171 5049
L 8141 5109
L 8141 5109
L 8055 5264
L 8055 5264
L 7956 5423
L 7956 5423
L 7859 5562
L 7624 5878
L 7593 5448
L 7593 5448
L 7576 5295
L 7576 5295
L 7574 5290
L 7569 5289
L 7565 5290
L 7562 5295
L 7562 5295
L 7550 5462
L 7550 5462
L 7535 5957
L 7535 5957
L 7522 6287
L 7505 6616
L 7505 6616
L 7495 6719
L 7477 6821
L 7451 6921
L 7451 6921
L 7424 6994
L 7387 7062
L 7340 7124
L 7340 7124
L 7273 7195
L 7201 7262
L 7125 7323
L 7125 7323
L 7053 7371
L 6976 7409
L 6895 7438
L 6811 7457
L 6811 7457
L 6723 7466
L 6633 7467
L 6544 7458
L 6457 7439
L 6457 7439
L 6370 7411
L 6287 7374
L 6208 7329
L 6135 7276
L 6135 7276
L 6068 7216
L 6009 7149
L 5958 7077
L 5915 6999
L 5915 6999
L 5877 6909
L 5849 6815
L 5849 6815
L 5827 6709
L 5814 6601
L 5814 6601
L 5803 6434
L 5798 6265
L 5798 6265
L 5795 5555
L 5795 5555
L 5797 5152
L 5803 4749
L 5803 4749
L 5813 4550
L 5836 4352
L 5836 4352
L 5853 4266
L 5878 4181
L 5910 4099
L 5910 4099
L 5948 4024
L 5993 3953
L 6046 3887
L 6172 3742
L 6034 3858
L 6034 3858
L 5963 3923
L 5901 3996
L 5848 4076
L 5848 4076
L 5803 4163
L 5768 4254
L 5743 4348
L 5743 4348
L 5718 4488
L 5702 4629
L 5693 4770
L 5693 4770
L 5684 5170
L 5680 5570
L 5680 5570
L 5684 6018
L 5684 6018
L 5696 6429
L 5696 6429
L 5713 6772
L 5713 6772
L 5720 6839
L 5735 6905
L 5735 6905
L 5766 7022
L 5766 7022
L 5769 7037
L 5767 7053
L 5767 7053
L 5765 7057
L 5760 7059
L 5755 7056
L 5755 7056
L 5715 7007
L 5715 7007
L 5684 6970
L 5684 6970
L 5654 6943
L 5654 6943
L 5628 6929
L 5628 6929
L 5620 6928
L 5613 6931
L 5613 6931
L 5610 6933
L 5606 6932
L 5604 6928
L 5604 6928
L 5599 6826
L 5599 6826
L 5597 6697
L 5597 6697
L 5600 6539
L 5612 6121
L 5569 6504
L 5569 6504
L 5546 6656
L 5511 6807
L 5465 6954
L 5465 6954
L 5430 7040
L 5385 7121
L 5331 7196
L 5270 7265
L 5270 7265
L 5206 7320
L 5137 7367
L 5062 7404
L 4983 7432
L 4983 7432
L 4892 7452
L 4799 7464
L 4705 7467
L 4612 7461
L 4612 7461
L 4501 7444
L 4391 7418
L 4284 7382
L 4284 7382
L 4221 7354
L 4161 7318
L 4105 7276
L 4055 7227
L 4055 7227
L 3994 7152
L 3944 7068
L 3907 6979
L 3907 6979
L 3872 6859
L 3845 6738
L 3826 6615
L 3785 6266
L 4093 6266
L 4402 6266
L 4402 6516
L 4402 6516
L 4407 6616
L 4407 6616
L 4422 6712
L 4422 6712
L 4445 6792
L 4445 6792
L 4456 6815
L 4471 6835
L 4471 6835
L 4502 6860
L 4536 6880
L 4574 6893
L 4574 6893
L 4643 6903
L 4713 6903
L 4713 6903
L 4780 6890
L 4844 6867
L 4844 6867
L 4875 6848
L 4902 6823
L 4922 6792
L 4922 6792
L 4952 6725
L 4971 6654
L 4980 6582
L 4980 6582
L 4986 6363
L 4984 6145
L 4984 6145
L 4975 5927
L 4958 5709
L 4958 5709
L 4946 5642
L 4923 5579
L 4890 5521
L 4890 5521
L 4860 5485
L 4824 5455
L 4784 5431
L 4784 5431
L 4740 5415
L 4694 5406
L 4648 5405
L 4648 5405
L 4602 5412
L 4559 5426
L 4519 5448
L 4519 5448
L 4485 5476
L 4456 5510
L 4434 5549
L 4434 5549
L 4416 5582
L 4394 5612
L 4394 5612
L 4369 5633
L 4340 5648
L 4340 5648
L 4299 5659
L 4257 5664
L 4257 5664
L 4115 5665
L 3850 5657
L 3872 4676
L 3872 4676
L 3880 4207
L 3880 4207
L 3879 4067
L 3875 3926
L 3875 3926
L 3860 3752
L 3860 3752
L 3855 3739
L 3842 3734
L 3829 3736
L 3829 3736
L 3809 3755
L 3799 3780
L 3799 3780
L 3780 3935
L 3780 3935
L 3765 4146
L 3765 4146
L 3760 4426
L 3760 4426
L 3755 4692
L 3755 4692
L 3745 4953
L 3745 4953
L 3730 5179
L 3730 5179
L 3724 5244
L 3713 5308
L 3670 5540
L 3636 5189
L 3636 5189
L 3614 5035
L 3614 5035
L 3576 4862
L 3576 4862
L 3530 4698
L 3530 4698
L 3507 4633
L 3481 4571
L 3481 4571
L 3454 4508
L 3431 4444
L 3431 4444
L 3383 4283
L 3383 4283
L 3344 4114
L 3344 4114
L 3320 3964
L 3320 3964
L 3296 3822
L 3296 3822
L 3260 3674
L 3260 3674
L 3217 3541
L 3217 3541
L 3197 3495
L 3173 3451
L 3173 3451
L 3130 3370
L 3097 3286
L 3097 3286
L 3078 3208
L 3073 3129
L 3073 3129
L 3081 3049
L 3102 2973
L 3102 2973
L 3138 2890
L 3183 2812
L 3183 2812
L 3227 2740
L 3227 2740
L 3264 2665
L 3264 2665
L 3291 2599
L 3291 2599
L 3297 2578
L 3299 2556
L 3299 2556
L 3303 2510
L 3317 2465
L 3340 2424
L 3340 2424
L 3407 2332
L 3481 2245
L 3481 2245
L 3569 2157
L 3663 2076
L 3663 2076
L 3750 2015
L 3844 1965
L 3844 1965
L 3959 1920
L 4078 1887
L 4078 1887
L 4197 1867
L 4317 1861
L 4317 1861
L 4434 1867
L 4548 1887
L 4548 1887
L 4620 1907
L 4689 1933
L 4756 1965
Z
"/>
</g>
<g transform="matrix(0.071919,0.000000,0.000000,0.071917,0.000000,0.000000) " fill="none" stroke="#000000" stroke-width="1" stroke-linejoin="round" stroke-linecap="round" >
<path d="
M 4810 5600
L 4810 5600
L 4837 5641
L 4854 5686
L 4862 5734
L 4862 5734
L 4871 5956
L 4875 6177
L 4875 6177
L 4875 6400
L 4872 6623
L 4872 6623
L 4865 6666
L 4848 6706
L 4822 6740
L 4822 6740
L 4816 6743
L 4811 6741
L 4807 6737
L 4807 6737
L 4797 6694
L 4797 6694
L 4794 6621
L 4794 6621
L 4799 6524
L 4799 6524
L 4804 6416
L 4804 6416
L 4802 6375
L 4797 6335
L 4797 6335
L 4791 6308
L 4782 6282
L 4782 6282
L 4771 6270
L 4756 6266
L 4756 6266
L 4737 6263
L 4720 6256
L 4720 6256
L 4646 6208
L 4646 6208
L 4561 6143
L 4561 6143
L 4472 6067
L 4472 6067
L 4417 6020
L 4360 5976
L 4360 5976
L 4306 5941
L 4250 5910
L 4250 5910
L 4195 5886
L 4139 5867
L 4139 5867
L 4081 5853
L 4022 5845
L 4022 5845
L 3859 5828
L 3859 5828
L 3858 5827
L 3857 5826
L 3857 5824
L 3858 5823
L 3858 5823
L 3870 5819
L 3870 5819
L 4067 5811
L 4067 5811
L 4212 5800
L 4212 5800
L 4260 5791
L 4306 5775
L 4306 5775
L 4342 5756
L 4375 5730
L 4375 5730
L 4408 5695
L 4436 5657
L 4436 5657
L 4476 5605
L 4523 5561
L 4523 5561
L 4554 5541
L 4587 5526
L 4622 5517
L 4622 5517
L 4656 5516
L 4690 5521
L 4722 5532
L 4722 5532
L 4770 5561
L 4810 5600
Z
"/>
</g>
<g transform="matrix(0.071919,0.000000,0.000000,0.071917,0.000000,0.000000) " fill="none" stroke="#000000" stroke-width="1" stroke-linejoin="round" stroke-linecap="round" >
<path d="
M 8625 6076
L 8625 6076
L 8655 6124
L 8675 6177
L 8675 6177
L 8689 6240
L 8695 6305
L 8695 6305
L 8692 6372
L 8682 6439
L 8682 6439
L 8664 6501
L 8637 6560
L 8637 6560
L 8618 6590
L 8592 6615
L 8592 6615
L 8563 6635
L 8530 6649
L 8530 6649
L 8484 6661
L 8437 6667
L 8437 6667
L 8289 6672
L 8289 6672
L 8168 6674
L 8046 6681
L 8046 6681
L 8025 6688
L 8011 6706
L 8008 6728
L 8008 6728
L 8017 6751
L 8034 6769
L 8058 6777
L 8058 6777
L 8181 6791
L 8305 6800
L 8305 6800
L 8422 6811
L 8422 6811
L 8521 6829
L 8521 6829
L 8594 6852
L 8594 6852
L 8606 6861
L 8610 6875
L 8610 6875
L 8606 6890
L 8594 6899
L 8594 6899
L 8521 6922
L 8521 6922
L 8422 6940
L 8422 6940
L 8305 6951
L 8305 6951
L 8139 6965
L 8139 6965
L 8097 6972
L 8057 6986
L 8057 6986
L 8033 7001
L 8016 7023
L 8016 7023
L 8005 7051
L 8001 7082
L 8001 7082
L 7994 7125
L 7994 7125
L 7986 7144
L 7975 7162
L 7975 7162
L 7962 7175
L 7947 7186
L 7947 7186
L 7931 7193
L 7914 7195
L 7914 7195
L 7897 7193
L 7880 7188
L 7880 7188
L 7865 7179
L 7852 7167
L 7852 7167
L 7833 7136
L 7833 7136
L 7827 7100
L 7827 7100
L 7825 7078
L 7819 7058
L 7819 7058
L 7797 7010
L 7797 7010
L 7764 6964
L 7764 6964
L 7725 6927
L 7725 6927
L 7660 6877
L 7660 6877
L 7655 6870
L 7653 6861
L 7653 6861
L 7655 6854
L 7662 6851
L 7662 6851
L 7725 6848
L 7725 6848
L 7761 6844
L 7795 6834
L 7795 6834
L 7815 6818
L 7824 6795
L 7824 6795
L 7820 6769
L 7805 6748
L 7805 6748
L 7774 6726
L 7740 6709
L 7740 6709
L 7706 6692
L 7676 6669
L 7676 6669
L 7660 6645
L 7655 6616
L 7655 6616
L 7663 6591
L 7681 6573
L 7681 6573
L 7712 6561
L 7745 6556
L 7745 6556
L 7769 6553
L 7790 6543
L 7790 6543
L 7805 6527
L 7815 6507
L 7815 6507
L 7821 6473
L 7823 6438
L 7823 6438
L 7813 6310
L 7813 6310
L 7801 6208
L 7801 6208
L 7784 6109
L 7784 6109
L 7765 6022
L 7765 6022
L 7747 5972
L 7747 5972
L 7743 5949
L 7749 5928
L 7749 5928
L 7763 5911
L 7784 5904
L 7784 5904
L 7834 5901
L 7883 5903
L 7883 5903
L 8129 5930
L 8129 5930
L 8320 5957
L 8320 5957
L 8393 5972
L 8465 5991
L 8465 5991
L 8517 6009
L 8569 6030
L 8569 6030
L 8600 6049
L 8625 6076
Z
"/>
</g>
<g transform="matrix(0.071919,0.000000,0.000000,0.071917,0.000000,0.000000) " fill="none" stroke="#000000" stroke-width="1" stroke-linejoin="round" stroke-linecap="round" >
<path d="
M 7633 6164
L 7633 6164
L 7622 6177
L 7622 6177
L 7618 6177
L 7615 6176
L 7612 6173
L 7612 6173
L 7605 6144
L 7605 6144
L 7604 6092
L 7604 6092
L 7605 6040
L 7605 6040
L 7612 6011
L 7612 6011
L 7615 6008
L 7618 6006
L 7622 6007
L 7622 6007
L 7633 6019
L 7633 6019
L 7642 6052
L 7642 6052
L 7645 6092
L 7645 6092
L 7642 6131
L 7642 6131
L 7633 6164
Z
"/>
</g>
<g transform="matrix(0.071919,0.000000,0.000000,0.071917,0.000000,0.000000) " fill="none" stroke="#000000" stroke-width="1" stroke-linejoin="round" stroke-linecap="round" >
<path d="
M 5940 7253
L 5940 7253
L 5978 7297
L 5978 7297
L 6006 7335
L 6006 7335
L 6021 7362
L 6021 7362
L 6021 7365
L 6019 7368
L 6016 7369
L 6016 7369
L 6000 7363
L 6000 7363
L 5965 7335
L 5965 7335
L 5924 7297
L 5924 7297
L 5882 7253
L 5882 7253
L 5844 7208
L 5844 7208
L 5816 7171
L 5816 7171
L 5801 7144
L 5801 7144
L 5801 7141
L 5803 7138
L 5806 7137
L 5806 7137
L 5823 7142
L 5823 7142
L 5857 7171
L 5857 7171
L 5898 7208
L 5898 7208
L 5940 7253
Z
"/>
</g>
<g transform="matrix(0.071919,0.000000,0.000000,0.071917,0.000000,0.000000) " fill="none" stroke="#000000" stroke-width="1" stroke-linejoin="round" stroke-linecap="round" >
<path d="
M 8050 9560
L 8050 9560
L 8135 9651
L 8135 9651
L 8158 9684
L 8175 9721
L 8175 9721
L 8184 9755
L 8185 9791
L 8185 9791
L 8180 9838
L 8170 9883
L 8170 9883
L 8146 9958
L 8115 10030
L 8115 10030
L 8081 10088
L 8040 10141
L 8040 10141
L 7988 10192
L 7929 10236
L 7929 10236
L 7846 10287
L 7760 10334
L 7760 10334
L 7692 10365
L 7622 10389
L 7549 10408
L 7549 10408
L 7419 10430
L 7287 10441
L 7287 10441
L 7164 10441
L 7041 10431
L 7041 10431
L 6989 10420
L 6939 10400
L 6893 10371
L 6893 10371
L 6872 10351
L 6855 10326
L 6855 10326
L 6838 10290
L 6824 10252
L 6824 10252
L 6811 10206
L 6802 10160
L 6802 10160
L 6792 10056
L 6792 10056
L 6791 9987
L 6795 9918
L 6795 9918
L 6802 9872
L 6817 9829
L 6817 9829
L 6840 9790
L 6870 9756
L 6870 9756
L 6920 9710
L 6973 9667
L 6973 9667
L 7070 9599
L 7172 9537
L 7277 9482
L 7277 9482
L 7372 9444
L 7470 9418
L 7570 9402
L 7570 9402
L 7659 9399
L 7747 9408
L 7833 9430
L 7833 9430
L 7912 9462
L 7985 9506
L 8050 9560
Z
"/>
</g>
<g transform="matrix(0.071919,0.000000,0.000000,0.071917,0.000000,0.000000) " fill="none" stroke="#000000" stroke-width="1" stroke-linejoin="round" stroke-linecap="round" >
<path d="
M 6445 4304
L 6445 4304
L 6416 4337
L 6390 4372
L 6390 4372
L 6379 4398
L 6377 4426
L 6377 4426
L 6382 4437
L 6392 4443
L 6403 4442
L 6403 4442
L 6433 4429
L 6459 4411
L 6459 4411
L 6479 4397
L 6501 4386
L 6501 4386
L 6558 4368
L 6558 4368
L 6620 4358
L 6620 4358
L 6677 4360
L 6811 4379
L 6827 5536
L 6827 5536
L 6830 6056
L 6830 6056
L 6828 6239
L 6823 6422
L 6823 6422
L 6809 6691
L 6809 6691
L 6800 6726
L 6779 6755
L 6779 6755
L 6753 6773
L 6753 6773
L 6747 6774
L 6742 6771
L 6739 6767
L 6739 6767
L 6737 6750
L 6738 6733
L 6738 6733
L 6755 6658
L 6755 6658
L 6779 6552
L 6779 6552
L 6777 6539
L 6769 6529
L 6769 6529
L 6755 6526
L 6741 6529
L 6741 6529
L 6628 6585
L 6463 6671
L 6430 6135
L 6398 5599
L 6387 6155
L 6387 6155
L 6384 6464
L 6384 6464
L 6388 6547
L 6397 6629
L 6397 6629
L 6408 6682
L 6427 6733
L 6427 6733
L 6450 6774
L 6482 6809
L 6482 6809
L 6528 6846
L 6579 6879
L 6579 6879
L 6618 6895
L 6660 6899
L 6660 6899
L 6703 6890
L 6741 6871
L 6741 6871
L 6792 6832
L 6840 6789
L 6840 6789
L 6867 6756
L 6889 6720
L 6905 6681
L 6905 6681
L 6926 6601
L 6938 6520
L 6938 6520
L 6949 6376
L 6953 6233
L 6953 6233
L 6956 5545
L 6956 5545
L 6953 4927
L 6953 4927
L 6948 4768
L 6939 4608
L 6939 4608
L 6929 4513
L 6914 4418
L 6914 4418
L 6904 4384
L 6887 4353
L 6865 4326
L 6865 4326
L 6821 4290
L 6770 4264
L 6770 4264
L 6712 4246
L 6651 4238
L 6651 4238
L 6592 4239
L 6534 4251
L 6534 4251
L 6486 4272
L 6445 4304
Z
"/>
</g>
<g transform="matrix(0.071919,0.000000,0.000000,0.071917,0.000000,0.000000) " fill="none" stroke="#000000" stroke-width="1" stroke-linejoin="round" stroke-linecap="round" >
<path d="
M 6579 6730
L 6579 6730
L 6588 6753
L 6588 6753
L 6586 6771
L 6586 6771
L 6574 6784
L 6574 6784
L 6553 6789
L 6553 6789
L 6530 6784
L 6530 6784
L 6510 6771
L 6510 6771
L 6496 6753
L 6496 6753
L 6492 6730
L 6492 6730
L 6493 6708
L 6493 6708
L 6499 6689
L 6499 6689
L 6507 6677
L 6507 6677
L 6512 6674
L 6517 6672
L 6517 6672
L 6529 6676
L 6529 6676
L 6546 6689
L 6546 6689
L 6563 6708
L 6563 6708
L 6579 6730
Z
"/>
</g>
<g transform="matrix(0.071919,0.000000,0.000000,0.071917,0.000000,0.000000) " fill="none" stroke="#000000" stroke-width="1" stroke-linejoin="round" stroke-linecap="round" >
<path d="
M 4402 4350
L 4402 4350
L 4407 4366
L 4422 4374
L 4422 4374
L 4532 4392
L 4532 4392
L 4679 4405
L 4679 4405
L 4863 4409
L 4863 4409
L 5042 4404
L 5042 4404
L 5199 4391
L 5199 4391
L 5325 4373
L 5325 4373
L 5345 4366
L 5360 4350
L 5360 4350
L 5362 4340
L 5358 4331
L 5350 4325
L 5350 4325
L 5256 4308
L 5256 4308
L 5109 4296
L 5109 4296
L 4899 4292
L 4899 4292
L 4699 4296
L 4699 4296
L 4541 4309
L 4541 4309
L 4422 4326
L 4422 4326
L 4408 4335
L 4402 4350
Z
"/>
</g>
<g transform="matrix(0.071919,0.000000,0.000000,0.071917,0.000000,0.000000) " fill="none" stroke="#000000" stroke-width="1" stroke-linejoin="round" stroke-linecap="round" >
<path d="
M 4373 4931
L 4373 4931
L 4364 4953
L 4364 4953
L 4365 4972
L 4365 4972
L 4378 4984
L 4378 4984
L 4398 4989
L 4398 4989
L 4422 4985
L 4422 4985
L 4442 4972
L 4442 4972
L 4455 4953
L 4455 4953
L 4460 4931
L 4460 4931
L 4458 4909
L 4458 4909
L 4452 4890
L 4452 4890
L 4444 4877
L 4444 4877
L 4440 4874
L 4434 4873
L 4434 4873
L 4422 4877
L 4422 4877
L 4406 4890
L 4406 4890
L 4388 4909
L 4388 4909
L 4373 4931
Z
"/>
</g>
<g transform="matrix(0.071919,0.000000,0.000000,0.071917,0.000000,0.000000) " fill="none" stroke="#000000" stroke-width="1" stroke-linejoin="round" stroke-linecap="round" >
<path d="
M 8001 6324
L 8001 6324
L 8005 6469
L 8005 6469
L 8012 6498
L 8027 6524
L 8027 6524
L 8049 6542
L 8075 6550
L 8075 6550
L 8192 6556
L 8192 6556
L 8260 6553
L 8326 6542
L 8326 6542
L 8381 6524
L 8432 6498
L 8432 6498
L 8469 6468
L 8499 6430
L 8499 6430
L 8517 6390
L 8523 6346
L 8523 6346
L 8520 6314
L 8510 6283
L 8495 6255
L 8495 6255
L 8457 6210
L 8413 6172
L 8413 6172
L 8357 6138
L 8297 6112
L 8297 6112
L 8235 6097
L 8171 6092
L 8171 6092
L 8121 6094
L 8071 6099
L 8071 6099
L 8046 6108
L 8026 6126
L 8026 6126
L 8011 6153
L 8005 6183
L 8005 6183
L 8001 6324
Z
"/>
</g>
</g >
</g >
</svg>
