<?xml version="1.0" standalone="no"?>
<!DOCTYPE svg PUBLIC "-//W3C//DTD SVG 1.1//EN"
  "http://www.w3.org/Graphics/SVG/1.1/DTD/svg11.dtd">
<svg version="1.1" xmlns="http://www.w3.org/2000/svg" xmlns:xlink="http://www.w3.org/1999/xlink">
<title></title>
<g xml:space='preserve' >
<clipPath id="clippath0" transform="matrix(0.072005,0.000000,0.000000,0.071915,0.000000,0.000000) "  >
<path d="
M 0 0
L 0 0
L 0 11498
L 11706 11498
L 11706 0
Z
" style="clip-rule:nonzero"/>
</clipPath>
<g style="clip-path:url(#clippath0)">
<g transform="matrix(0.072005,0.000000,0.000000,0.071915,0.000000,0.000000) " fill="none" stroke="#000000" stroke-width="1" stroke-linejoin="round" stroke-linecap="round" >
<path d="
M 4690 112
L 4690 112
L 4414 180
L 4141 261
L 3872 354
L 3608 460
L 3349 579
L 3096 710
L 3096 710
L 2848 853
L 2607 1008
L 2373 1174
L 2147 1350
L 1930 1537
L 1721 1734
L 1721 1734
L 1527 1935
L 1343 2146
L 1169 2365
L 1006 2592
L 853 2827
L 712 3068
L 712 3068
L 607 3271
L 511 3479
L 425 3690
L 349 3906
L 283 4125
L 228 4347
L 184 4571
L 184 4571
L 154 4737
L 154 4737
L 119 4924
L 119 4924
L 84 5104
L 84 5104
L 55 5245
L 55 5245
L 30 5393
L 19 5543
L 22 5693
L 22 5693
L 39 5914
L 63 6134
L 94 6353
L 94 6353
L 134 6591
L 182 6828
L 236 7064
L 236 7064
L 294 7278
L 360 7490
L 434 7699
L 434 7699
L 520 7914
L 615 8125
L 718 8332
L 830 8535
L 951 8733
L 951 8733
L 1082 8931
L 1222 9123
L 1368 9311
L 1522 9492
L 1683 9668
L 1683 9668
L 1848 9835
L 2020 9996
L 2199 10150
L 2383 10298
L 2573 10438
L 2573 10438
L 2760 10564
L 2952 10682
L 3149 10791
L 3351 10891
L 3557 10983
L 3557 10983
L 3813 11083
L 4073 11172
L 4335 11250
L 4335 11250
L 4597 11316
L 4861 11370
L 5127 11413
L 5127 11413
L 5384 11442
L 5642 11459
L 5900 11464
L 5900 11464
L 6144 11457
L 6386 11436
L 6627 11402
L 6627 11402
L 6880 11355
L 7132 11299
L 7383 11236
L 7630 11165
L 7630 11165
L 7850 11093
L 8065 11012
L 8278 10921
L 8485 10820
L 8485 10820
L 8684 10713
L 8878 10597
L 9067 10472
L 9250 10339
L 9250 10339
L 9441 10187
L 9626 10029
L 9806 9864
L 9980 9692
L 9980 9692
L 10131 9532
L 10277 9366
L 10416 9196
L 10549 9020
L 10549 9020
L 10672 8844
L 10788 8663
L 10898 8478
L 11000 8289
L 11000 8289
L 11094 8095
L 11181 7899
L 11261 7699
L 11332 7496
L 11332 7496
L 11398 7286
L 11455 7074
L 11505 6860
L 11548 6644
L 11548 6644
L 11592 6384
L 11633 6122
L 11633 6122
L 11656 5946
L 11671 5769
L 11671 5769
L 11675 5631
L 11672 5494
L 11672 5494
L 11660 5365
L 11638 5238
L 11638 5238
L 11608 5093
L 11608 5093
L 11567 4889
L 11567 4889
L 11523 4667
L 11523 4667
L 11482 4459
L 11482 4459
L 11441 4271
L 11392 4086
L 11335 3902
L 11271 3722
L 11271 3722
L 11170 3478
L 11057 3240
L 10932 3008
L 10932 3008
L 10788 2771
L 10631 2540
L 10464 2318
L 10464 2318
L 10274 2087
L 10075 1864
L 9867 1649
L 9867 1649
L 9686 1477
L 9498 1313
L 9302 1158
L 9302 1158
L 9099 1011
L 8890 873
L 8674 745
L 8674 745
L 8450 625
L 8221 515
L 7987 415
L 7987 415
L 7743 322
L 7495 240
L 7244 167
L 7244 167
L 7060 123
L 6874 89
L 6686 65
L 6686 65
L 6449 43
L 6211 29
L 5973 20
L 5973 20
L 5734 19
L 5495 23
L 5257 34
L 5257 34
L 5066 50
L 4877 76
L 4690 112
Z
"/>
</g>
<g transform="matrix(0.072005,0.000000,0.000000,0.071915,0.000000,0.000000) " fill="none" stroke="#000000" stroke-width="1" stroke-linejoin="round" stroke-linecap="round" >
<path d="
M 3823 931
L 3823 931
L 3819 971
L 3806 1009
L 3785 1043
L 3757 1072
L 3757 1072
L 3622 1179
L 3480 1279
L 3480 1279
L 3330 1372
L 3174 1456
L 3174 1456
L 3105 1484
L 3032 1501
L 2958 1507
L 2958 1507
L 2914 1503
L 2872 1491
L 2872 1491
L 2858 1481
L 2850 1466
L 2850 1449
L 2850 1449
L 2866 1408
L 2891 1373
L 2891 1373
L 3028 1236
L 3028 1236
L 3106 1166
L 3189 1101
L 3275 1042
L 3275 1042
L 3361 990
L 3451 944
L 3543 905
L 3543 905
L 3610 883
L 3679 869
L 3749 861
L 3749 861
L 3777 866
L 3801 881
L 3817 904
L 3823 931
Z
"/>
</g>
<g transform="matrix(0.072005,0.000000,0.000000,0.071915,0.000000,0.000000) " fill="none" stroke="#000000" stroke-width="1" stroke-linejoin="round" stroke-linecap="round" >
<path d="
M 5673 2087
L 5673 2087
L 5980 2088
L 6288 2097
L 6288 2097
L 6536 2114
L 6783 2144
L 6783 2144
L 6996 2182
L 7207 2232
L 7207 2232
L 7339 2272
L 7470 2317
L 7598 2369
L 7598 2369
L 7704 2420
L 7805 2480
L 7805 2480
L 7899 2548
L 7986 2624
L 7986 2624
L 8055 2696
L 8116 2774
L 8116 2774
L 8138 2814
L 8152 2857
L 8157 2902
L 8157 2902
L 8164 2943
L 8164 2943
L 8183 2988
L 8183 2988
L 8210 3031
L 8210 3031
L 8241 3064
L 8241 3064
L 8262 3086
L 8277 3112
L 8277 3112
L 8319 3226
L 8319 3226
L 8359 3366
L 8359 3366
L 8391 3519
L 8391 3519
L 8409 3629
L 8423 3738
L 8423 3738
L 8429 3822
L 8430 3907
L 8430 3907
L 8424 3991
L 8413 4075
L 8413 4075
L 8368 4296
L 8368 4296
L 8333 4432
L 8290 4566
L 8242 4698
L 8242 4698
L 8152 4905
L 8050 5108
L 8050 5108
L 7936 5303
L 7811 5491
L 7811 5491
L 7728 5603
L 7639 5711
L 7545 5814
L 7545 5814
L 7360 6014
L 7360 6014
L 7317 6070
L 7280 6132
L 7280 6132
L 7258 6189
L 7245 6248
L 7245 6248
L 7237 6336
L 7234 6424
L 7234 6424
L 7236 6548
L 7243 6672
L 7243 6672
L 7251 6692
L 7268 6703
L 7290 6703
L 7290 6703
L 7314 6688
L 7331 6666
L 7339 6640
L 7339 6640
L 7352 6509
L 7361 6378
L 7379 6045
L 7725 6063
L 7725 6063
L 7834 6074
L 7940 6092
L 8046 6120
L 8046 6120
L 8099 6142
L 8149 6172
L 8193 6210
L 8230 6254
L 8230 6254
L 8255 6298
L 8269 6346
L 8273 6396
L 8266 6446
L 8266 6446
L 8240 6527
L 8203 6603
L 8155 6673
L 8155 6673
L 8120 6714
L 8082 6751
L 8082 6751
L 8047 6776
L 8008 6796
L 8008 6796
L 7963 6811
L 7916 6819
L 7916 6819
L 7779 6826
L 7779 6826
L 7676 6830
L 7676 6830
L 7595 6844
L 7595 6844
L 7539 6864
L 7539 6864
L 7527 6875
L 7523 6891
L 7523 6891
L 7528 6907
L 7542 6918
L 7542 6918
L 7572 6927
L 7602 6933
L 7602 6933
L 7651 6937
L 7700 6937
L 7700 6937
L 7841 6929
L 7841 6929
L 7997 6920
L 7997 6920
L 8044 6920
L 8090 6925
L 8090 6925
L 8116 6933
L 8140 6945
L 8140 6945
L 8154 6960
L 8159 6980
L 8159 6980
L 8154 7000
L 8140 7015
L 8140 7015
L 8114 7030
L 8085 7039
L 8085 7039
L 8038 7048
L 7990 7053
L 7990 7053
L 7841 7057
L 7841 7057
L 7719 7061
L 7719 7061
L 7616 7074
L 7616 7074
L 7540 7092
L 7540 7092
L 7528 7101
L 7523 7115
L 7523 7115
L 7528 7129
L 7540 7137
L 7540 7137
L 7611 7156
L 7611 7156
L 7707 7168
L 7707 7168
L 7822 7173
L 7822 7173
L 8077 7175
L 8077 7175
L 8084 7177
L 8087 7183
L 8087 7190
L 8083 7195
L 8083 7195
L 8052 7210
L 8019 7217
L 8019 7217
L 7711 7246
L 7711 7246
L 7515 7260
L 7515 7260
L 7466 7260
L 7418 7255
L 7418 7255
L 7391 7246
L 7369 7231
L 7369 7231
L 7355 7212
L 7350 7188
L 7350 7188
L 7348 7168
L 7342 7148
L 7342 7148
L 7320 7102
L 7320 7102
L 7287 7058
L 7287 7058
L 7248 7022
L 7248 7022
L 7184 6972
L 7184 6972
L 7178 6965
L 7176 6956
L 7176 6956
L 7179 6949
L 7185 6946
L 7185 6946
L 7248 6943
L 7248 6943
L 7286 6940
L 7323 6933
L 7323 6933
L 7338 6923
L 7343 6905
L 7343 6905
L 7337 6879
L 7323 6856
L 7323 6856
L 7234 6755
L 7234 6755
L 7199 6710
L 7173 6660
L 7173 6660
L 7151 6601
L 7137 6539
L 7137 6539
L 7125 6445
L 7118 6350
L 7118 6350
L 7109 5991
L 7099 5351
L 7065 6103
L 7065 6103
L 7049 6378
L 7024 6652
L 7024 6652
L 7008 6761
L 6983 6869
L 6950 6974
L 6950 6974
L 6915 7054
L 6871 7129
L 6817 7198
L 6817 7198
L 6749 7270
L 6675 7335
L 6595 7394
L 6595 7394
L 6520 7439
L 6439 7474
L 6355 7499
L 6355 7499
L 6265 7514
L 6174 7520
L 6082 7516
L 6082 7516
L 5991 7502
L 5901 7478
L 5815 7445
L 5815 7445
L 5735 7404
L 5661 7353
L 5593 7294
L 5593 7294
L 5552 7252
L 5514 7207
L 5514 7207
L 5437 7098
L 5437 7098
L 5373 6986
L 5373 6986
L 5352 6938
L 5334 6888
L 5334 6888
L 5306 6777
L 5288 6663
L 5281 6549
L 5281 6549
L 5273 6081
L 5270 5613
L 5270 5613
L 5271 5146
L 5278 4679
L 5278 4679
L 5285 4560
L 5302 4441
L 5330 4324
L 5330 4324
L 5346 4274
L 5367 4226
L 5367 4226
L 5433 4109
L 5433 4109
L 5514 3994
L 5514 3994
L 5554 3945
L 5598 3898
L 5598 3898
L 5671 3822
L 5671 3822
L 5710 3770
L 5710 3770
L 5711 3762
L 5707 3755
L 5707 3755
L 5697 3751
L 5688 3754
L 5688 3754
L 5614 3800
L 5547 3857
L 5547 3857
L 5473 3935
L 5405 4019
L 5405 4019
L 5342 4110
L 5285 4205
L 5285 4205
L 5244 4293
L 5213 4385
L 5213 4385
L 5198 4453
L 5190 4523
L 5190 4523
L 5171 4856
L 5171 4856
L 5157 5255
L 5157 5255
L 5153 5688
L 5153 5688
L 5157 6330
L 5157 6330
L 5161 6489
L 5173 6647
L 5173 6647
L 5187 6755
L 5209 6862
L 5209 6862
L 5239 6965
L 5277 7065
L 5277 7065
L 5308 7132
L 5343 7197
L 5343 7197
L 5381 7257
L 5423 7315
L 5423 7315
L 5466 7367
L 5512 7416
L 5512 7416
L 5559 7457
L 5609 7495
L 5609 7495
L 5684 7549
L 5684 7549
L 5740 7594
L 5740 7594
L 5769 7625
L 5769 7625
L 5770 7629
L 5768 7634
L 5764 7635
L 5764 7635
L 5749 7633
L 5734 7628
L 5734 7628
L 5673 7593
L 5673 7593
L 5601 7547
L 5601 7547
L 5525 7492
L 5525 7492
L 5466 7443
L 5412 7388
L 5363 7328
L 5363 7328
L 5288 7218
L 5223 7102
L 5223 7102
L 5168 6979
L 5125 6851
L 5125 6851
L 5105 6772
L 5092 6691
L 5086 6610
L 5086 6610
L 5074 6485
L 5074 6485
L 5065 6445
L 5050 6407
L 5050 6407
L 5030 6377
L 5005 6352
L 5005 6352
L 4970 6328
L 4932 6308
L 4932 6308
L 4858 6278
L 4858 6278
L 4834 6272
L 4809 6271
L 4809 6271
L 4790 6274
L 4773 6282
L 4773 6282
L 4757 6296
L 4744 6312
L 4744 6312
L 4739 6316
L 4733 6317
L 4728 6314
L 4726 6308
L 4726 6308
L 4711 6067
L 4711 6067
L 4699 5759
L 4699 5759
L 4693 5379
L 4693 5379
L 4688 4992
L 4688 4992
L 4680 4661
L 4680 4661
L 4670 4373
L 4670 4373
L 4667 4359
L 4659 4347
L 4659 4347
L 4655 4345
L 4650 4347
L 4648 4352
L 4648 4352
L 4640 4790
L 4640 4790
L 4634 5291
L 4634 5291
L 4632 5891
L 4632 7462
L 4343 7462
L 4054 7462
L 4054 6193
L 4054 4923
L 3693 4906
L 3693 4906
L 3459 4892
L 3459 4892
L 3419 4885
L 3381 4871
L 3381 4871
L 3360 4852
L 3350 4826
L 3350 4826
L 3347 4780
L 3350 4733
L 3350 4733
L 3353 4666
L 3353 4666
L 3346 4592
L 3346 4592
L 3332 4524
L 3332 4524
L 3312 4473
L 3312 4473
L 3300 4445
L 3292 4416
L 3292 4416
L 3294 4399
L 3305 4385
L 3305 4385
L 3328 4373
L 3354 4368
L 3354 4368
L 3484 4360
L 3484 4360
L 3581 4350
L 3581 4350
L 3685 4326
L 3685 4326
L 3782 4294
L 3782 4294
L 3818 4278
L 3852 4258
L 3852 4258
L 3917 4210
L 3976 4156
L 3976 4156
L 4033 4093
L 4083 4026
L 4083 4026
L 4121 3963
L 4152 3897
L 4152 3897
L 4161 3867
L 4162 3837
L 4156 3807
L 4156 3807
L 4149 3798
L 4138 3798
L 4138 3798
L 4122 3805
L 4109 3816
L 4109 3816
L 4072 3866
L 4072 3866
L 4032 3941
L 4032 3941
L 3997 4007
L 3956 4070
L 3956 4070
L 3914 4120
L 3865 4165
L 3865 4165
L 3807 4206
L 3744 4239
L 3744 4239
L 3661 4274
L 3575 4304
L 3575 4304
L 3543 4309
L 3512 4302
L 3484 4285
L 3484 4285
L 3455 4254
L 3430 4219
L 3412 4181
L 3412 4181
L 3386 4096
L 3373 4009
L 3373 4009
L 3371 3907
L 3379 3805
L 3379 3805
L 3387 3722
L 3387 3722
L 3386 3652
L 3386 3652
L 3378 3601
L 3378 3601
L 3373 3592
L 3363 3588
L 3363 3588
L 3353 3585
L 3347 3578
L 3347 3578
L 3336 3546
L 3336 3546
L 3331 3499
L 3331 3499
L 3334 3444
L 3334 3444
L 3337 3387
L 3337 3387
L 3333 3334
L 3333 3334
L 3323 3293
L 3323 3293
L 3317 3282
L 3308 3273
L 3308 3273
L 3289 3257
L 3277 3235
L 3273 3211
L 3273 3211
L 3276 3119
L 3284 3029
L 3284 3029
L 3297 2936
L 3315 2845
L 3315 2845
L 3335 2791
L 3366 2743
L 3366 2743
L 3398 2699
L 3398 2699
L 3441 2631
L 3441 2631
L 3486 2553
L 3486 2553
L 3527 2476
L 3527 2476
L 3550 2434
L 3577 2394
L 3577 2394
L 3653 2304
L 3653 2304
L 3739 2219
L 3739 2219
L 3780 2184
L 3823 2152
L 3823 2152
L 3886 2113
L 3951 2078
L 3951 2078
L 4003 2057
L 4057 2044
L 4057 2044
L 4124 2037
L 4190 2037
L 4190 2037
L 4430 2056
L 4430 2056
L 4641 2072
L 4641 2072
L 4962 2082
L 4962 2082
L 5322 2088
L 5322 2088
L 5673 2087
Z
"/>
</g>
<g transform="matrix(0.072005,0.000000,0.000000,0.071915,0.000000,0.000000) " fill="none" stroke="#000000" stroke-width="1" stroke-linejoin="round" stroke-linecap="round" >
<path d="
M 3170 4817
L 3170 4817
L 3161 4835
L 3161 4835
L 3158 4836
L 3154 4835
L 3152 4832
L 3152 4832
L 3146 4780
L 3146 4780
L 3145 4687
L 3145 4687
L 3146 4593
L 3146 4593
L 3152 4541
L 3152 4541
L 3154 4538
L 3158 4537
L 3161 4539
L 3161 4539
L 3170 4556
L 3170 4556
L 3178 4616
L 3178 4616
L 3180 4687
L 3180 4687
L 3178 4757
L 3178 4757
L 3170 4817
Z
"/>
</g>
<g transform="matrix(0.072005,0.000000,0.000000,0.071915,0.000000,0.000000) " fill="none" stroke="#000000" stroke-width="1" stroke-linejoin="round" stroke-linecap="round" >
<path d="
M 3939 6055
L 3939 6055
L 3937 6445
L 3937 6445
L 3932 6769
L 3932 6769
L 3926 7049
L 3926 7049
L 3925 7052
L 3923 7054
L 3920 7054
L 3918 7052
L 3918 7052
L 3911 7042
L 3909 7030
L 3909 7030
L 3892 6765
L 3892 6765
L 3876 6463
L 3876 6463
L 3861 6109
L 3861 6109
L 3845 5755
L 3845 5755
L 3828 5452
L 3828 5452
L 3811 5188
L 3811 5188
L 3808 5176
L 3801 5165
L 3801 5165
L 3781 5154
L 3781 5154
L 3701 5134
L 3701 5134
L 3605 5114
L 3605 5114
L 3496 5094
L 3216 5047
L 3577 5040
L 3939 5034
L 3939 6055
Z
"/>
</g>
<g transform="matrix(0.072005,0.000000,0.000000,0.071915,0.000000,0.000000) " fill="none" stroke="#000000" stroke-width="1" stroke-linejoin="round" stroke-linecap="round" >
<path d="
M 7216 7299
L 7216 7299
L 7203 7323
L 7203 7323
L 7200 7326
L 7196 7326
L 7192 7324
L 7192 7324
L 7184 7307
L 7184 7307
L 7181 7264
L 7181 7264
L 7181 7224
L 7181 7224
L 7188 7196
L 7188 7196
L 7192 7190
L 7199 7186
L 7199 7186
L 7205 7185
L 7211 7188
L 7211 7188
L 7222 7207
L 7222 7207
L 7227 7235
L 7227 7235
L 7225 7267
L 7225 7267
L 7216 7299
Z
"/>
</g>
<g transform="matrix(0.072005,0.000000,0.000000,0.071915,0.000000,0.000000) " fill="none" stroke="#000000" stroke-width="1" stroke-linejoin="round" stroke-linecap="round" >
<path d="
M 6004 7670
L 6004 7670
L 5985 7681
L 5985 7681
L 5957 7686
L 5957 7686
L 5925 7684
L 5925 7684
L 5893 7675
L 5893 7675
L 5869 7662
L 5869 7662
L 5867 7659
L 5866 7655
L 5868 7651
L 5868 7651
L 5885 7643
L 5885 7643
L 5928 7640
L 5928 7640
L 5969 7640
L 5969 7640
L 5996 7647
L 5996 7647
L 6003 7651
L 6007 7657
L 6007 7657
L 6007 7664
L 6004 7670
Z
"/>
</g>
<g transform="matrix(0.072005,0.000000,0.000000,0.071915,0.000000,0.000000) " fill="none" stroke="#000000" stroke-width="1" stroke-linejoin="round" stroke-linecap="round" >
<path d="
M 6409 7670
L 6409 7670
L 6390 7681
L 6390 7681
L 6362 7686
L 6362 7686
L 6330 7684
L 6330 7684
L 6298 7675
L 6298 7675
L 6274 7662
L 6274 7662
L 6272 7659
L 6271 7655
L 6273 7651
L 6273 7651
L 6290 7643
L 6290 7643
L 6333 7640
L 6333 7640
L 6373 7640
L 6373 7640
L 6401 7647
L 6401 7647
L 6407 7651
L 6412 7657
L 6412 7657
L 6412 7664
L 6409 7670
Z
"/>
</g>
<g transform="matrix(0.072005,0.000000,0.000000,0.071915,0.000000,0.000000) " fill="none" stroke="#000000" stroke-width="1" stroke-linejoin="round" stroke-linecap="round" >
<path d="
M 7860 9708
L 7860 9708
L 8045 9873
L 7928 10022
L 7928 10022
L 7887 10067
L 7842 10108
L 7793 10144
L 7793 10144
L 7704 10194
L 7609 10233
L 7609 10233
L 7508 10262
L 7404 10279
L 7404 10279
L 7340 10282
L 7275 10280
L 7211 10271
L 7211 10271
L 7100 10243
L 7100 10243
L 7073 10230
L 7052 10208
L 7052 10208
L 7038 10180
L 7032 10149
L 7032 10149
L 7035 10019
L 7035 10019
L 7041 9933
L 7041 9933
L 7046 9855
L 7046 9855
L 7051 9788
L 7051 9788
L 7055 9762
L 7055 9762
L 7062 9738
L 7075 9718
L 7094 9702
L 7094 9702
L 7165 9663
L 7237 9627
L 7237 9627
L 7316 9594
L 7398 9566
L 7398 9566
L 7462 9551
L 7527 9545
L 7527 9545
L 7563 9548
L 7598 9556
L 7598 9556
L 7686 9591
L 7686 9591
L 7733 9616
L 7777 9644
L 7777 9644
L 7820 9674
L 7860 9708
Z
"/>
</g>
<g transform="matrix(0.072005,0.000000,0.000000,0.071915,0.000000,0.000000) " fill="none" stroke="#000000" stroke-width="1" stroke-linejoin="round" stroke-linecap="round" >
<path d="
M 4648 3993
L 4648 3993
L 4650 4086
L 4650 4086
L 4655 4138
L 4655 4138
L 4657 4141
L 4661 4142
L 4664 4141
L 4664 4141
L 4673 4123
L 4673 4123
L 4681 4064
L 4681 4064
L 4683 3993
L 4683 3993
L 4681 3922
L 4681 3922
L 4673 3863
L 4673 3863
L 4664 3845
L 4664 3845
L 4661 3843
L 4657 3844
L 4655 3847
L 4655 3847
L 4650 3900
L 4650 3900
L 4648 3993
Z
"/>
</g>
<g transform="matrix(0.072005,0.000000,0.000000,0.071915,0.000000,0.000000) " fill="none" stroke="#000000" stroke-width="1" stroke-linejoin="round" stroke-linecap="round" >
<path d="
M 5916 4351
L 5916 4351
L 5901 4369
L 5890 4388
L 5890 4388
L 5869 4444
L 5869 4444
L 5855 4506
L 5855 4506
L 5852 4568
L 5858 4715
L 5898 4571
L 5898 4571
L 5911 4535
L 5931 4501
L 5956 4471
L 5956 4471
L 5987 4446
L 6021 4426
L 6058 4412
L 6058 4412
L 6097 4404
L 6137 4402
L 6176 4407
L 6176 4407
L 6215 4418
L 6251 4435
L 6283 4458
L 6283 4458
L 6317 4493
L 6343 4534
L 6359 4580
L 6365 4628
L 6365 4628
L 6372 5116
L 6375 5604
L 6375 5604
L 6372 6085
L 6365 6565
L 6365 6565
L 6359 6627
L 6343 6688
L 6319 6746
L 6285 6799
L 6285 6799
L 6234 6868
L 6234 6868
L 6230 6871
L 6225 6871
L 6221 6869
L 6221 6869
L 6217 6861
L 6216 6852
L 6216 6852
L 6236 6746
L 6236 6746
L 6251 6644
L 6251 6644
L 6249 6626
L 6238 6610
L 6238 6610
L 6220 6601
L 6200 6600
L 6200 6600
L 6087 6621
L 5908 6661
L 5890 5890
L 5872 5120
L 5859 5902
L 5859 5902
L 5858 6181
L 5862 6460
L 5862 6460
L 5869 6556
L 5884 6651
L 5907 6744
L 5907 6744
L 5929 6798
L 5962 6846
L 6004 6887
L 6004 6887
L 6053 6916
L 6107 6935
L 6164 6941
L 6164 6941
L 6210 6937
L 6254 6925
L 6295 6905
L 6331 6877
L 6331 6877
L 6375 6829
L 6408 6773
L 6429 6711
L 6429 6711
L 6451 6597
L 6466 6481
L 6473 6364
L 6473 6364
L 6480 5971
L 6482 5579
L 6482 5579
L 6479 4927
L 6479 4927
L 6475 4782
L 6465 4636
L 6465 4636
L 6454 4554
L 6435 4473
L 6435 4473
L 6422 4437
L 6402 4405
L 6377 4378
L 6377 4378
L 6326 4340
L 6270 4313
L 6270 4313
L 6205 4294
L 6137 4285
L 6137 4285
L 6072 4287
L 6009 4298
L 6009 4298
L 5975 4310
L 5944 4328
L 5916 4351
Z
"/>
</g>
<g transform="matrix(0.072005,0.000000,0.000000,0.071915,0.000000,0.000000) " fill="none" stroke="#000000" stroke-width="1" stroke-linejoin="round" stroke-linecap="round" >
<path d="
M 5851 4952
L 5851 4952
L 5854 4995
L 5854 4995
L 5863 5012
L 5863 5012
L 5866 5013
L 5870 5013
L 5873 5011
L 5873 5011
L 5886 4986
L 5886 4986
L 5895 4955
L 5895 4955
L 5897 4923
L 5897 4923
L 5893 4895
L 5893 4895
L 5881 4876
L 5881 4876
L 5875 4872
L 5869 4873
L 5869 4873
L 5862 4877
L 5858 4884
L 5858 4884
L 5852 4911
L 5852 4911
L 5851 4952
Z
"/>
</g>
<g transform="matrix(0.072005,0.000000,0.000000,0.071915,0.000000,0.000000) " fill="none" stroke="#000000" stroke-width="1" stroke-linejoin="round" stroke-linecap="round" >
<path d="
M 7523 6248
L 7523 6248
L 7525 6259
L 7532 6270
L 7532 6270
L 7556 6288
L 7556 6288
L 7592 6301
L 7592 6301
L 7634 6305
L 7634 6305
L 7695 6308
L 7756 6316
L 7756 6316
L 7804 6329
L 7849 6350
L 7849 6350
L 7880 6373
L 7906 6403
L 7906 6403
L 7922 6435
L 7927 6471
L 7927 6471
L 7924 6508
L 7924 6508
L 7921 6517
L 7915 6524
L 7915 6524
L 7908 6526
L 7901 6523
L 7901 6523
L 7884 6503
L 7884 6503
L 7856 6472
L 7822 6449
L 7822 6449
L 7768 6426
L 7712 6409
L 7712 6409
L 7662 6398
L 7611 6393
L 7611 6393
L 7596 6396
L 7585 6407
L 7581 6422
L 7581 6422
L 7579 6446
L 7579 6446
L 7570 6483
L 7570 6483
L 7558 6525
L 7558 6525
L 7544 6565
L 7544 6565
L 7539 6588
L 7539 6612
L 7539 6612
L 7546 6629
L 7560 6639
L 7560 6639
L 7590 6647
L 7621 6649
L 7621 6649
L 7761 6642
L 7761 6642
L 7899 6627
L 7899 6627
L 7936 6618
L 7972 6602
L 7972 6602
L 7995 6584
L 8012 6560
L 8012 6560
L 8025 6526
L 8033 6490
L 8033 6490
L 8035 6433
L 8035 6433
L 8026 6371
L 8026 6371
L 8008 6315
L 8008 6315
L 7997 6293
L 7983 6273
L 7983 6273
L 7957 6248
L 7926 6229
L 7892 6216
L 7892 6216
L 7808 6200
L 7724 6192
L 7724 6192
L 7645 6191
L 7567 6198
L 7567 6198
L 7545 6206
L 7529 6224
L 7523 6248
Z
"/>
</g>
</g >
</g >
</svg>
