<?xml version="1.0" standalone="no"?>
<!DOCTYPE svg PUBLIC "-//W3C//DTD SVG 1.1//EN"
  "http://www.w3.org/Graphics/SVG/1.1/DTD/svg11.dtd">
<svg version="1.1" xmlns="http://www.w3.org/2000/svg" xmlns:xlink="http://www.w3.org/1999/xlink">
<title></title>
<g xml:space='preserve' >
<clipPath id="clippath0" transform="matrix(0.072005,0.000000,0.000000,0.071915,0.000000,0.000000) "  >
<path d="
M 0 0
L 0 0
L 0 11498
L 11706 11498
L 11706 0
Z
" style="clip-rule:nonzero"/>
</clipPath>
<g style="clip-path:url(#clippath0)">
<g transform="matrix(0.072005,0.000000,0.000000,0.071915,0.000000,0.000000) " fill="none" stroke="#000000" stroke-width="1" stroke-linejoin="round" stroke-linecap="round" >
<path d="
M 4690 112
L 4690 112
L 4414 180
L 4141 261
L 3872 354
L 3608 460
L 3349 579
L 3096 710
L 3096 710
L 2848 853
L 2607 1008
L 2373 1174
L 2147 1350
L 1930 1537
L 1721 1734
L 1721 1734
L 1527 1935
L 1343 2146
L 1169 2365
L 1006 2592
L 853 2827
L 712 3068
L 712 3068
L 607 3271
L 511 3479
L 425 3690
L 349 3906
L 283 4125
L 228 4347
L 184 4571
L 184 4571
L 154 4737
L 154 4737
L 119 4924
L 119 4924
L 84 5104
L 84 5104
L 55 5245
L 55 5245
L 30 5393
L 19 5543
L 22 5693
L 22 5693
L 39 5914
L 63 6134
L 94 6353
L 94 6353
L 134 6591
L 182 6828
L 236 7064
L 236 7064
L 294 7278
L 360 7490
L 434 7699
L 434 7699
L 520 7914
L 615 8125
L 718 8332
L 830 8535
L 951 8733
L 951 8733
L 1082 8931
L 1222 9123
L 1368 9311
L 1522 9492
L 1683 9668
L 1683 9668
L 1848 9835
L 2020 9996
L 2199 10150
L 2383 10298
L 2573 10438
L 2573 10438
L 2760 10564
L 2952 10682
L 3149 10791
L 3351 10891
L 3557 10983
L 3557 10983
L 3813 11083
L 4073 11172
L 4335 11250
L 4335 11250
L 4597 11316
L 4861 11370
L 5127 11413
L 5127 11413
L 5384 11442
L 5642 11459
L 5900 11464
L 5900 11464
L 6144 11457
L 6386 11436
L 6627 11402
L 6627 11402
L 6880 11355
L 7132 11299
L 7383 11236
L 7630 11165
L 7630 11165
L 7850 11093
L 8065 11012
L 8278 10921
L 8485 10820
L 8485 10820
L 8684 10713
L 8878 10597
L 9067 10472
L 9250 10339
L 9250 10339
L 9441 10187
L 9626 10029
L 9806 9864
L 9980 9692
L 9980 9692
L 10131 9532
L 10277 9366
L 10416 9196
L 10549 9020
L 10549 9020
L 10672 8844
L 10788 8663
L 10898 8478
L 11000 8289
L 11000 8289
L 11094 8095
L 11181 7899
L 11261 7699
L 11332 7496
L 11332 7496
L 11398 7286
L 11455 7074
L 11505 6860
L 11548 6644
L 11548 6644
L 11592 6384
L 11633 6122
L 11633 6122
L 11656 5946
L 11671 5769
L 11671 5769
L 11675 5631
L 11672 5494
L 11672 5494
L 11660 5365
L 11638 5238
L 11638 5238
L 11608 5093
L 11608 5093
L 11567 4889
L 11567 4889
L 11523 4667
L 11523 4667
L 11482 4459
L 11482 4459
L 11441 4271
L 11392 4086
L 11335 3902
L 11271 3722
L 11271 3722
L 11170 3478
L 11057 3240
L 10932 3008
L 10932 3008
L 10788 2771
L 10631 2540
L 10464 2318
L 10464 2318
L 10274 2087
L 10075 1864
L 9867 1649
L 9867 1649
L 9686 1477
L 9498 1313
L 9302 1158
L 9302 1158
L 9099 1011
L 8890 873
L 8674 745
L 8674 745
L 8450 625
L 8221 515
L 7987 415
L 7987 415
L 7743 322
L 7495 240
L 7244 167
L 7244 167
L 7060 123
L 6874 89
L 6686 65
L 6686 65
L 6449 43
L 6211 29
L 5973 20
L 5973 20
L 5734 19
L 5495 23
L 5257 34
L 5257 34
L 5066 50
L 4877 76
L 4690 112
Z
"/>
</g>
<g transform="matrix(0.072005,0.000000,0.000000,0.071915,0.000000,0.000000) " fill="none" stroke="#000000" stroke-width="1" stroke-linejoin="round" stroke-linecap="round" >
<path d="
M 3823 931
L 3823 931
L 3819 971
L 3806 1009
L 3785 1043
L 3757 1072
L 3757 1072
L 3622 1179
L 3480 1279
L 3480 1279
L 3330 1372
L 3174 1456
L 3174 1456
L 3105 1484
L 3032 1501
L 2958 1507
L 2958 1507
L 2914 1503
L 2872 1491
L 2872 1491
L 2858 1481
L 2850 1466
L 2850 1449
L 2850 1449
L 2866 1408
L 2891 1373
L 2891 1373
L 3028 1236
L 3028 1236
L 3106 1166
L 3189 1101
L 3275 1042
L 3275 1042
L 3361 990
L 3451 944
L 3543 905
L 3543 905
L 3610 883
L 3679 869
L 3749 861
L 3749 861
L 3777 866
L 3801 881
L 3817 904
L 3823 931
Z
"/>
</g>
<g transform="matrix(0.072005,0.000000,0.000000,0.071915,0.000000,0.000000) " fill="none" stroke="#000000" stroke-width="1" stroke-linejoin="round" stroke-linecap="round" >
<path d="
M 5673 2087
L 5673 2087
L 5980 2088
L 6288 2097
L 6288 2097
L 6536 2114
L 6783 2144
L 6783 2144
L 6996 2182
L 7207 2232
L 7207 2232
L 7339 2272
L 7470 2317
L 7598 2369
L 7598 2369
L 7704 2420
L 7805 2480
L 7805 2480
L 7899 2548
L 7986 2624
L 7986 2624
L 8055 2696
L 8116 2774
L 8116 2774
L 8138 2814
L 8152 2857
L 8157 2902
L 8157 2902
L 8164 2943
L 8164 2943
L 8183 2988
L 8183 2988
L 8210 3031
L 8210 3031
L 8241 3064
L 8241 3064
L 8262 3086
L 8277 3112
L 8277 3112
L 8319 3226
L 8319 3226
L 8359 3366
L 8359 3366
L 8391 3519
L 8391 3519
L 8423 3738
L 8423 3738
L 8429 3821
L 8430 3905
L 8430 3905
L 8424 3990
L 8413 4073
L 8413 4073
L 8369 4290
L 8369 4290
L 8324 4459
L 8269 4624
L 8269 4624
L 8200 4801
L 8122 4976
L 8122 4976
L 8037 5144
L 7944 5308
L 7944 5308
L 7854 5448
L 7755 5582
L 7581 5801
L 7574 5518
L 7566 5236
L 7520 5496
L 7520 5496
L 7502 5629
L 7502 5629
L 7486 5824
L 7486 5824
L 7474 6040
L 7474 6040
L 7469 6248
L 7469 6248
L 7460 6510
L 7460 6510
L 7452 6598
L 7439 6686
L 7439 6686
L 7422 6757
L 7399 6827
L 7399 6827
L 7370 6897
L 7334 6964
L 7334 6964
L 7274 7056
L 7204 7139
L 7124 7214
L 7035 7278
L 7035 7278
L 6963 7319
L 6886 7352
L 6806 7376
L 6724 7391
L 6641 7396
L 6641 7396
L 6555 7393
L 6470 7380
L 6386 7358
L 6306 7328
L 6229 7289
L 6229 7289
L 6130 7226
L 6039 7153
L 5955 7071
L 5881 6981
L 5881 6981
L 5840 6915
L 5812 6844
L 5812 6844
L 5789 6753
L 5775 6660
L 5775 6660
L 5762 6502
L 5755 6345
L 5755 6345
L 5741 5622
L 5741 5622
L 5736 5201
L 5737 4779
L 5737 4779
L 5741 4635
L 5752 4490
L 5769 4347
L 5769 4347
L 5788 4249
L 5815 4153
L 5851 4060
L 5851 4060
L 5894 3971
L 5945 3887
L 6004 3808
L 6159 3617
L 5995 3762
L 5995 3762
L 5920 3835
L 5852 3915
L 5792 4001
L 5792 4001
L 5745 4087
L 5707 4179
L 5681 4274
L 5681 4274
L 5655 4411
L 5638 4550
L 5630 4690
L 5630 4690
L 5620 5096
L 5616 5502
L 5616 5502
L 5619 5914
L 5625 6326
L 5625 6326
L 5632 6460
L 5647 6594
L 5669 6727
L 5669 6727
L 5692 6820
L 5725 6910
L 5768 6996
L 5768 6996
L 5823 7086
L 5886 7172
L 5955 7252
L 5955 7252
L 6059 7366
L 6059 7366
L 6077 7388
L 6091 7413
L 6091 7413
L 6092 7420
L 6087 7425
L 6081 7426
L 6081 7426
L 6030 7407
L 6030 7407
L 5983 7378
L 5940 7344
L 5902 7303
L 5902 7303
L 5817 7194
L 5737 7082
L 5737 7082
L 5663 6966
L 5594 6847
L 5594 6847
L 5574 6802
L 5561 6754
L 5557 6704
L 5557 6704
L 5552 6675
L 5536 6650
L 5536 6650
L 5500 6616
L 5460 6585
L 5460 6585
L 5402 6545
L 5341 6510
L 5341 6510
L 5173 6425
L 4788 6245
L 4898 6112
L 4898 6112
L 4905 6099
L 4905 6099
L 4905 6097
L 4904 6096
L 4902 6096
L 4901 6096
L 4901 6096
L 4845 6149
L 4845 6149
L 4753 6244
L 4753 6244
L 4678 6317
L 4598 6386
L 4598 6386
L 4589 6390
L 4579 6386
L 4574 6377
L 4576 6368
L 4576 6368
L 4638 6271
L 4707 6180
L 4707 6180
L 4832 6032
L 4961 5886
L 4961 5886
L 5070 5759
L 5174 5627
L 5174 5627
L 5263 5500
L 5345 5369
L 5345 5369
L 5407 5256
L 5463 5140
L 5463 5140
L 5482 5087
L 5494 5032
L 5498 4976
L 5498 4976
L 5496 4970
L 5491 4968
L 5485 4970
L 5485 4970
L 5458 4999
L 5458 4999
L 5415 5073
L 5415 5073
L 5363 5178
L 5363 5178
L 5326 5249
L 5285 5318
L 5285 5318
L 5155 5506
L 5155 5506
L 5002 5707
L 5002 5707
L 4846 5890
L 4846 5890
L 4735 6020
L 4629 6155
L 4629 6155
L 4535 6287
L 4450 6424
L 4450 6424
L 4386 6538
L 4327 6655
L 4327 6655
L 4322 6676
L 4325 6697
L 4335 6715
L 4352 6728
L 4352 6728
L 4369 6732
L 4369 6732
L 4528 6729
L 4528 6729
L 4709 6724
L 4709 6724
L 4921 6715
L 4921 6715
L 5184 6702
L 5184 6702
L 5246 6696
L 5308 6687
L 5308 6687
L 5315 6684
L 5320 6676
L 5319 6668
L 5319 6668
L 5311 6655
L 5297 6647
L 5124 6603
L 5289 6613
L 5289 6613
L 5339 6619
L 5388 6631
L 5388 6631
L 5415 6647
L 5434 6672
L 5434 6672
L 5448 6714
L 5454 6758
L 5454 6758
L 5462 7011
L 5462 7011
L 5463 7173
L 5463 7173
L 5454 7282
L 5454 7282
L 5448 7311
L 5438 7339
L 5438 7339
L 5432 7345
L 5424 7347
L 5416 7343
L 5416 7343
L 5394 7328
L 5368 7321
L 5368 7321
L 5132 7304
L 5132 7304
L 4850 7292
L 4850 7292
L 4526 7288
L 3691 7288
L 3723 6941
L 3723 6941
L 3738 6823
L 3761 6705
L 3792 6589
L 3792 6589
L 3833 6465
L 3881 6342
L 3935 6223
L 3935 6223
L 3999 6099
L 4069 5979
L 4145 5862
L 4145 5862
L 4229 5746
L 4318 5633
L 4411 5525
L 4411 5525
L 4561 5356
L 4709 5186
L 4709 5186
L 4780 5092
L 4841 4992
L 4841 4992
L 4868 4936
L 4888 4878
L 4902 4818
L 4902 4818
L 4916 4704
L 4921 4588
L 4921 4588
L 4916 4420
L 4916 4420
L 4909 4371
L 4896 4323
L 4896 4323
L 4878 4286
L 4854 4254
L 4854 4254
L 4819 4221
L 4780 4192
L 4780 4192
L 4719 4159
L 4655 4136
L 4587 4124
L 4587 4124
L 4546 4125
L 4507 4136
L 4471 4156
L 4442 4184
L 4442 4184
L 4411 4227
L 4386 4274
L 4370 4324
L 4360 4376
L 4360 4376
L 4353 4481
L 4352 4586
L 4358 4691
L 4381 4947
L 4391 4650
L 4391 4650
L 4399 4541
L 4415 4432
L 4415 4432
L 4427 4385
L 4447 4341
L 4473 4300
L 4473 4300
L 4498 4276
L 4529 4259
L 4563 4252
L 4563 4252
L 4603 4252
L 4642 4261
L 4679 4276
L 4679 4276
L 4713 4298
L 4742 4326
L 4766 4359
L 4766 4359
L 4797 4422
L 4817 4490
L 4817 4490
L 4828 4573
L 4828 4657
L 4828 4657
L 4816 4750
L 4795 4842
L 4795 4842
L 4774 4906
L 4746 4968
L 4713 5026
L 4713 5026
L 4633 5141
L 4547 5251
L 4547 5251
L 4459 5352
L 4367 5449
L 4367 5449
L 4337 5470
L 4302 5481
L 4266 5480
L 4266 5480
L 4241 5481
L 4241 5481
L 4223 5492
L 4223 5492
L 4213 5513
L 4213 5513
L 4213 5539
L 4213 5539
L 4215 5563
L 4210 5587
L 4200 5609
L 4200 5609
L 4044 5848
L 4044 5848
L 3885 6074
L 3885 6074
L 3834 6135
L 3776 6190
L 3776 6190
L 3773 6191
L 3770 6190
L 3768 6187
L 3769 6184
L 3769 6184
L 3841 6060
L 3841 6060
L 3934 5909
L 3934 5909
L 4034 5758
L 4034 5758
L 4064 5711
L 4064 5711
L 4089 5665
L 4089 5665
L 4107 5625
L 4107 5625
L 4112 5602
L 4112 5602
L 4108 5577
L 4096 5555
L 4096 5555
L 3994 5429
L 3994 5429
L 3858 5274
L 3858 5274
L 3685 5091
L 3685 5091
L 3654 5056
L 3626 5017
L 3626 5017
L 3599 4971
L 3575 4923
L 3575 4923
L 3555 4871
L 3537 4819
L 3537 4819
L 3525 4768
L 3516 4715
L 3516 4715
L 3500 4608
L 3500 4608
L 3476 4476
L 3476 4476
L 3448 4340
L 3448 4340
L 3420 4224
L 3420 4224
L 3396 4111
L 3396 4111
L 3380 3985
L 3380 3985
L 3375 3866
L 3375 3866
L 3376 3821
L 3381 3776
L 3381 3776
L 3389 3704
L 3389 3704
L 3389 3643
L 3389 3643
L 3381 3600
L 3381 3600
L 3375 3591
L 3365 3588
L 3365 3588
L 3355 3585
L 3348 3578
L 3348 3578
L 3337 3546
L 3337 3546
L 3332 3499
L 3332 3499
L 3334 3444
L 3334 3444
L 3337 3387
L 3337 3387
L 3333 3334
L 3333 3334
L 3323 3293
L 3323 3293
L 3317 3282
L 3308 3273
L 3308 3273
L 3289 3257
L 3277 3235
L 3273 3211
L 3273 3211
L 3276 3119
L 3284 3029
L 3284 3029
L 3297 2936
L 3315 2845
L 3315 2845
L 3335 2791
L 3366 2743
L 3366 2743
L 3398 2699
L 3398 2699
L 3441 2631
L 3441 2631
L 3486 2553
L 3486 2553
L 3527 2476
L 3527 2476
L 3550 2434
L 3577 2394
L 3577 2394
L 3653 2304
L 3653 2304
L 3739 2219
L 3739 2219
L 3780 2184
L 3823 2152
L 3823 2152
L 3886 2113
L 3951 2078
L 3951 2078
L 4003 2057
L 4057 2044
L 4057 2044
L 4124 2037
L 4190 2037
L 4190 2037
L 4430 2056
L 4430 2056
L 4641 2072
L 4641 2072
L 4962 2082
L 4962 2082
L 5322 2088
L 5322 2088
L 5673 2087
Z
"/>
</g>
<g transform="matrix(0.072005,0.000000,0.000000,0.071915,0.000000,0.000000) " fill="none" stroke="#000000" stroke-width="1" stroke-linejoin="round" stroke-linecap="round" >
<path d="
M 8571 6051
L 8571 6051
L 8602 6084
L 8627 6121
L 8647 6161
L 8647 6161
L 8668 6231
L 8675 6303
L 8675 6303
L 8670 6375
L 8651 6444
L 8651 6444
L 8633 6484
L 8608 6521
L 8578 6553
L 8578 6553
L 8552 6573
L 8522 6589
L 8522 6589
L 8434 6623
L 8434 6623
L 8332 6649
L 8332 6649
L 8230 6663
L 8230 6663
L 8132 6673
L 8035 6688
L 8035 6688
L 8016 6698
L 8005 6717
L 8005 6739
L 8005 6739
L 8019 6762
L 8039 6779
L 8065 6787
L 8065 6787
L 8170 6795
L 8275 6798
L 8275 6798
L 8390 6801
L 8506 6809
L 8506 6809
L 8527 6817
L 8541 6835
L 8543 6857
L 8543 6857
L 8533 6881
L 8515 6899
L 8491 6908
L 8491 6908
L 8372 6921
L 8253 6930
L 8253 6930
L 8072 6943
L 8072 6943
L 8034 6950
L 7997 6963
L 7997 6963
L 7978 6977
L 7968 6999
L 7968 6999
L 7965 7030
L 7970 7060
L 7970 7060
L 7978 7115
L 7978 7115
L 7975 7133
L 7966 7149
L 7966 7149
L 7951 7161
L 7933 7167
L 7933 7167
L 7872 7173
L 7872 7173
L 7821 7168
L 7821 7168
L 7803 7162
L 7786 7153
L 7786 7153
L 7776 7143
L 7770 7130
L 7770 7130
L 7768 7115
L 7771 7100
L 7771 7100
L 7775 7083
L 7775 7065
L 7775 7065
L 7764 7020
L 7764 7020
L 7741 6971
L 7741 6971
L 7709 6927
L 7709 6927
L 7658 6866
L 7658 6866
L 7652 6855
L 7651 6842
L 7651 6842
L 7655 6833
L 7664 6829
L 7664 6829
L 7716 6826
L 7716 6826
L 7752 6824
L 7787 6818
L 7787 6818
L 7802 6808
L 7806 6792
L 7806 6792
L 7799 6767
L 7785 6746
L 7785 6746
L 7697 6652
L 7697 6652
L 7666 6618
L 7641 6580
L 7641 6580
L 7621 6540
L 7607 6497
L 7607 6497
L 7597 6444
L 7592 6389
L 7592 6389
L 7591 6233
L 7602 5930
L 7624 6219
L 7624 6219
L 7636 6352
L 7652 6486
L 7652 6486
L 7660 6516
L 7677 6541
L 7701 6561
L 7701 6561
L 7720 6566
L 7737 6557
L 7745 6539
L 7745 6539
L 7752 6419
L 7754 6300
L 7754 6300
L 7750 6174
L 7750 6174
L 7737 6058
L 7737 6058
L 7719 5964
L 7719 5964
L 7710 5942
L 7696 5923
L 7696 5923
L 7688 5907
L 7690 5890
L 7702 5876
L 7719 5872
L 7719 5872
L 7884 5886
L 8049 5907
L 8049 5907
L 8234 5937
L 8418 5974
L 8418 5974
L 8473 5990
L 8525 6017
L 8571 6051
Z
"/>
</g>
<g transform="matrix(0.072005,0.000000,0.000000,0.071915,0.000000,0.000000) " fill="none" stroke="#000000" stroke-width="1" stroke-linejoin="round" stroke-linecap="round" >
<path d="
M 7407 7137
L 7407 7137
L 7403 7149
L 7403 7149
L 7378 7175
L 7378 7175
L 7345 7206
L 7345 7206
L 7306 7238
L 7306 7238
L 7241 7289
L 7241 7289
L 7237 7290
L 7234 7288
L 7234 7288
L 7232 7285
L 7234 7281
L 7234 7281
L 7285 7216
L 7285 7216
L 7336 7155
L 7336 7155
L 7374 7122
L 7374 7122
L 7385 7119
L 7396 7120
L 7396 7120
L 7404 7127
L 7407 7137
Z
"/>
</g>
<g transform="matrix(0.072005,0.000000,0.000000,0.071915,0.000000,0.000000) " fill="none" stroke="#000000" stroke-width="1" stroke-linejoin="round" stroke-linecap="round" >
<path d="
M 6800 7549
L 6800 7549
L 6802 7550
L 6803 7553
L 6802 7555
L 6800 7556
L 6800 7556
L 6765 7564
L 6765 7564
L 6694 7569
L 6694 7569
L 6598 7572
L 6598 7572
L 6493 7570
L 6493 7570
L 6391 7560
L 6391 7560
L 6305 7544
L 6305 7544
L 6281 7537
L 6258 7525
L 6258 7525
L 6252 7518
L 6252 7510
L 6257 7502
L 6265 7499
L 6265 7499
L 6446 7501
L 6446 7501
L 6553 7507
L 6660 7517
L 6660 7517
L 6731 7529
L 6800 7549
Z
"/>
</g>
<g transform="matrix(0.072005,0.000000,0.000000,0.071915,0.000000,0.000000) " fill="none" stroke="#000000" stroke-width="1" stroke-linejoin="round" stroke-linecap="round" >
<path d="
M 7860 9708
L 7860 9708
L 8045 9873
L 7928 10022
L 7928 10022
L 7887 10067
L 7842 10108
L 7793 10144
L 7793 10144
L 7704 10194
L 7609 10233
L 7609 10233
L 7508 10262
L 7404 10279
L 7404 10279
L 7340 10282
L 7275 10280
L 7211 10271
L 7211 10271
L 7100 10243
L 7100 10243
L 7073 10230
L 7052 10208
L 7052 10208
L 7038 10180
L 7032 10149
L 7032 10149
L 7035 10019
L 7035 10019
L 7041 9933
L 7041 9933
L 7046 9855
L 7046 9855
L 7051 9788
L 7051 9788
L 7055 9762
L 7055 9762
L 7062 9738
L 7075 9718
L 7094 9702
L 7094 9702
L 7165 9663
L 7237 9627
L 7237 9627
L 7316 9594
L 7398 9566
L 7398 9566
L 7462 9551
L 7527 9545
L 7527 9545
L 7563 9548
L 7598 9556
L 7598 9556
L 7686 9591
L 7686 9591
L 7733 9616
L 7777 9644
L 7777 9644
L 7820 9674
L 7860 9708
Z
"/>
</g>
<g transform="matrix(0.072005,0.000000,0.000000,0.071915,0.000000,0.000000) " fill="none" stroke="#000000" stroke-width="1" stroke-linejoin="round" stroke-linecap="round" >
<path d="
M 3987 3805
L 3987 3805
L 3904 3900
L 3829 4003
L 3829 4003
L 3771 4102
L 3725 4207
L 3725 4207
L 3690 4321
L 3668 4439
L 3668 4439
L 3654 4581
L 3650 4724
L 3650 5034
L 3967 5034
L 3967 5034
L 4089 5029
L 4089 5029
L 4192 5016
L 4192 5016
L 4269 4998
L 4269 4998
L 4281 4990
L 4285 4976
L 4285 4976
L 4281 4962
L 4270 4953
L 4270 4953
L 4209 4935
L 4209 4935
L 4125 4922
L 4125 4922
L 4025 4918
L 3765 4918
L 3765 4618
L 3765 4618
L 3768 4531
L 3778 4444
L 3793 4358
L 3793 4358
L 3829 4225
L 3876 4096
L 3876 4096
L 3933 3979
L 4001 3867
L 4001 3867
L 4046 3808
L 4097 3753
L 4154 3704
L 4154 3704
L 4207 3659
L 4207 3659
L 4242 3622
L 4242 3622
L 4255 3598
L 4255 3598
L 4255 3593
L 4252 3590
L 4247 3588
L 4247 3588
L 4231 3591
L 4216 3598
L 4216 3598
L 4148 3652
L 4148 3652
L 4070 3722
L 4070 3722
L 3987 3805
Z
"/>
</g>
<g transform="matrix(0.072005,0.000000,0.000000,0.071915,0.000000,0.000000) " fill="none" stroke="#000000" stroke-width="1" stroke-linejoin="round" stroke-linecap="round" >
<path d="
M 7205 3762
L 7205 3762
L 7247 3806
L 7247 3806
L 7288 3843
L 7288 3843
L 7322 3872
L 7322 3872
L 7339 3877
L 7339 3877
L 7342 3876
L 7344 3873
L 7343 3870
L 7343 3870
L 7328 3843
L 7328 3843
L 7301 3806
L 7301 3806
L 7263 3762
L 7263 3762
L 7221 3717
L 7221 3717
L 7180 3680
L 7180 3680
L 7146 3651
L 7146 3651
L 7129 3646
L 7129 3646
L 7126 3647
L 7124 3650
L 7125 3653
L 7125 3653
L 7140 3680
L 7140 3680
L 7167 3717
L 7167 3717
L 7205 3762
Z
"/>
</g>
<g transform="matrix(0.072005,0.000000,0.000000,0.071915,0.000000,0.000000) " fill="none" stroke="#000000" stroke-width="1" stroke-linejoin="round" stroke-linecap="round" >
<path d="
M 6405 4214
L 6405 4214
L 6368 4263
L 6368 4263
L 6338 4321
L 6338 4321
L 6318 4381
L 6318 4381
L 6314 4406
L 6313 4431
L 6313 4431
L 6316 4500
L 6316 4500
L 6317 4503
L 6320 4505
L 6323 4506
L 6323 4506
L 6330 4503
L 6334 4497
L 6334 4497
L 6366 4420
L 6366 4420
L 6394 4364
L 6432 4314
L 6432 4314
L 6457 4291
L 6487 4274
L 6519 4264
L 6519 4264
L 6553 4260
L 6587 4265
L 6619 4276
L 6619 4276
L 6674 4307
L 6722 4348
L 6722 4348
L 6750 4381
L 6773 4417
L 6791 4456
L 6791 4456
L 6811 4529
L 6821 4603
L 6821 4603
L 6827 4735
L 6826 4866
L 6826 4866
L 6802 5575
L 6802 5575
L 6784 6001
L 6784 6001
L 6765 6364
L 6765 6364
L 6746 6683
L 6746 6683
L 6743 6695
L 6736 6706
L 6736 6706
L 6729 6710
L 6721 6710
L 6721 6710
L 6698 6701
L 6698 6701
L 6670 6682
L 6670 6682
L 6640 6654
L 6640 6654
L 6602 6613
L 6602 6613
L 6598 6601
L 6598 6601
L 6599 6599
L 6601 6598
L 6604 6598
L 6604 6598
L 6641 6618
L 6641 6618
L 6656 6625
L 6672 6628
L 6672 6628
L 6685 6626
L 6695 6618
L 6695 6618
L 6705 6605
L 6710 6589
L 6710 6589
L 6714 6539
L 6714 6539
L 6709 6468
L 6709 6468
L 6702 6455
L 6689 6448
L 6689 6448
L 6670 6447
L 6651 6453
L 6651 6453
L 6542 6507
L 6370 6596
L 6352 5598
L 6335 4600
L 6322 5622
L 6322 5622
L 6320 5990
L 6321 6357
L 6321 6357
L 6327 6457
L 6341 6555
L 6363 6653
L 6363 6653
L 6378 6692
L 6401 6727
L 6430 6757
L 6465 6781
L 6465 6781
L 6523 6804
L 6585 6815
L 6647 6814
L 6647 6814
L 6691 6805
L 6732 6788
L 6769 6764
L 6802 6734
L 6802 6734
L 6842 6680
L 6872 6621
L 6892 6557
L 6892 6557
L 6913 6442
L 6927 6326
L 6934 6209
L 6934 6209
L 6941 5835
L 6944 5460
L 6944 5460
L 6941 4824
L 6941 4824
L 6937 4686
L 6927 4549
L 6927 4549
L 6914 4466
L 6892 4386
L 6892 4386
L 6864 4320
L 6825 4261
L 6825 4261
L 6776 4206
L 6719 4157
L 6719 4157
L 6686 4137
L 6650 4123
L 6612 4115
L 6612 4115
L 6576 4115
L 6540 4121
L 6507 4135
L 6507 4135
L 6452 4170
L 6405 4214
Z
"/>
</g>
<g transform="matrix(0.072005,0.000000,0.000000,0.071915,0.000000,0.000000) " fill="none" stroke="#000000" stroke-width="1" stroke-linejoin="round" stroke-linecap="round" >
<path d="
M 6511 6652
L 6511 6652
L 6520 6674
L 6520 6674
L 6519 6693
L 6519 6693
L 6506 6706
L 6506 6706
L 6486 6710
L 6486 6710
L 6462 6706
L 6462 6706
L 6443 6693
L 6443 6693
L 6429 6674
L 6429 6674
L 6425 6652
L 6425 6652
L 6426 6630
L 6426 6630
L 6432 6611
L 6432 6611
L 6440 6599
L 6440 6599
L 6445 6596
L 6450 6595
L 6450 6595
L 6462 6598
L 6462 6598
L 6479 6611
L 6479 6611
L 6496 6630
L 6496 6630
L 6511 6652
Z
"/>
</g>
<g transform="matrix(0.072005,0.000000,0.000000,0.071915,0.000000,0.000000) " fill="none" stroke="#000000" stroke-width="1" stroke-linejoin="round" stroke-linecap="round" >
<path d="
M 3538 4373
L 3538 4373
L 3542 4417
L 3542 4417
L 3550 4433
L 3550 4433
L 3554 4435
L 3557 4435
L 3560 4432
L 3560 4432
L 3573 4408
L 3573 4408
L 3582 4377
L 3582 4377
L 3585 4345
L 3585 4345
L 3580 4316
L 3580 4316
L 3569 4298
L 3569 4298
L 3563 4294
L 3556 4295
L 3556 4295
L 3550 4299
L 3545 4305
L 3545 4305
L 3539 4333
L 3539 4333
L 3538 4373
Z
"/>
</g>
<g transform="matrix(0.072005,0.000000,0.000000,0.071915,0.000000,0.000000) " fill="none" stroke="#000000" stroke-width="1" stroke-linejoin="round" stroke-linecap="round" >
<path d="
M 5504 4778
L 5504 4778
L 5508 4821
L 5508 4821
L 5516 4838
L 5516 4838
L 5519 4840
L 5523 4840
L 5526 4837
L 5526 4837
L 5539 4813
L 5539 4813
L 5548 4781
L 5548 4781
L 5550 4749
L 5550 4749
L 5546 4721
L 5546 4721
L 5535 4702
L 5535 4702
L 5529 4699
L 5522 4700
L 5522 4700
L 5515 4704
L 5511 4710
L 5511 4710
L 5505 4738
L 5505 4738
L 5504 4778
Z
"/>
</g>
<g transform="matrix(0.072005,0.000000,0.000000,0.071915,0.000000,0.000000) " fill="none" stroke="#000000" stroke-width="1" stroke-linejoin="round" stroke-linecap="round" >
<path d="
M 7950 6166
L 7950 6166
L 7964 6210
L 7964 6210
L 7975 6271
L 7975 6271
L 7983 6337
L 7983 6337
L 7986 6397
L 7986 6397
L 7988 6434
L 7994 6471
L 7994 6471
L 8003 6494
L 8020 6512
L 8020 6512
L 8045 6525
L 8072 6532
L 8072 6532
L 8176 6537
L 8176 6537
L 8243 6533
L 8310 6522
L 8310 6522
L 8364 6505
L 8415 6479
L 8415 6479
L 8452 6449
L 8482 6411
L 8482 6411
L 8500 6371
L 8506 6327
L 8506 6327
L 8502 6294
L 8492 6262
L 8476 6233
L 8476 6233
L 8436 6188
L 8390 6150
L 8390 6150
L 8329 6117
L 8264 6094
L 8264 6094
L 8192 6079
L 8120 6074
L 8120 6074
L 8015 6078
L 8015 6078
L 7989 6082
L 7964 6093
L 7964 6093
L 7951 6104
L 7945 6121
L 7945 6121
L 7945 6144
L 7950 6166
Z
"/>
</g>
<g transform="matrix(0.072005,0.000000,0.000000,0.071915,0.000000,0.000000) " fill="none" stroke="#000000" stroke-width="1" stroke-linejoin="round" stroke-linecap="round" >
<path d="
M 8298 6239
L 8298 6239
L 8300 6248
L 8297 6255
L 8297 6255
L 8288 6262
L 8278 6266
L 8278 6266
L 8239 6268
L 8239 6268
L 8186 6261
L 8186 6261
L 8131 6249
L 8131 6249
L 8085 6236
L 8085 6236
L 8050 6222
L 8050 6222
L 8045 6218
L 8043 6212
L 8043 6212
L 8047 6200
L 8055 6191
L 8067 6188
L 8067 6188
L 8160 6191
L 8160 6191
L 8208 6198
L 8256 6208
L 8256 6208
L 8280 6220
L 8298 6239
Z
"/>
</g>
</g >
</g >
</svg>
