<?xml version="1.0" encoding="utf-8"?>
<!-- Generator: Adobe Illustrator 20.1.0, SVG Export Plug-In . SVG Version: 6.00 Build 0)  -->
<svg version="1.1" id="Layer_1" xmlns="http://www.w3.org/2000/svg" xmlns:xlink="http://www.w3.org/1999/xlink" x="0px" y="0px"
	 viewBox="0 0 64 38" style="enable-background:new 0 0 64 38;" xml:space="preserve">
<style type="text/css">
	.st0{fill:#0057A0;}
	.st1{fill:#FAA61A;}
	.st2{fill:#FF9900;}
	.st3{fill:#CC0000;}
	.st4{fill:#FCB340;}
	.st5{fill:#000066;}
	.st6{fill:#FFFFFF;}
</style>
<g>
	<g>
		<polygon class="st0" points="6.7,25.8 8.9,12.9 12.4,12.9 10.2,25.8 		"/>
		<path class="st0" d="M22.9,13.2c-0.7-0.3-1.8-0.5-3.2-0.5c-3.5,0-5.9,1.8-5.9,4.3c0,1.9,1.7,2.9,3.1,3.5c1.4,0.6,1.8,1,1.8,1.6
			c0,0.9-1.1,1.3-2.1,1.3c-1.4,0-2.2-0.2-3.3-0.7l-0.5-0.2l-0.5,2.9c0.8,0.4,2.3,0.7,3.9,0.7c3.7,0,6.1-1.7,6.1-4.4
			c0-1.5-0.9-2.6-3-3.5c-1.2-0.6-2-1-2-1.6c0-0.5,0.6-1.1,2-1.1c1.2,0,2,0.2,2.6,0.5l0.3,0.1L22.9,13.2"/>
		<path class="st0" d="M32,12.9h-2.7c-0.8,0-1.5,0.2-1.8,1.1l-5.2,11.8h3.7c0,0,0.6-1.6,0.7-1.9c0.4,0,4,0,4.5,0
			c0.1,0.5,0.4,1.9,0.4,1.9h3.3L32,12.9 M27.6,21.2c0.3-0.7,1.4-3.6,1.4-3.6c0,0,0.3-0.7,0.5-1.2l0.2,1.1c0,0,0.7,3.1,0.8,3.7
			L27.6,21.2L27.6,21.2z"/>
		<path class="st0" d="M3.7,12.9l-3.4,8.8l-0.4-1.8c-0.6-2.1-2.6-4.3-4.9-5.4l3.2,11.3l3.7,0l5.5-12.9H3.7"/>
		<path class="st1" d="M-2.9,12.9h-5.7l0,0.3c4.4,1.1,7.3,3.7,8.6,6.8L-1.3,14C-1.6,13.2-2.2,12.9-2.9,12.9"/>
	</g>
</g>
<g id="layer1">
	<g id="g10305">
		<path id="path2268" class="st2" d="M71.3,19.8c0,5.9-4.8,10.6-10.6,10.6c-5.9,0-10.6-4.8-10.6-10.6c0,0,0,0,0,0
			c0-5.9,4.8-10.6,10.6-10.6C66.6,9.2,71.3,13.9,71.3,19.8C71.3,19.8,71.3,19.8,71.3,19.8z"/>
		<path id="path1350" class="st3" d="M46.4,9.2c-5.8,0-10.6,4.8-10.6,10.6c0,5.9,4.8,10.6,10.6,10.6c2.8,0,5.3-1,7.2-2.8
			c0,0,0,0,0,0h0c0.4-0.4,0.7-0.7,1.1-1.1h-2.2c-0.3-0.4-0.6-0.7-0.8-1.1h3.8c0.2-0.4,0.4-0.7,0.6-1.1h-5c-0.2-0.4-0.3-0.7-0.4-1.1
			h5.9c0.4-1.1,0.5-2.2,0.5-3.4c0-0.8-0.1-1.5-0.2-2.3h-6.5c0.1-0.4,0.2-0.8,0.3-1.1h5.9c-0.1-0.4-0.3-0.8-0.5-1.1h-5
			c0.2-0.4,0.4-0.8,0.6-1.1h3.8c-0.2-0.4-0.5-0.8-0.8-1.1h-2.1c0.3-0.4,0.7-0.7,1.1-1.1C51.7,10.2,49.2,9.2,46.4,9.2
			C46.4,9.2,46.4,9.2,46.4,9.2z"/>
		<path id="use9412" class="st4" d="M70.3,25.4c0.1,0,0.1,0,0.2,0c0.1,0,0.1,0.1,0.1,0.1c0,0.1,0,0.1,0,0.2c0,0.1,0,0.1,0,0.2
			c0,0.1-0.1,0.1-0.1,0.1c-0.1,0-0.1,0-0.2,0s-0.1,0-0.2,0C70,26,70,25.9,70,25.9c0-0.1,0-0.1,0-0.2c0-0.1,0-0.1,0-0.2
			c0-0.1,0.1-0.1,0.1-0.1C70.1,25.4,70.2,25.4,70.3,25.4 M70.3,25.4c0,0-0.1,0-0.1,0c0,0-0.1,0.1-0.1,0.1c0,0,0,0.1,0,0.1
			c0,0,0,0.1,0,0.1c0,0,0.1,0.1,0.1,0.1c0,0,0.1,0,0.1,0c0,0,0.1,0,0.1,0c0,0,0.1-0.1,0.1-0.1c0,0,0-0.1,0-0.1c0,0,0-0.1,0-0.1
			c0,0-0.1-0.1-0.1-0.1C70.4,25.4,70.3,25.4,70.3,25.4 M70.1,25.9v-0.4h0.1c0,0,0.1,0,0.1,0c0,0,0,0,0,0c0,0,0,0,0,0.1
			c0,0,0,0.1,0,0.1c0,0,0,0-0.1,0c0,0,0,0,0,0c0,0,0,0,0.1,0.1l0,0.1h-0.1l0-0.1c0,0,0-0.1-0.1-0.1c0,0,0,0,0,0h0L70.1,25.9
			L70.1,25.9 M70.2,25.7L70.2,25.7c0.1,0,0.1,0,0.1,0c0,0,0,0,0,0c0,0,0,0,0,0c0,0,0,0,0,0c0,0,0,0-0.1,0h-0.1L70.2,25.7"/>
	</g>
	<g id="g16480">
		<g id="g13802" transform="translate(-13.74405,15.9939)">
			<path id="path13804" class="st5" d="M63.7,6.8l0.1-1c-0.1,0-0.2,0-0.3,0c-0.4,0-0.4-0.2-0.4-0.4l0.4-1.9h0.6l0.1-1.1h-0.6
				l0.1-0.7h-1.2c0,0-0.7,3.7-0.7,4.2c0,0.7,0.4,1,0.9,1C63.3,7,63.6,6.9,63.7,6.8z"/>
			<path id="path13806" class="st5" d="M64.1,5c0,1.6,1.1,2,2,2c0.8,0,1.3-0.2,1.3-0.2l0.2-1.1c0,0-0.7,0.3-1.3,0.3
				c-1.2,0-1-0.9-1-0.9l2.3,0c0,0,0.1-0.7,0.1-1c0-0.7-0.4-1.7-1.6-1.7C64.9,2.4,64.1,3.6,64.1,5z M66,3.4c0.6,0,0.5,0.7,0.5,0.8
				h-1.3C65.3,4.1,65.4,3.4,66,3.4z"/>
			<path id="path13808" class="st5" d="M73.2,6.8l0.2-1.2c0,0-0.6,0.3-0.9,0.3c-0.8,0-1.1-0.6-1.1-1.3c0-1.3,0.7-2.1,1.5-2.1
				c0.6,0,1,0.3,1,0.3L74,1.7c0,0-0.5-0.4-1.1-0.4c-1.8,0-2.8,1.2-2.8,3.4C70.1,6,70.9,7,72.2,7C72.6,7,73.2,6.8,73.2,6.8z"/>
			<path id="path13810" class="st5" d="M57.5,2.4c-0.8,0-1.4,0.2-1.4,0.2l-0.2,1c0,0,0.5-0.2,1.2-0.2c0.4,0,0.7,0,0.7,0.4
				c0,0.2,0,0.3,0,0.3s-0.3,0-0.5,0c-1.1,0-2,0.4-2,1.7c0,1,0.7,1.2,1.1,1.2c0.8,0,1.1-0.5,1.1-0.5l0,0.4c0,0,1,0,1,0L59,3.8
				C59,2.5,57.9,2.4,57.5,2.4z M57.6,5c0,0.2,0,1.1-0.7,1.1c-0.4,0-0.4-0.3-0.4-0.4c0-0.3,0.2-0.7,1-0.7C57.7,4.9,57.6,4.9,57.6,5z"
				/>
			<path id="path13812" class="st5" d="M60.1,7c0.3,0,1.7,0.1,1.7-1.4c0-1.4-1.3-1.1-1.3-1.7c0-0.3,0.2-0.4,0.6-0.4
				c0.2,0,0.8,0.1,0.8,0.1l0.1-1c0,0-0.4-0.1-1-0.1c-0.8,0-1.7,0.3-1.7,1.5c0,1.3,1.4,1.2,1.4,1.7C60.7,6,60.3,6,60,6
				c-0.5,0-1-0.2-1-0.2l-0.2,1C58.8,6.8,59.1,7,60.1,7z"/>
			<path id="path13814" class="st5" d="M82.5,1.5L82.3,3c0,0-0.4-0.6-1.1-0.6c-1.3,0-1.9,1.3-1.9,2.7c0,0.9,0.5,1.8,1.4,1.8
				c0.7,0,1.1-0.5,1.1-0.5l0,0.4h1.1l0.9-5.4L82.5,1.5z M82.1,4.5c0,0.6-0.3,1.4-0.9,1.4c-0.4,0-0.6-0.3-0.6-0.9
				c0-0.9,0.4-1.5,0.9-1.5C81.9,3.5,82.1,3.8,82.1,4.5z"/>
			<path id="path13816" class="st5" d="M51.3,6.9L52,2.8l0.1,4.1h0.8l1.5-4.1l-0.6,4.1h1.2l0.9-5.4l-1.8,0l-1.1,3.3l0-3.3h-1.7
				l-0.9,5.4L51.3,6.9L51.3,6.9z"/>
			<path id="path13818" class="st5" d="M68.8,6.9c0.3-1.9,0.4-3.4,1.4-3c0.1-0.7,0.5-1.4,0.6-1.7c0,0,0-0.1-0.3-0.1
				c-0.5,0-1.2,1-1.2,1l0.1-0.6h-1.1l-0.7,4.4L68.8,6.9L68.8,6.9z"/>
			<g id="use14699" transform="translate(845.3001,0)">
				<path id="path13810_1_" class="st5" d="M-769.7,2.4c-0.8,0-1.4,0.2-1.4,0.2l-0.2,1c0,0,0.5-0.2,1.2-0.2c0.4,0,0.7,0,0.7,0.4
					c0,0.2,0,0.3,0,0.3s-0.3,0-0.5,0c-1.1,0-2,0.4-2,1.7c0,1,0.7,1.2,1.1,1.2c0.8,0,1.1-0.5,1.1-0.5l0,0.4h1l0.4-3.1
					C-768.2,2.5-769.3,2.4-769.7,2.4z M-769.5,5c0,0.2,0,1.1-0.7,1.1c-0.4,0-0.4-0.3-0.4-0.4c0-0.3,0.2-0.7,1-0.7
					C-769.5,4.9-769.6,4.9-769.5,5z"/>
			</g>
			<path id="use14701" class="st5" d="M78.3,6.9c0.2-1.4,0.5-3.3,1.4-3c0.1-0.7,0-0.7-0.3-0.7c-0.5,0-0.6,0-0.6,0l0.1-0.6h-1.1
				l-0.7,4.4L78.3,6.9L78.3,6.9z"/>
		</g>
		<g id="g10289">
			<path id="path4157" class="st6" d="M50.2,22.5l0.1-1c-0.1,0-0.2,0-0.3,0c-0.4,0-0.4-0.2-0.4-0.4l0.3-2h0.6l0.1-1.1h-0.6l0.1-0.7
				h-1.1c0,0-0.7,3.7-0.7,4.2c0,0.7,0.4,1,0.9,1C49.8,22.6,50.1,22.5,50.2,22.5z"/>
			<path id="path4155" class="st6" d="M50.6,20.7c0,1.6,1.1,2,2,2c0.8,0,1.2-0.2,1.2-0.2l0.2-1.1c0,0-0.6,0.3-1.2,0.3
				c-1.2,0-1-0.9-1-0.9h2.3c0,0,0.1-0.7,0.1-1c0-0.7-0.4-1.7-1.6-1.7C51.5,18.1,50.6,19.3,50.6,20.7z M52.6,19.1
				c0.6,0,0.5,0.7,0.5,0.8h-1.3C51.9,19.8,52,19.1,52.6,19.1z"/>
			<path id="path4151" class="st6" d="M59.8,22.5l0.2-1.2c0,0-0.6,0.3-0.9,0.3c-0.8,0-1.1-0.6-1.1-1.3c0-1.3,0.7-2.1,1.5-2.1
				c0.6,0,1,0.3,1,0.3l0.2-1.2c0,0-0.7-0.3-1.3-0.3c-1.3,0-2.6,1.1-2.6,3.3c0,1.4,0.7,2.3,2,2.3C59.2,22.7,59.8,22.5,59.8,22.5z"/>
			<path id="path4149" class="st6" d="M44,18.1c-0.8,0-1.4,0.2-1.4,0.2l-0.2,1c0,0,0.5-0.2,1.2-0.2c0.4,0,0.7,0,0.7,0.4
				c0,0.2,0,0.3,0,0.3s-0.3,0-0.5,0c-1,0-2,0.4-2,1.7c0,1,0.7,1.2,1.1,1.2c0.8,0,1.1-0.5,1.2-0.5l0,0.4h1l0.4-3.1
				C45.6,18.1,44.4,18.1,44,18.1z M44.3,20.6c0,0.2-0.1,1.1-0.8,1.1c-0.4,0-0.4-0.3-0.4-0.4c0-0.3,0.2-0.7,1-0.7
				C44.2,20.6,44.2,20.6,44.3,20.6z"/>
			<path id="path4145" class="st6" d="M46.6,22.6c0.3,0,1.7,0.1,1.7-1.4c0-1.4-1.3-1.1-1.3-1.7c0-0.3,0.2-0.4,0.6-0.4
				c0.2,0,0.8,0.1,0.8,0.1l0.1-1c0,0-0.4-0.1-1-0.1c-0.8,0-1.7,0.3-1.7,1.5c0,1.3,1.4,1.2,1.4,1.7c0,0.4-0.4,0.4-0.7,0.4
				c-0.5,0-1-0.2-1-0.2l-0.2,1C45.4,22.5,45.7,22.6,46.6,22.6z"/>
			<path id="path4139" class="st6" d="M69.1,17.2l-0.2,1.5c0,0-0.4-0.6-1.1-0.6c-1,0-1.9,1.3-1.9,2.7c0,0.9,0.5,1.8,1.4,1.8
				c0.7,0,1.1-0.5,1.1-0.5l0,0.4h1.1l0.9-5.4L69.1,17.2z M68.6,20.1c0,0.6-0.3,1.4-0.9,1.4c-0.4,0-0.6-0.3-0.6-0.9
				c0-0.9,0.4-1.5,0.9-1.5C68.4,19.2,68.6,19.5,68.6,20.1z"/>
			<path id="path4133" class="st6" d="M37.9,22.6l0.7-4.1l0.1,4.1h0.8l1.5-4.1l-0.6,4.1h1.2l0.9-5.4h-1.8l-1.1,3.3l-0.1-3.3h-1.7
				l-0.9,5.4C36.8,22.6,37.9,22.6,37.9,22.6z"/>
			<path id="path4131" class="st6" d="M55.3,22.6c0.3-1.9,0.4-3.4,1.2-3.1c0.1-0.7,0.3-1,0.4-1.3c0,0-0.1,0-0.2,0
				c-0.5,0-0.9,0.7-0.9,0.7l0.1-0.6h-1.1l-0.7,4.4H55.3z"/>
			<g id="use8523" transform="translate(847.0062,0)">
				<path id="path4149_1_" class="st6" d="M-784.6,18.1c-0.8,0-1.4,0.2-1.4,0.2l-0.2,1c0,0,0.5-0.2,1.2-0.2c0.4,0,0.7,0,0.7,0.4
					c0,0.2,0,0.3,0,0.3s-0.3,0-0.5,0c-1,0-2,0.4-2,1.7c0,1,0.7,1.2,1.1,1.2c0.8,0,1.1-0.5,1.2-0.5l0,0.4c0,0,1,0,1,0l0.4-3.1
					C-783.1,18.1-784.2,18.1-784.6,18.1z M-784.4,20.6c0,0.2-0.1,1.1-0.8,1.1c-0.4,0-0.4-0.3-0.4-0.4c0-0.3,0.2-0.7,1-0.7
					C-784.4,20.6-784.4,20.6-784.4,20.6z"/>
			</g>
			<g id="use8525" transform="translate(442.2857,0)">
				<path id="path4131_1_" class="st6" d="M-377.4,22.6c0.3-1.9,0.4-3.4,1.2-3.1c0.1-0.7,0.3-1,0.4-1.3c0,0-0.1,0-0.2,0
					c-0.5,0-0.9,0.7-0.9,0.7l0.1-0.6h-1.1l-0.7,4.4H-377.4z"/>
			</g>
			<path id="text9407" class="st6" d="M70.3,21.9c0.1,0,0.1,0,0.2,0c0.1,0,0.1,0.1,0.1,0.1c0,0.1,0,0.1,0,0.2c0,0.1,0,0.1,0,0.2
				c0,0.1-0.1,0.1-0.1,0.1c-0.1,0-0.1,0-0.2,0c-0.1,0-0.1,0-0.2,0c-0.1,0-0.1-0.1-0.1-0.1c0-0.1,0-0.1,0-0.2c0-0.1,0-0.1,0-0.2
				c0-0.1,0.1-0.1,0.1-0.1C70.1,21.9,70.2,21.9,70.3,21.9 M70.3,21.9c0,0-0.1,0-0.1,0c0,0-0.1,0.1-0.1,0.1c0,0,0,0.1,0,0.1
				c0,0,0,0.1,0,0.1c0,0,0.1,0.1,0.1,0.1c0,0,0.1,0,0.1,0c0,0,0.1,0,0.1,0c0,0,0.1-0.1,0.1-0.1c0,0,0-0.1,0-0.1c0,0,0-0.1,0-0.1
				c0,0-0.1-0.1-0.1-0.1C70.3,22,70.3,21.9,70.3,21.9 M70.1,22.4v-0.4h0.1c0,0,0.1,0,0.1,0c0,0,0,0,0,0c0,0,0,0,0,0.1
				c0,0,0,0.1,0,0.1c0,0,0,0-0.1,0c0,0,0,0,0,0c0,0,0,0,0.1,0.1l0,0.1h-0.1l0-0.1c0,0,0-0.1-0.1-0.1c0,0,0,0,0,0h0L70.1,22.4
				L70.1,22.4 M70.2,22.2L70.2,22.2c0.1,0,0.1,0,0.1,0c0,0,0,0,0,0c0,0,0,0,0,0c0,0,0,0,0,0c0,0,0,0-0.1,0h-0.1L70.2,22.2"/>
		</g>
	</g>
</g>
</svg>
