<?xml version="1.0" encoding="utf-8"?>
<!-- Generator: Adobe Illustrator 19.0.0, SVG Export Plug-In . SVG Version: 6.00 Build 0)  -->
<svg version="1.1" id="Layer_1" xmlns="http://www.w3.org/2000/svg" xmlns:xlink="http://www.w3.org/1999/xlink" x="0px" y="0px"
	 viewBox="-424 471 150 60" style="enable-background:new -424 471 150 60;" xml:space="preserve">
<style type="text/css">
	.st0{fill:#CE0047;}
	.st1{fill:#1F282A;}
	.st2{fill:#293234;}
	.st3{fill:#FAEBF0;}
	.st4{fill:#F7D9E3;}
	.st5{fill:#F7DBE5;}
	.st6{fill:#F7D8E3;}
	.st7{fill:#FDFAFB;}
	.st8{fill:#D10E51;}
	.st9{fill:#D31B5A;}
	.st10{fill:#F9E3EB;}
	.st11{fill:#898E8F;}
</style>
<g>
	<path class="st0" d="M-401.8,487.8c0.9,0,1.6,0.5,2.3,1.1c1.5,1.3,3.2,1.9,5.2,2c1.6,0.1,2.7,0.9,2.9,2.6c0.3,2.3,1,4.3,2.6,6
		c1.1,1.2,1,2.5,0,3.7c-1.3,1.7-2.2,3.5-2.3,5.7c0,1.8-1.1,2.9-2.9,3.1c-2,0.2-3.7,0.9-5.2,2.3c-1.4,1.2-2.8,1.3-4.2,0.1
		c-1.6-1.4-3.4-2.1-5.5-2.2c-1.7-0.1-2.6-1-2.8-2.7c-0.2-2.2-1-4.1-2.5-5.8c-1-1.2-1.2-2.5-0.1-3.7c1.5-1.8,2.2-3.8,2.4-6
		c0.1-1.4,0.8-2.4,2.2-2.6c2.5-0.3,4.6-1.2,6.5-2.9C-403,488-402.4,487.8-401.8,487.8z"/>
	<path class="st1" d="M-332.8,497c1.6-1.6,3-3,4.4-4.4c0.6-0.6,1.3-1.1,2-0.4c0.8,0.8,0,1.4-0.5,1.9c-2.3,2.5-2.3,2.5-0.3,5.3
		c0.5,0.7,1,1.4,1.4,2.1c0.4,0.6,0.7,1.2-0.1,1.7c-0.7,0.5-1.4,0.3-1.9-0.4c-0.7-1.1-1.4-2.2-2.1-3.3c-0.3-0.5-0.5-1.5-1.2-1.2
		c-0.7,0.3-1.6,1-1.6,2c0,0.6,0,1.2,0,1.8c0,0.8-0.3,1.3-1.1,1.3c-0.8,0-1.2-0.5-1.2-1.2c0-3,0-6,0-9c0-0.7,0.3-1.3,1.1-1.3
		c0.9,0,1.2,0.6,1.2,1.4C-332.8,494.5-332.8,495.6-332.8,497z"/>
	<path class="st1" d="M-361.8,497.7c0-1.3,0-2.6,0-3.9c0-1.2,0.5-1.7,1.6-1.7c1.9,0,3.8,0,5.7,0c0.6,0,1.3,0.2,1.3,0.9
		c0,0.7-0.6,0.9-1.3,0.9c-1.2,0-2.4,0.1-3.5,0c-1.1-0.1-1.5,0.2-1.5,1.4c0,1.1,0.3,1.5,1.4,1.4c1.1-0.1,2.2,0,3.3,0
		c0.5,0,1,0.2,1,0.7c0,0.6-0.4,0.9-1,0.9c-1.2,0-2.5,0.1-3.7,0c-1.4-0.1-1.1,0.9-1,1.6c0.1,0.7-0.6,1.9,1,1.8c1.4,0,2.7,0,4.1,0
		c0.6,0,1.3,0,1.2,0.9c0,0.8-0.7,0.9-1.3,0.9c-2,0-3.9,0-5.9,0c-1.1,0-1.5-0.5-1.5-1.6C-361.8,500.5-361.8,499.1-361.8,497.7z"/>
	<path class="st1" d="M-346.8,503.4c-4.9,0-4.3,0.6-4.4-4.4c0-1.7,0-3.4,0-5.1c0-1.2,0.5-1.8,1.7-1.8c1.8,0,3.7,0,5.5,0
		c0.7,0,1.4,0.1,1.4,1c0,0.7-0.7,0.8-1.3,0.8c-1.1,0-2.2,0-3.3,0c-0.9,0-1.6-0.1-1.6,1.2c0,1.2,0.3,1.7,1.5,1.5c1-0.1,2.1,0,3.1,0
		c0.5,0,1.1,0.1,1.1,0.8c0,0.6-0.5,0.8-1.1,0.9c-1.2,0-2.4,0.1-3.5,0c-1.3-0.1-1.2,0.7-1.1,1.4c0.1,0.7-0.6,2,1,1.9
		c1.4,0,2.7,0,4.1,0c0.5,0,1.1,0,1.1,0.8c0,0.8-0.5,1-1.2,1C-344.8,503.4-345.8,503.4-346.8,503.4z"/>
	<path class="st1" d="M-297.4,503.6c-2.1,0-3.6-0.5-4.4-2.3c-0.3-0.7-0.5-1.4,0.4-1.8c0.8-0.4,1.2,0.2,1.5,0.8
		c0.6,1.6,1.8,1.9,3.3,1.5c0.6-0.2,1.1-0.7,1.2-1.4c0.1-0.8-0.4-1.2-1-1.5c-1-0.4-2.1-0.6-3.2-1c-1.4-0.5-2.3-1.4-2.2-3.1
		c0.2-1.7,1.3-2.5,2.8-2.8c1.8-0.3,3.6-0.3,4.8,1.3c0.5,0.6,0.9,1.4,0.1,2.1c-0.8,0.6-1.3,0-1.7-0.7c-0.3-0.6-0.7-1.1-1.4-1.2
		c-1-0.1-2.1-0.1-2.4,1.1c-0.3,1.1,0.8,1.3,1.6,1.6c0.7,0.2,1.5,0.4,2.3,0.6c1.6,0.5,2.8,1.5,2.6,3.4c-0.2,1.9-1.3,2.9-3.1,3.2
		C-296.8,503.5-297.3,503.5-297.4,503.6z"/>
	<path class="st1" d="M-308,503.6c-2.5,0-4.1-0.9-4.6-2.5c-0.2-0.6-0.3-1.2,0.4-1.5c0.7-0.4,1.3-0.1,1.6,0.6
		c0.6,1.5,1.7,2.1,3.3,1.7c0.7-0.2,1.3-0.7,1.3-1.5c0-0.8-0.5-1.2-1.1-1.4c-1.1-0.4-2.3-0.6-3.3-1c-1.2-0.5-2-1.4-2-2.8
		c0.1-1.5,1-2.3,2.3-2.8c1.9-0.6,4.3-0.2,5.3,1.1c0.5,0.7,1.1,1.5,0.1,2.2c-0.8,0.6-1.3-0.1-1.7-0.8c-0.4-0.8-1-1.2-1.9-1.2
		c-0.9,0-1.8,0.2-2,1.2c-0.2,1,0.8,1.3,1.5,1.5c0.7,0.2,1.5,0.4,2.3,0.6c1.7,0.5,2.9,1.5,2.8,3.5c-0.1,1.7-1.4,2.9-3.4,3.2
		C-307.5,503.5-307.8,503.6-308,503.6z"/>
	<path class="st1" d="M-382.6,497.9c0-1.4,0-2.7,0-4.1c0-1,0.4-1.6,1.4-1.7c1.8,0,3.5,0,5.3,0c0.6,0,1.2,0.2,1.2,1
		c-0.1,0.7-0.6,0.8-1.2,0.8c-1,0-2,0.1-2.9,0c-1.3-0.2-1.4,0.4-1.5,1.5c0,1.3,0.5,1.4,1.5,1.3c0.8-0.1,1.6,0,2.3,0
		c0.5,0,0.9,0.2,0.9,0.8c0,0.6-0.4,0.8-0.9,0.8c-1.3,0.2-3-0.6-3.7,0.4c-0.6,0.8-0.2,2.4-0.2,3.6c0,0.8-0.5,1.2-1.3,1.2
		c-0.7,0-1.1-0.5-1.1-1.2C-382.6,500.9-382.6,499.4-382.6,497.9C-382.6,497.9-382.6,497.9-382.6,497.9z"/>
	<path class="st2" d="M-339.1,498.4c0.5,0,0.9-0.1,1.4,0c0.6,0.1,1,0.4,0.9,1.1c-0.1,0.5-0.4,0.8-0.9,0.8c-0.7,0-1.4,0-2.1,0
		c-0.7,0-1.6,0-1.5-1c0-1,0.9-0.9,1.6-0.9C-339.6,498.3-339.3,498.4-339.1,498.4C-339.1,498.4-339.1,498.4-339.1,498.4z"/>
	<path class="st3" d="M-410.9,499.3c0.4-3.7,3.5-6.6,7.7-7.4c1-0.2,2.1-0.2,3.1,0c7.1,1.8,8.8,7.5,7.9,11.5c-1,4.5-4.5,7.2-8.9,7.7
		c-4.1,0.5-8.4-2.5-9.8-6.5c-0.1-0.4-0.1-0.8-0.1-1.2C-411.1,502.1-411.1,500.7-410.9,499.3z"/>
	<path class="st4" d="M-410.9,499.3c0,1.4,0,2.8,0,4.2C-411.4,502.1-411.4,500.7-410.9,499.3z"/>
	<path class="st5" d="M-400,492c-1,0-2.1,0-3.1,0C-402.1,491.5-401.1,491.5-400,492z"/>
	<path class="st1" d="M-366.6,498.2c1.2,1.2,2,2.3,2.6,3.6c0.2,0.6,0.4,1.1-0.2,1.5c-0.7,0.4-1.3,0.2-1.7-0.4
		c-0.5-0.8-1-1.7-1.5-2.5c-0.4-0.5-0.7-1.1-1.2-1.5c-0.5-0.5-1.2-0.6-1.8-0.4c-0.6,0.2-0.3,0.9-0.3,1.4c0,0.8,0,1.6,0,2.3
		c0,0.8-0.4,1.2-1.2,1.2c-0.7,0-1.1-0.4-1.1-1.1c0-3.1,0-6.1,0-9.2c0-0.9,0.7-1.1,1.5-1.1c1.3,0,2.6,0,3.9,0
		c1.6,0.1,3.2,0.5,3.6,2.3C-363.6,496.4-364.6,497.5-366.6,498.2z M-370.9,495.3c0.1,1.1,0,2,1.5,1.7c1.2-0.2,2.9,0.2,3-1.6
		c0-1.6-1.4-1.6-3-1.6C-370.1,493.6-371,493.6-370.9,495.3z"/>
	<path class="st1" d="M-281.5,502.5c-0.1,0.5-0.3,0.9-0.8,1c-0.7,0.2-1.1-0.2-1.4-0.7c-0.4-0.7-0.2-1.9-1.2-2
		c-1.2-0.2-2.5-0.1-3.7,0c-1,0.1-0.8,1-1.1,1.6c-0.4,0.7-0.6,1.6-1.7,1.1c-0.9-0.4-0.7-1.1-0.4-1.8c1.1-2.7,2.1-5.4,3.2-8.2
		c0.3-0.8,0.7-1.5,1.8-1.5c1,0,1.3,0.7,1.6,1.4c1.1,2.6,2.1,5.3,3.2,7.9C-281.7,501.7-281.6,502.1-281.5,502.5z M-286.1,496.2
		c-0.2-0.5-0.4-1-0.7-1.9c-0.6,1.7-1.1,3.1-1.6,4.6C-285.1,499.1-285.1,499.1-286.1,496.2z"/>
	<path class="st1" d="M-314.1,502.5c-0.1,0.5-0.3,0.9-0.8,1c-0.7,0.2-1.1-0.2-1.4-0.7c-0.4-0.7-0.2-1.9-1.2-2
		c-1.2-0.2-2.5-0.1-3.7,0c-1,0.1-0.8,1-1.1,1.6c-0.4,0.7-0.6,1.6-1.7,1.1c-0.9-0.4-0.7-1.1-0.4-1.8c1.1-2.7,2.1-5.4,3.2-8.2
		c0.3-0.8,0.7-1.5,1.8-1.5c1,0,1.3,0.7,1.6,1.4c1.1,2.6,2.1,5.3,3.2,7.9C-314.3,501.7-314.2,502.1-314.1,502.5z M-318.7,496.3
		c-0.2-0.5-0.4-1.1-0.6-1.7c-0.9,1.4-1.1,2.8-1.8,4.4C-317.6,499.2-317.6,499.2-318.7,496.3z"/>
	<path class="st0" d="M-400.2,492.7c2.9,0.8,5.3,2.4,6.6,5.2c2.1,4.8-0.4,10.7-6.2,12.2c-1.2,0.2-2.3,0.2-3.5,0
		c-3.5-0.7-6.9-4.1-7-7.2c-0.2-5.3,2.4-9.1,6.1-9.8c0.4-0.1,0.9-0.3,1.3-0.4C-402,492.5-401.1,492.6-400.2,492.7z"/>
	<path class="st6" d="M-403.3,510.1c1.2,0,2.3,0,3.5,0C-401,510.7-402.2,510.7-403.3,510.1z"/>
	<path class="st5" d="M-400.2,492.7c-0.9,0-1.8,0-2.7,0C-402,492.2-401.1,492.2-400.2,492.7z"/>
	<path class="st7" d="M-405.7,498.7c2.7,0,5.4,0,8.1,0c0.4,1.8,0.4,1.8-3,2.9c0.8,0.7,1.8,0.3,2.6,0.7c1.1,0.6,0.9,1.4,0.4,2.2
		c-2.7,0-5.3,0-8,0C-406.4,502.6-406.5,500.7-405.7,498.7z"/>
	<path class="st8" d="M-397.6,504.5c0.5-1.4,0.2-2.1-1.4-1.9c-0.3,0-0.7,0-1,0c-0.8,0.1-1.6-0.1-1.6-1c-0.1-0.9,0.8-1.1,1.5-1
		c0.3,0,0.7,0,1,0c1.5,0.2,2-0.4,1.6-1.9c0.4,0.5,0.8,1,1.2,1.6c-0.1,0.9,0.1,1.8,0,2.7C-396.8,503.5-397.2,504-397.6,504.5z"/>
	<path class="st9" d="M-405.7,498.7c-0.1,1.9-0.3,3.9,0.1,5.8c-0.8-0.2-0.3-1.3-1-1.6c-0.6-0.8-0.3-1.8-0.3-2.7
		C-406.5,499.7-406.1,499.2-405.7,498.7z"/>
	<path class="st10" d="M-396.3,502.9c-0.6-0.9-0.7-1.8,0-2.7C-395.3,501.2-395.4,502-396.3,502.9z"/>
	<path class="st10" d="M-406.9,500.3c0.8,0.8,0.3,1.8,0.3,2.7C-407.9,502.2-407.9,501.3-406.9,500.3z"/>
</g>
<g>
	<path class="st11" d="M-382.2,506.9h2.6v3.4h-0.4v-3h-1.8v3h-0.4V506.9z"/>
	<path class="st11" d="M-378.6,510.3v-3.4h1.3c0.2,0,0.4,0,0.5,0c0.2,0,0.3,0.1,0.4,0.2s0.2,0.2,0.3,0.3c0.1,0.1,0.1,0.3,0.1,0.5
		c0,0.3-0.1,0.5-0.3,0.7c-0.2,0.2-0.5,0.3-1,0.3h-0.9v1.4H-378.6z M-378.2,508.5h0.9c0.3,0,0.5-0.1,0.6-0.2c0.1-0.1,0.2-0.3,0.2-0.5
		c0-0.1,0-0.3-0.1-0.4c-0.1-0.1-0.2-0.2-0.3-0.2c-0.1,0-0.2,0-0.4,0h-0.9V508.5z"/>
	<path class="st11" d="M-375.2,506.9h0.4v2.7l1.8-2.7h0.4v3.4h-0.4v-2.7l-1.8,2.7h-0.4V506.9z"/>
	<path class="st11" d="M-371.6,510.3v-3.4h2.4v0.4h-2v1h1.9v0.4h-1.9v1.1h2.1v0.4H-371.6z"/>
	<path class="st11" d="M-368.3,510.3v-3.4h0.7l0.8,2.4c0.1,0.2,0.1,0.4,0.2,0.5c0-0.1,0.1-0.3,0.2-0.5l0.8-2.3h0.6v3.4h-0.4v-2.8
		l-1,2.8h-0.4l-1-2.9v2.9H-368.3z"/>
	<path class="st11" d="M-360.2,508.3c0-0.3-0.1-0.6-0.3-0.8c-0.2-0.2-0.4-0.3-0.8-0.3c-0.5,0-0.8,0.2-0.9,0.7l-0.4-0.1
		c0.1-0.3,0.2-0.5,0.5-0.7s0.5-0.3,0.9-0.3c0.3,0,0.6,0.1,0.9,0.2c0.2,0.2,0.4,0.4,0.5,0.6c0.1,0.3,0.2,0.5,0.2,0.8
		c0,0.5-0.1,0.9-0.4,1.3c-0.3,0.3-0.7,0.5-1.2,0.5c-0.7,0-1.2-0.4-1.4-1.1l0.4-0.1c0.1,0.6,0.5,0.9,1,0.9c0.3,0,0.5-0.1,0.7-0.3
		c0.2-0.2,0.3-0.5,0.3-0.9h-1.3v-0.4H-360.2z"/>
	<path class="st11" d="M-358.8,506.9h2.1v3.4h-0.4v-3h-1.2v1.7c0,0.4,0,0.6,0,0.8s-0.1,0.3-0.2,0.4c-0.1,0.1-0.2,0.1-0.4,0.1
		c-0.1,0-0.2,0-0.4-0.1l0.1-0.4c0.1,0,0.1,0,0.2,0c0.1,0,0.2,0,0.2-0.1s0.1-0.3,0.1-0.5V506.9z"/>
	<path class="st11" d="M-355.8,510.3v-3.4h2.4v0.4h-2v1h1.9v0.4h-1.9v1.1h2.1v0.4H-355.8z"/>
	<path class="st11" d="M-352.4,506.9h0.4v1.5c0.2,0,0.3,0,0.4-0.1c0.1-0.1,0.2-0.3,0.3-0.6c0.1-0.2,0.2-0.4,0.2-0.5
		c0.1-0.1,0.1-0.2,0.3-0.2c0.1-0.1,0.2-0.1,0.4-0.1c0.2,0,0.3,0,0.3,0v0.4c0,0,0,0-0.1,0c0,0-0.1,0-0.1,0c-0.1,0-0.2,0-0.3,0.1
		c-0.1,0.1-0.2,0.2-0.2,0.4c-0.1,0.3-0.2,0.5-0.3,0.5s-0.2,0.1-0.3,0.2c0.2,0.1,0.4,0.3,0.6,0.6l0.7,1.1h-0.6l-0.6-0.9
		c-0.2-0.3-0.3-0.4-0.4-0.5s-0.2-0.1-0.4-0.1v1.6h-0.4V506.9z"/>
	<path class="st11" d="M-348.6,510.3v-3h-1.1v-0.4h2.7v0.4h-1.1v3H-348.6z"/>
	<path class="st11" d="M-346.3,510.3v-3.4h1.3c0.2,0,0.4,0,0.5,0c0.2,0,0.3,0.1,0.4,0.2s0.2,0.2,0.3,0.3c0.1,0.1,0.1,0.3,0.1,0.5
		c0,0.3-0.1,0.5-0.3,0.7c-0.2,0.2-0.5,0.3-1,0.3h-0.9v1.4H-346.3z M-345.9,508.5h0.9c0.3,0,0.5-0.1,0.6-0.2c0.1-0.1,0.2-0.3,0.2-0.5
		c0-0.1,0-0.3-0.1-0.4c-0.1-0.1-0.2-0.2-0.3-0.2c-0.1,0-0.2,0-0.4,0h-0.9V508.5z"/>
	<path class="st11" d="M-343.2,508.6c0-0.6,0.2-1,0.5-1.3s0.7-0.5,1.2-0.5c0.3,0,0.6,0.1,0.8,0.2c0.2,0.1,0.4,0.4,0.6,0.6
		s0.2,0.6,0.2,0.9c0,0.3-0.1,0.6-0.2,0.9c-0.1,0.3-0.3,0.5-0.6,0.6c-0.3,0.1-0.5,0.2-0.8,0.2c-0.3,0-0.6-0.1-0.8-0.2
		s-0.4-0.4-0.6-0.6S-343.2,508.9-343.2,508.6z M-342.7,508.6c0,0.4,0.1,0.7,0.3,1c0.2,0.2,0.5,0.4,0.8,0.4c0.3,0,0.6-0.1,0.8-0.4
		c0.2-0.2,0.3-0.6,0.3-1c0-0.3,0-0.5-0.1-0.7s-0.2-0.4-0.4-0.5c-0.2-0.1-0.4-0.2-0.6-0.2c-0.3,0-0.6,0.1-0.8,0.3
		C-342.6,507.8-342.7,508.1-342.7,508.6z"/>
	<path class="st11" d="M-339.1,510.3v-3.4h0.4v1.4h1.8v-1.4h0.4v3.4h-0.4v-1.6h-1.8v1.6H-339.1z"/>
	<path class="st11" d="M-335.5,510.3v-3.4h0.4v1.4h1.8v-1.4h0.4v3.4h-0.4v-1.6h-1.8v1.6H-335.5z"/>
	<path class="st11" d="M-331.9,506.9h0.4v1.4h0.8c0.5,0,0.9,0.1,1,0.3c0.2,0.2,0.2,0.4,0.2,0.7c0,0.3-0.1,0.5-0.3,0.7
		c-0.2,0.2-0.5,0.3-1,0.3h-1.3V506.9z M-331.4,509.9h0.8c0.3,0,0.5,0,0.6-0.1s0.2-0.2,0.2-0.5c0-0.1,0-0.3-0.1-0.4s-0.2-0.2-0.3-0.2
		c-0.1,0-0.3,0-0.6,0h-0.6V509.9z M-328.9,506.9h0.4v3.4h-0.4V506.9z"/>
	<path class="st11" d="M-327.8,510.3l1.3-1.8l-1.1-1.6h0.5l0.6,0.9c0.1,0.2,0.2,0.3,0.3,0.4c0.1-0.1,0.2-0.3,0.3-0.4l0.7-0.9h0.5
		l-1.2,1.6l1.3,1.8h-0.6l-0.8-1.2c0-0.1-0.1-0.1-0.1-0.2c-0.1,0.1-0.1,0.2-0.2,0.3l-0.8,1.2H-327.8z"/>
	<path class="st11" d="M-322.6,506.9h2.6v3.4h-0.4v-3h-1.8v3h-0.4V506.9z"/>
	<path class="st11" d="M-318.7,506.9h2.1v3.4h-0.4v-3h-1.2v1.7c0,0.4,0,0.6,0,0.8s-0.1,0.3-0.2,0.4c-0.1,0.1-0.2,0.1-0.4,0.1
		c-0.1,0-0.2,0-0.4-0.1l0.1-0.4c0.1,0,0.1,0,0.2,0c0.1,0,0.2,0,0.2-0.1c0.1-0.1,0.1-0.3,0.1-0.5V506.9z"/>
	<path class="st11" d="M-316,510.3l1.3-3.4h0.5l1.4,3.4h-0.5l-0.4-1h-1.4l-0.4,1H-316z M-315,508.9h1.1l-0.4-0.9
		c-0.1-0.3-0.2-0.5-0.2-0.7c0,0.2-0.1,0.4-0.2,0.6L-315,508.9z"/>
	<path class="st11" d="M-311.8,510.3v-3h-1.1v-0.4h2.7v0.4h-1.1v3H-311.8z"/>
	<path class="st11" d="M-309.5,510.3v-3.4h2.4v0.4h-2v1h1.9v0.4h-1.9v1.1h2.1v0.4H-309.5z"/>
	<path class="st11" d="M-304.1,506.9v1.5c0.2,0,0.4,0,0.5-0.1c0.1-0.1,0.2-0.3,0.3-0.6c0.1-0.2,0.2-0.4,0.2-0.5
		c0.1-0.1,0.1-0.2,0.3-0.2c0.1-0.1,0.2-0.1,0.4-0.1c0.1,0,0.2,0,0.3,0v0.4c0,0,0,0-0.1,0c0,0-0.1,0-0.1,0c-0.1,0-0.2,0-0.3,0.1
		c-0.1,0.1-0.2,0.2-0.2,0.4c-0.1,0.2-0.2,0.4-0.3,0.5c-0.1,0.1-0.2,0.2-0.3,0.2c0.2,0.1,0.4,0.3,0.6,0.6l0.7,1.1h-0.6l-0.6-0.9
		c-0.2-0.2-0.3-0.4-0.4-0.5c-0.1-0.1-0.2-0.1-0.4-0.1v1.6h-0.5v-1.6c-0.1,0-0.3,0-0.4,0.1s-0.2,0.2-0.4,0.5l0,0l-0.6,0.9h-0.6
		l0.7-1.1c0.2-0.3,0.4-0.5,0.6-0.6c-0.1,0-0.2-0.1-0.3-0.2c-0.1-0.1-0.2-0.3-0.3-0.5c-0.1-0.2-0.2-0.4-0.2-0.5s-0.2-0.1-0.3-0.1
		l-0.2,0v-0.4c0,0,0.1,0,0.3,0c0.1,0,0.3,0,0.4,0.1c0.1,0.1,0.2,0.1,0.3,0.2c0.1,0.1,0.1,0.2,0.2,0.5c0.1,0.3,0.2,0.5,0.3,0.6
		c0.1,0.1,0.2,0.1,0.5,0.1v-1.5H-304.1z"/>
	<path class="st11" d="M-301.6,510.3v-3.4h2.4v0.4h-2v1h1.9v0.4h-1.9v1.1h2.1v0.4H-301.6z"/>
	<path class="st11" d="M-298.2,506.9h0.4v2.7l1.8-2.7h0.4v3.4h-0.4v-2.7l-1.8,2.7h-0.4V506.9z M-296.5,506.1h0.3
		c0,0.2-0.1,0.3-0.2,0.4c-0.1,0.1-0.3,0.2-0.5,0.2c-0.2,0-0.4-0.1-0.5-0.2s-0.2-0.2-0.2-0.4h0.3c0,0.1,0.1,0.2,0.1,0.2
		c0.1,0.1,0.1,0.1,0.3,0.1c0.1,0,0.2,0,0.3-0.1S-296.5,506.2-296.5,506.1z"/>
</g>
</svg>
