<?xml version="1.0" encoding="UTF-8"?>
<!-- Generator: Adobe Illustrator 19.0.0, SVG Export Plug-In . SVG Version: 6.00 Build 0)  -->
<svg version="1.1" id="Layer_1" xmlns="http://www.w3.org/2000/svg" xmlns:xlink="http://www.w3.org/1999/xlink" x="0px" y="0px" viewBox="-24 71 150 60" enable-background="new -24 71 150 60" xml:space="preserve">
<g>
	<g>
		<path fill="#2C3E50" d="M21.6,105.3V92.6h3.3v12.7H21.6z"/>
		<path fill="#2C3E50" d="M27.3,96.4c0-1.4-0.1-2.6-0.1-3.8h2.9l0.2,1.4h0.1c0.7-1,1.7-1.7,3.1-1.7c2.4,0,3.3,2,3.3,4.8v8.2h-3.3    v-7.9c0-1.1-0.3-2.1-1.2-2.1c-0.6,0-1,0.4-1.3,1.1c-0.1,0.3-0.2,0.7-0.2,1.2v7.7h-3.3L27.3,96.4L27.3,96.4z"/>
		<path fill="#2C3E50" d="M42.9,89.2v3.4h2.5V95h-2.5v5.8c0,1.4,0.6,1.9,1.3,1.9c0.3,0,0.6,0,0.9-0.1v2.6c-0.4,0.2-1.1,0.3-2,0.3    s-1.8-0.3-2.4-0.8c-0.7-0.7-1.1-1.6-1.1-3.7v-6h-1.4v-2.4h1.4V90L42.9,89.2z"/>
		<path fill="#2C3E50" d="M49.5,100.2c0.1,2,1.2,2.7,2.6,2.7c0.9,0,1.8-0.2,2.4-0.4l0.4,2.5c-0.9,0.3-2.1,0.6-3.4,0.6    c-3.4,0-5.2-2.3-5.2-6.3c0-4.3,2.1-6.8,4.9-6.8c2.6,0,4.3,2.1,4.3,6c0,0.9,0,1.4-0.1,1.8L49.5,100.2L49.5,100.2z M52.4,97.8    c0-1.6-0.4-2.9-1.4-2.9c-1.1,0-1.5,1.6-1.5,2.9H52.4z"/>
		<path fill="#2C3E50" d="M57.3,96.4c0-1.3-0.1-2.6-0.1-3.8h2.9l0.2,1.9h0.1c0.6-1.4,1.5-2,2.5-2c0.3,0,0.5,0,0.7,0.1v3.4    c-0.2-0.1-0.4-0.1-0.7-0.1c-0.7,0-1.6,0.5-2,1.8c-0.1,0.3-0.1,0.8-0.1,1.3v6.5h-3.3L57.3,96.4L57.3,96.4z"/>
		<path fill="#13A753" d="M68.1,98.2L68.1,98.2c0.3-0.8,0.4-1.3,0.7-1.8l1.6-3.8H74l-3,5.4l3.1,7.4h-3.7l-1.8-5.2l-0.6,1.1v4.2h-3.3    V87.3H68L68.1,98.2L68.1,98.2z"/>
		<path fill="#13A753" d="M81.1,105.3l-0.2-1.3h-0.1c-0.7,1-1.6,1.4-2.7,1.4c-1.9,0-3.2-1.6-3.2-3.8c0-3.3,2.9-4.7,5.7-4.8v-0.2    c0-1-0.6-1.7-1.8-1.7c-1,0-1.8,0.3-2.6,0.8l-0.6-2.3c0.7-0.4,2.1-0.9,3.8-0.9c3.7,0,4.4,2.7,4.4,5.3v4.8c0,1,0.1,2,0.2,2.9    L81.1,105.3L81.1,105.3z M80.7,99.1c-1.1,0-2.6,0.4-2.6,2.1c0,1.3,0.7,1.7,1.2,1.7s1.1-0.3,1.4-1.1c0.1-0.2,0.1-0.4,0.1-0.6V99.1    L80.7,99.1z"/>
		<path fill="#13A753" d="M86.2,102.2c0.5,0.3,1.4,0.7,2.2,0.7c0.9,0,1.4-0.4,1.4-1.1c0-0.7-0.3-1.1-1.4-1.7c-2-1.2-2.6-2.5-2.6-3.7    c0-2.3,1.6-4,4.1-4c1,0,1.9,0.3,2.6,0.6l-0.6,2.5c-0.5-0.3-1.1-0.5-1.7-0.5c-0.9,0-1.3,0.5-1.3,1.1c0,0.6,0.3,0.9,1.4,1.6    c1.8,1.1,2.6,2.4,2.6,3.8c0,2.6-1.8,4-4.4,4c-1,0-2.3-0.3-2.8-0.8L86.2,102.2z"/>
		<path fill="#13A753" d="M94.4,102.2c0.5,0.3,1.4,0.7,2.2,0.7s1.4-0.4,1.4-1.1c0-0.7-0.3-1.1-1.4-1.7c-2-1.2-2.6-2.5-2.6-3.7    c0-2.3,1.6-4,4.1-4c1,0,1.9,0.3,2.6,0.6l-0.6,2.5c-0.5-0.3-1.1-0.5-1.7-0.5c-0.9,0-1.3,0.5-1.3,1.1c0,0.6,0.3,0.9,1.4,1.6    c1.8,1.1,2.6,2.4,2.6,3.8c0,2.6-1.8,4-4.4,4c-1,0-2.3-0.3-2.8-0.8L94.4,102.2z"/>
		<path fill="#13A753" d="M108.3,105.3l-0.2-1.3h-0.1c-0.7,1-1.6,1.4-2.7,1.4c-1.9,0-3.2-1.6-3.2-3.8c0-3.3,2.9-4.7,5.7-4.8v-0.2    c0-1-0.6-1.7-1.8-1.7c-1,0-1.8,0.3-2.6,0.8l-0.6-2.3c0.7-0.4,2.1-0.9,3.8-0.9c3.7,0,4.4,2.7,4.4,5.3v4.8c0,1,0.1,2,0.2,2.9    L108.3,105.3L108.3,105.3z M107.8,99.1c-1.1,0-2.6,0.4-2.6,2.1c0,1.3,0.7,1.7,1.2,1.7s1.1-0.3,1.4-1.1c0.1-0.2,0.1-0.4,0.1-0.6    V99.1L107.8,99.1z"/>
	</g>
	<path fill="#64BB4B" d="M-13.6,113.8v4.3c0,0,6.9,6.2,14.2,6.2s13.6-6.2,13.6-6.2v-4.2c0,0-6.6,4.1-13.5,4.1   C-6.4,117.8-13.6,113.8-13.6,113.8z"/>
	<path fill="#13A753" d="M14.1,98.2V98l0,0C14,90.5,7.8,84.5,0.3,84.5c-7.6,0-13.7,6-13.9,13.5l0,0v13.5c0,0,6.1,3.8,14.5,3.8   c7.9,0,13.3-3.8,13.3-3.8V98.7c0-0.1,0-0.2,0-0.3C14.1,98.4,14.1,98.3,14.1,98.2z"/>
	<g>
		<circle fill="#FFFFFF" cx="0.8" cy="100.4" r="5.1"/>
		<path fill="#FFFFFF" d="M7.9,114.3c-0.3-4.4-3.4-7.9-7.1-7.9c-3.8,0-6.9,3.6-7.1,8.1c-4.3-1.2-7.2-2.9-7.2-2.9v2.3    c0,0,7.6,4.3,14.5,4.3c6.8,0,13.4-4,13.4-4v-2.6C14.2,111.5,10.9,113.4,7.9,114.3z"/>
	</g>
	<g>
		<path fill="#58595B" d="M22.1,111.7c0-0.5,0-0.9,0-1.2h0.6v0.6l0,0c0.3-0.4,0.7-0.7,1.3-0.7c0.9,0,1.5,0.8,1.5,1.9    c0,1.3-0.8,2-1.7,2c-0.5,0-0.9-0.2-1.1-0.6l0,0v2H22L22.1,111.7L22.1,111.7z M22.7,112.7c0,0.1,0,0.2,0,0.3c0.1,0.4,0.5,0.8,1,0.8    c0.7,0,1.1-0.6,1.1-1.4c0-0.8-0.4-1.4-1.1-1.4c-0.4,0-0.9,0.3-1,0.9c0,0.1-0.1,0.2-0.1,0.3L22.7,112.7L22.7,112.7z"/>
		<path fill="#58595B" d="M28.4,114.2l-0.1-0.4l0,0c-0.2,0.3-0.6,0.5-1.1,0.5c-0.8,0-1.1-0.5-1.1-1c0-0.9,0.8-1.4,2.2-1.4v-0.1    c0-0.3-0.1-0.9-0.9-0.9c-0.3,0-0.7,0.1-0.9,0.3l-0.2-0.4c0.3-0.2,0.8-0.3,1.2-0.3c1.1,0,1.4,0.8,1.4,1.5v1.4c0,0.3,0,0.6,0.1,0.9    L28.4,114.2L28.4,114.2z M28.3,112.3c-0.8,0-1.5,0.1-1.5,0.9c0,0.4,0.3,0.6,0.6,0.6c0.5,0,0.8-0.3,0.9-0.6c0-0.1,0-0.2,0-0.2    L28.3,112.3L28.3,112.3z"/>
		<path fill="#58595B" d="M30.2,110.5l0.8,2.1c0.1,0.3,0.2,0.5,0.3,0.8l0,0c0.1-0.3,0.2-0.5,0.3-0.8l0.8-2.1h0.7l-1,2.6    c-0.5,1.3-0.8,1.9-1.3,2.3c-0.3,0.3-0.7,0.4-0.9,0.4l-0.2-0.6c0.2-0.1,0.4-0.2,0.6-0.3c0.2-0.2,0.4-0.4,0.6-0.8    c0-0.1,0.1-0.1,0.1-0.2c0,0,0-0.1-0.1-0.2l-1.4-3.4L30.2,110.5L30.2,110.5z"/>
		<path fill="#58595B" d="M33.5,111.6c0-0.3,0-0.7,0-1h0.6v0.6l0,0c0.2-0.3,0.5-0.7,1.2-0.7c0.5,0,0.9,0.3,1,0.8l0,0    c0.1-0.2,0.3-0.3,0.4-0.5c0.3-0.2,0.4-0.3,0.9-0.3c0.5,0,1.2,0.3,1.2,1.6v2.1h-0.7v-2c0-0.7-0.3-1.1-0.8-1.1    c-0.3,0-0.7,0.3-0.8,0.6c0,0.1-0.1,0.2-0.1,0.3v2.3h-0.7V112c0-0.6-0.3-1-0.8-1c-0.4,0-0.7,0.3-0.9,0.7c0,0.1-0.1,0.2-0.1,0.3v2.2    h-0.7L33.5,111.6L33.5,111.6z"/>
		<path fill="#58595B" d="M40.2,112.5c0,0.9,0.6,1.3,1.3,1.3c0.5,0,0.8-0.1,1-0.2l0.1,0.5c-0.3,0.1-0.6,0.3-1.2,0.3    c-1.1,0-1.8-0.8-1.8-1.9s0.7-2,1.7-2c1.2,0,1.5,1,1.5,1.7c0,0.2,0,0.3,0,0.3L40.2,112.5L40.2,112.5z M42.1,112    c0-0.4-0.2-1.1-0.9-1.1c-0.7,0-0.9,0.6-1,1.1H42.1z"/>
		<path fill="#58595B" d="M43.7,111.6c0-0.3,0-0.7,0-1h0.6v0.6l0,0c0.2-0.3,0.6-0.7,1.2-0.7c0.5,0,1.3,0.3,1.3,1.5v2.2H46v-2.1    c0-0.6-0.3-1.1-0.9-1.1c-0.4,0-0.8,0.3-0.9,0.7c0,0.1-0.1,0.2-0.1,0.3v2.2h-0.7L43.7,111.6L43.7,111.6z"/>
		<path fill="#58595B" d="M48.6,109.5v1h0.9v0.5h-0.9v2c0,0.4,0.2,0.7,0.5,0.7c0.2,0,0.3,0,0.4-0.1v0.5c-0.2,0.1-0.3,0.1-0.6,0.1    c-0.3,0-0.6-0.1-0.7-0.3c-0.2-0.2-0.3-0.5-0.3-0.9v-2h-0.6v-0.5H48v-0.9L48.6,109.5z"/>
		<path fill="#58595B" d="M54,114.2l-0.1-0.4l0,0c-0.2,0.3-0.6,0.5-1.1,0.5c-0.8,0-1.1-0.5-1.1-1c0-0.9,0.8-1.4,2.2-1.4v-0.1    c0-0.3-0.1-0.9-0.9-0.9c-0.3,0-0.7,0.1-0.9,0.3l-0.2-0.4c0.3-0.2,0.8-0.3,1.2-0.3c1.1,0,1.4,0.8,1.4,1.5v1.4c0,0.3,0,0.6,0.1,0.9    L54,114.2L54,114.2z M53.9,112.3c-0.8,0-1.5,0.1-1.5,0.9c0,0.4,0.3,0.6,0.6,0.6c0.5,0,0.8-0.3,0.9-0.6c0-0.1,0-0.2,0-0.2    L53.9,112.3L53.9,112.3z"/>
		<path fill="#58595B" d="M58.1,114c-0.2,0.1-0.6,0.2-1,0.2c-1.1,0-1.8-0.8-1.8-1.9c0-1.1,0.8-2,2-2c0.4,0,0.8,0.1,0.9,0.2L58,111    c-0.2-0.1-0.4-0.2-0.8-0.2c-0.9,0-1.3,0.6-1.3,1.4c0,0.9,0.5,1.4,1.3,1.4c0.3,0,0.6-0.1,0.9-0.2L58.1,114z"/>
		<path fill="#58595B" d="M61.5,114c-0.2,0.1-0.6,0.2-1,0.2c-1.1,0-1.8-0.8-1.8-1.9c0-1.1,0.8-2,2-2c0.4,0,0.8,0.1,0.9,0.2l-0.2,0.5    c-0.2-0.1-0.4-0.2-0.8-0.2c-0.9,0-1.3,0.6-1.3,1.4c0,0.9,0.5,1.4,1.3,1.4c0.3,0,0.6-0.1,0.9-0.2L61.5,114z"/>
		<path fill="#58595B" d="M62.6,112.5c0,0.9,0.6,1.3,1.3,1.3c0.5,0,0.8-0.1,1-0.2l0.1,0.5c-0.3,0.1-0.6,0.3-1.2,0.3    c-1.1,0-1.8-0.8-1.8-1.9s0.7-2,1.7-2c1.2,0,1.5,1,1.5,1.7c0,0.2,0,0.3,0,0.3L62.6,112.5L62.6,112.5z M64.6,112    c0-0.4-0.2-1.1-0.9-1.1c-0.7,0-0.9,0.6-1,1.1H64.6z"/>
		<path fill="#58595B" d="M66,111.7c0-0.5,0-0.9,0-1.2h0.6v0.6l0,0c0.3-0.4,0.7-0.7,1.3-0.7c0.9,0,1.5,0.8,1.5,1.9    c0,1.3-0.8,2-1.7,2c-0.5,0-0.9-0.2-1.1-0.6l0,0v2H66L66,111.7L66,111.7z M66.7,112.7c0,0.1,0,0.2,0,0.3c0.1,0.4,0.5,0.8,1,0.8    c0.7,0,1.1-0.6,1.1-1.4c0-0.8-0.4-1.4-1.1-1.4c-0.4,0-0.9,0.3-1,0.9c0,0.1-0.1,0.2-0.1,0.3L66.7,112.7L66.7,112.7z"/>
		<path fill="#58595B" d="M71.1,109.5v1h0.9v0.5h-0.9v2c0,0.4,0.2,0.7,0.5,0.7c0.2,0,0.3,0,0.4-0.1v0.5c-0.2,0.1-0.3,0.1-0.6,0.1    c-0.3,0-0.6-0.1-0.7-0.3c-0.2-0.2-0.3-0.5-0.3-0.9v-2H70v-0.5h0.6v-0.9L71.1,109.5z"/>
		<path fill="#58595B" d="M74.9,114.2l-0.1-0.4l0,0c-0.2,0.3-0.6,0.5-1.1,0.5c-0.8,0-1.1-0.5-1.1-1c0-0.9,0.8-1.4,2.2-1.4v-0.1    c0-0.3-0.1-0.9-0.9-0.9c-0.3,0-0.7,0.1-0.9,0.3l-0.2-0.4c0.3-0.2,0.8-0.3,1.2-0.3c1.1,0,1.4,0.8,1.4,1.5v1.4c0,0.3,0,0.6,0.1,0.9    L74.9,114.2L74.9,114.2z M74.8,112.3c-0.8,0-1.5,0.1-1.5,0.9c0,0.4,0.3,0.6,0.6,0.6c0.5,0,0.8-0.3,0.9-0.6c0-0.1,0-0.2,0-0.2    L74.8,112.3L74.8,112.3z"/>
		<path fill="#58595B" d="M76.5,111.6c0-0.3,0-0.7,0-1h0.6v0.6l0,0c0.2-0.3,0.6-0.7,1.2-0.7c0.5,0,1.3,0.3,1.3,1.5v2.2h-0.7v-2.1    c0-0.6-0.3-1.1-0.9-1.1c-0.4,0-0.8,0.3-0.9,0.7c0,0.1-0.1,0.2-0.1,0.3v2.2h-0.7L76.5,111.6L76.5,111.6z"/>
		<path fill="#58595B" d="M83.3,114c-0.2,0.1-0.6,0.2-1,0.2c-1.1,0-1.8-0.8-1.8-1.9c0-1.1,0.8-2,2-2c0.4,0,0.8,0.1,0.9,0.2l-0.2,0.5    c-0.2-0.1-0.4-0.2-0.8-0.2c-0.9,0-1.3,0.6-1.3,1.4c0,0.9,0.5,1.4,1.3,1.4c0.3,0,0.6-0.1,0.9-0.2L83.3,114z"/>
		<path fill="#58595B" d="M84.4,112.5c0,0.9,0.6,1.3,1.3,1.3c0.5,0,0.8-0.1,1-0.2l0.1,0.5c-0.3,0.1-0.6,0.3-1.2,0.3    c-1.1,0-1.8-0.8-1.8-1.9s0.7-2,1.7-2c1.2,0,1.5,1,1.5,1.7c0,0.2,0,0.3,0,0.3L84.4,112.5L84.4,112.5z M86.4,112    c0-0.4-0.2-1.1-0.9-1.1c-0.7,0-0.9,0.6-1,1.1H86.4z"/>
		<path fill="#58595B" d="M89.4,113.5c0.2,0.2,0.5,0.3,0.9,0.3c0.5,0,0.7-0.3,0.7-0.5c0-0.3-0.2-0.5-0.7-0.7c-0.7-0.3-0.9-0.6-0.9-1    c0-0.6,0.5-1.1,1.3-1.1c0.3,0,0.7,0.1,0.9,0.3l-0.2,0.5c-0.2-0.1-0.4-0.2-0.8-0.2c-0.4,0-0.6,0.3-0.6,0.5c0,0.3,0.3,0.4,0.7,0.6    c0.6,0.3,0.9,0.6,0.9,1.1c0,0.7-0.5,1.1-1.4,1.1c-0.4,0-0.8-0.1-1-0.3L89.4,113.5z"/>
		<path fill="#58595B" d="M92.7,110.5l0.8,2.1c0.1,0.3,0.2,0.5,0.3,0.8l0,0c0.1-0.3,0.2-0.5,0.3-0.8l0.8-2.1h0.7l-1,2.6    c-0.5,1.3-0.8,1.9-1.3,2.3c-0.3,0.3-0.7,0.4-0.9,0.4l-0.2-0.6c0.2-0.1,0.4-0.2,0.6-0.3c0.2-0.2,0.4-0.4,0.6-0.8    c0-0.1,0.1-0.1,0.1-0.2c0,0,0-0.1-0.1-0.2l-1.4-3.4L92.7,110.5L92.7,110.5z"/>
		<path fill="#58595B" d="M95.9,113.5c0.2,0.2,0.5,0.3,0.9,0.3c0.5,0,0.7-0.3,0.7-0.5c0-0.3-0.2-0.5-0.7-0.7c-0.7-0.3-0.9-0.6-0.9-1    c0-0.6,0.5-1.1,1.3-1.1c0.3,0,0.7,0.1,0.9,0.3l-0.2,0.5c-0.2-0.1-0.4-0.2-0.8-0.2c-0.4,0-0.6,0.3-0.6,0.5c0,0.3,0.3,0.4,0.7,0.6    c0.6,0.3,0.9,0.6,0.9,1.1c0,0.7-0.5,1.1-1.4,1.1c-0.4,0-0.8-0.1-1-0.3L95.9,113.5z"/>
		<path fill="#58595B" d="M99.7,109.5v1h0.9v0.5h-0.9v2c0,0.4,0.2,0.7,0.5,0.7c0.2,0,0.3,0,0.4-0.1v0.5c-0.2,0.1-0.3,0.1-0.6,0.1    c-0.3,0-0.6-0.1-0.7-0.3c-0.2-0.2-0.3-0.5-0.3-0.9v-2h-0.6v-0.5h0.6v-0.9L99.7,109.5z"/>
		<path fill="#58595B" d="M101.8,112.5c0,0.9,0.6,1.3,1.3,1.3c0.5,0,0.8-0.1,1-0.2l0.1,0.5c-0.3,0.1-0.6,0.3-1.2,0.3    c-1.1,0-1.8-0.8-1.8-1.9s0.7-2,1.7-2c1.2,0,1.5,1,1.5,1.7c0,0.2,0,0.3,0,0.3L101.8,112.5L101.8,112.5z M103.7,112    c0-0.4-0.2-1.1-0.9-1.1c-0.7,0-0.9,0.6-1,1.1H103.7z"/>
		<path fill="#58595B" d="M105.2,111.6c0-0.3,0-0.7,0-1h0.6v0.6l0,0c0.2-0.3,0.5-0.7,1.2-0.7c0.5,0,0.9,0.3,1,0.8l0,0    c0.1-0.2,0.3-0.3,0.4-0.5c0.3-0.2,0.4-0.3,0.9-0.3c0.5,0,1.2,0.3,1.2,1.6v2.1h-0.7v-2c0-0.7-0.3-1.1-0.8-1.1    c-0.3,0-0.7,0.3-0.8,0.6c0,0.1-0.1,0.2-0.1,0.3v2.3h-0.7V112c0-0.6-0.3-1-0.8-1c-0.4,0-0.7,0.3-0.9,0.7c0,0.1-0.1,0.2-0.1,0.3v2.2    h-0.7L105.2,111.6L105.2,111.6z"/>
	</g>
</g>
</svg>