<?xml version="1.0" encoding="utf-8"?>
<!-- Generator: Adobe Illustrator 20.1.0, SVG Export Plug-In . SVG Version: 6.00 Build 0)  -->
<svg version="1.1" id="Layer_1" xmlns="http://www.w3.org/2000/svg" xmlns:xlink="http://www.w3.org/1999/xlink" x="0px" y="0px"
	 viewBox="0 0 64 38" style="enable-background:new 0 0 64 38;" xml:space="preserve">
<style type="text/css">
	.st0{fill-rule:evenodd;clip-rule:evenodd;fill:#33006F;}
	.st1{fill-rule:evenodd;clip-rule:evenodd;fill:#4E9D2D;}
</style>
<g>
	<path class="st0" d="M26,21.2v-1h3.3v-1.1H26v-0.8c0-0.1,0-0.1,0.1-0.1h3.3v-1.1h-3.9c-0.5,0-0.8,0.3-0.8,0.9v3.7
		c0,0.6,0.3,0.9,0.8,0.9h4v-1.1h-3.4C26,21.3,26,21.3,26,21.2L26,21.2z"/>
	<path class="st0" d="M35.3,18.2v-1.1h-3.9c-0.5,0-0.8,0.3-0.8,0.9v4.5h1.3v-4.1c0-0.1,0-0.1,0.1-0.1H35.3L35.3,18.2z"/>
	<path class="st0" d="M46.6,16.2c-0.1,0-0.3,0-0.4,0h-2.5c-0.2,0-0.3,0-0.4,0c-1.7,0.1-2.3,1-2.3,2.8c0,1.7,0.7,2.6,2.3,2.8
		c0.1,0,0.3,0,0.5,0h0.6v0.7h1.3v-0.7h0.6c0.2,0,0.3,0,0.5,0c1.6-0.1,2.3-1.1,2.3-2.8C48.9,17.2,48.3,16.3,46.6,16.2L46.6,16.2z
		 M44.3,20.6h-0.6c-0.2,0-0.3,0-0.4,0c-0.8-0.1-1-0.7-1-1.6c0-1,0.2-1.5,1-1.6c0.1,0,0.3,0,0.5,0h0.6V20.6L44.3,20.6z M46.6,20.6
		c-0.1,0-0.3,0-0.4,0h-0.6v-3.3h0.6c0.2,0,0.3,0,0.5,0c0.8,0.1,1,0.7,1,1.6C47.6,19.9,47.4,20.5,46.6,20.6L46.6,20.6z"/>
	<path class="st0" d="M22.3,16.1c-0.6,0-1,0.3-1.3,1l-1.7,4.1l-1.7-4.1c-0.3-0.7-0.7-1-1.3-1c-0.7,0-1.2,0.4-1.2,1.4v5h1.3v-4.9
		l1.8,4.1c0.2,0.6,0.6,0.9,1.1,0.9c0.5,0,0.9-0.3,1.1-0.9l1.8-4.1v4.9h1.3v-5C23.4,16.5,23,16.1,22.3,16.1L22.3,16.1z"/>
	<path class="st0" d="M53.2,17h-0.5c-2,0-2.8,0.9-2.8,2.8c0,1.9,0.8,2.8,2.8,2.8h0.4c2,0,2.8-0.9,2.8-2.8C56,17.9,55.2,17,53.2,17
		L53.2,17z M53.2,21.4h-0.5c-1.1,0-1.5-0.5-1.5-1.7c0-1.1,0.3-1.7,1.5-1.7h0.4c1.2,0,1.5,0.5,1.5,1.7C54.7,20.9,54.4,21.4,53.2,21.4
		L53.2,21.4z"/>
	<path class="st0" d="M37.7,16.9C37.6,16.9,37.6,16.9,37.7,16.9c-0.5,0-0.9,0.2-1.1,0.7l-1.7,3.8l-0.4,1h0.4h1l0.5-1.2H39l0.5,1.2
		h1.4l-2.1-4.8C38.5,17.2,38.1,16.9,37.7,16.9L37.7,16.9z M36.7,20.2l0.8-1.9c0.1-0.1,0.2-0.1,0.2,0l0.8,1.9H36.7L36.7,20.2z"/>
	<polygon class="st0" points="61.1,17.1 61.1,19.1 58.3,19.1 58.3,17.1 57.1,17.1 57.1,22.5 58.3,22.5 58.3,20.3 61.1,20.3 
		61.1,22.5 62.3,22.5 62.3,17.1 61.1,17.1 	"/>
	<path class="st1" d="M7,13.4c-3.3,0-5.9,2.7-5.9,5.9c0,2.9,2.1,5.3,4.9,5.8V20c0-0.2,0.2-0.4,0.4-0.4h0.8c0,0,0,0,0,0v-6.1
		C7.1,13.4,7.1,13.4,7,13.4L7,13.4z M5.9,18.5c-0.4,0-0.7-0.3-0.7-0.7c0-0.4,0.3-0.7,0.7-0.7c0.4,0,0.7,0.3,0.7,0.7
		C6.5,18.2,6.2,18.5,5.9,18.5L5.9,18.5z"/>
	<path class="st0" d="M7.9,13.5v6.3c0,0.2-0.2,0.4-0.4,0.4H6.7c0,0,0,0,0,0v5c0.1,0,0.2,0,0.4,0c3.3,0,5.9-2.7,5.9-5.9
		C12.9,16.4,10.7,13.9,7.9,13.5L7.9,13.5z M7.9,22.4c-0.3,0-0.6-0.3-0.6-0.6c0-0.3,0.3-0.6,0.6-0.6c0.3,0,0.6,0.3,0.6,0.6
		C8.5,22.1,8.2,22.4,7.9,22.4L7.9,22.4z M9.5,22.4c-0.3,0-0.6-0.3-0.6-0.6c0-0.3,0.3-0.6,0.6-0.6c0.3,0,0.6,0.3,0.6,0.6
		C10.2,22.1,9.9,22.4,9.5,22.4L9.5,22.4z M11.2,22.4c-0.3,0-0.6-0.3-0.6-0.6c0-0.3,0.3-0.6,0.6-0.6c0.3,0,0.6,0.3,0.6,0.6
		C11.8,22.1,11.5,22.4,11.2,22.4L11.2,22.4z"/>
</g>
</svg>
