<?xml version="1.0" encoding="utf-8"?>
<!-- Generator: Adobe Illustrator 19.0.0, SVG Export Plug-In . SVG Version: 6.00 Build 0)  -->
<svg version="1.1" id="Layer_1" xmlns="http://www.w3.org/2000/svg" xmlns:xlink="http://www.w3.org/1999/xlink" x="0px" y="0px"
	 viewBox="-467 482 64 38" enable-background="new -467 482 64 38" xml:space="preserve">
<g>
	<path fill="#F68E1F" d="M-440.7,508.2c-0.2-1.1-0.7-1.9-1.4-2.5c-0.2-0.3-0.5-0.4-0.9-0.6c-0.2-0.1-0.3-0.2-0.5-0.2
		c-0.4-0.1-0.8-0.3-1.4-0.2c0.3-0.2,0.7-0.2,1.2-0.1c0.4,0,0.7,0.1,1,0.2c0.3,0.1,0.5,0.3,0.8,0.4c0.7-2,0.4-4.6-0.3-6.3
		c-0.7-1.8-1.7-3.3-3.1-4.5c-1.3-1.2-2.9-2.1-5-2.6c-1-0.2-2.3-0.2-3.3,0c-1,0.3-1.8,0.7-2.5,1.2c-0.7,0.6-1.3,1.2-1.8,2
		c-0.2,0.2-0.2,0.4-0.4,0.6c-0.1,0.2-0.2,0.4-0.3,0.7c-0.2,0.5-0.3,0.9-0.4,1.5c-0.2,1-0.3,2.3-0.1,3.4c0.1,1.1,0.5,2,0.8,2.9
		c0.2,0.4,0.4,0.9,0.7,1.2c0.2,0.4,0.5,0.7,0.8,1.1c0.6,0.7,1.2,1.3,2,1.8c1.5,1,3.3,1.8,5.7,1.9c0-0.1-0.1-0.3-0.1-0.4
		c0-0.1-0.1-0.3-0.1-0.4c0-0.3,0-0.7,0-1c0.1,0,0.1,0.1,0.1,0.2c0.1,0.1,0.1,0.1,0.1,0.2c0.1,0.2,0.2,0.3,0.3,0.4
		c0.2,0.2,0.4,0.5,0.7,0.7c0.2,0.2,0.5,0.4,0.8,0.6c0.3,0.2,0.5,0.3,0.9,0.4c0.6,0.3,1.4,0.4,2.2,0.5c0.8,0.1,1.6,0.2,2.3,0.4
		c0.7,0.2,1.4,0.4,1.9,0.8c0.3,0.2,0.6,0.3,0.8,0.5c0.1,0.1,0.3,0.2,0.4,0.3c0.2,0.1,0.2,0.2,0.4,0.3c0.5,0.4,0.9,0.9,1.3,1.4
		c0.2,0.3,0.4,0.5,0.5,0.9c0.1,0.1,0.1,0.3,0.2,0.4c0,0.2,0.2,0.4,0,0.5c-0.2,0-0.2-0.2-0.3-0.3c-0.1-0.1-0.2-0.2-0.2-0.4
		c-0.3-0.4-0.7-0.8-1-1.1c-0.4-0.3-0.7-0.7-1.2-0.9c-0.8-0.6-1.8-1-2.9-1.3c-1.1-0.3-2.3-0.4-3.8-0.4c-0.6,0.1-1.2,0.2-1.8,0.4
		c-0.6,0.1-1.2,0.2-1.8,0.3c-2.4,0.2-5.1-0.4-7-1.3c-1-0.4-1.9-1-2.6-1.6c-0.4-0.3-0.8-0.7-1.1-1c-0.3-0.4-0.7-0.8-0.9-1.2
		c-0.3-0.4-0.5-0.9-0.8-1.4c-0.2-0.5-0.4-1-0.5-1.6c-0.2-0.5-0.3-1.1-0.4-1.8c0-0.2-0.1-0.5-0.1-0.8c0,0,0,0,0-0.1
		c0-0.3-0.1-0.6,0-0.9c0-0.6,0.1-1.3,0.2-1.9c0.1-0.6,0.3-1.1,0.4-1.7c0.2-0.5,0.4-1,0.6-1.5c0.1-0.2,0.3-0.5,0.4-0.7
		c0.1-0.2,0.3-0.4,0.4-0.7c0.1-0.1,0.1-0.2,0.2-0.3c0-0.1,0.2-0.2,0.2-0.3c0.1-0.1,0.2-0.2,0.2-0.3c0.1-0.1,0.2-0.2,0.2-0.3
		c0.4-0.3,0.7-0.7,1-1.1c0.4-0.3,0.8-0.6,1.2-1c0.2-0.1,0.4-0.3,0.7-0.4c0.2-0.2,0.4-0.2,0.6-0.4c0.5-0.2,0.9-0.5,1.5-0.7
		c0.5-0.2,1-0.4,1.5-0.6c1.1-0.3,2.3-0.5,3.7-0.4c0.1,0,0.1-0.1,0.1,0c2.7,0.1,4.7,0.9,6.3,2c1.7,1.1,2.9,2.6,3.9,4.4
		c0.9,1.8,1.4,4.3,1,6.9c-0.2,1.2-0.6,2.2-1,3.2c-0.2,0.5-0.5,0.9-0.7,1.3c-0.1,0.2-0.3,0.4-0.4,0.6c-0.1,0.1-0.1,0.2-0.2,0.3
		C-440.6,508-440.6,508-440.7,508.2C-440.7,508.1-440.7,508.1-440.7,508.2C-440.7,508.2-440.7,508.2-440.7,508.2z"/>
	<path fill="#F68E1F" d="M-441.5,508.9c-0.3-0.1-0.4-0.6-0.6-0.9c0-0.1-0.1-0.3,0-0.4c0,0,0,0,0.1,0c0.1-0.1,0.2,0,0.3,0.1
		c0.2,0.2,0.3,0.5,0.4,0.7C-441.3,508.6-441.3,508.9-441.5,508.9z"/>
	<path fill="#F68E1F" d="M-444.1,508.4C-444.1,508.4-444,508.4-444.1,508.4c0.6,0.1,0.8,0.4,0.8,1c0,0.3-0.2,0.5-0.5,0.6
		c-0.7,0-1.1-0.6-0.9-1.3C-444.5,508.5-444.4,508.4-444.1,508.4z"/>
	<path fill="#0269B3" d="M-428.1,504.3c0.1,0.4,0.3,0.6,0.5,0.9c0.2,0.2,0.4,0.4,0.7,0.6c0.3,0.2,0.6,0.3,0.9,0.4
		c0.2,0.1,0.3,0.1,0.5,0.1c0.1,0.1,0.3,0.1,0.3,0.3c0,0.2-0.2,0.3-0.4,0.4c-0.2,0-0.5,0-0.7-0.1c-0.5-0.1-0.8-0.2-1.2-0.3
		c-0.7-0.3-1.3-0.7-1.8-1.2c-0.1-0.2-0.2-0.3-0.4-0.5c-0.1-0.2-0.2-0.4-0.3-0.5c-0.9-0.1-1.5-0.5-2-1c-0.5-0.6-0.9-1.2-1-2.1
		c-0.2-0.9-0.1-1.9,0.1-2.7c0.5-1.6,1.5-2.7,3.5-2.8c0.5,0,1,0.1,1.4,0.2c0.4,0.2,0.8,0.4,1.2,0.7c0,0,0,0,0.1,0.1
		c0.1,0.1,0.2,0.2,0.3,0.4c0,0,0,0.1,0,0.1c0,0,0.1,0.1,0.1,0.1c0,0,0,0.1,0,0.1c0,0,0.1,0.1,0.1,0.1c0,0,0.1,0,0.1,0.1
		c0.1,0.1,0.1,0.2,0.1,0.3c0,0.1,0.1,0.2,0.1,0.3c0.1,0.3,0.2,0.7,0.2,1.2c0.1,1.2-0.1,2.3-0.6,3.1c-0.2,0.4-0.5,0.8-0.8,1
		C-427.2,503.9-427.7,504.1-428.1,504.3z M-429.5,496.8c-0.3,0-0.4,0.1-0.6,0.2c-0.1,0.1-0.3,0.2-0.4,0.4c-0.2,0.1-0.2,0.3-0.4,0.4
		c-0.1,0.3-0.2,0.6-0.3,1c-0.1,0.4-0.1,0.8-0.1,1.2c0,1,0.2,2,0.6,2.6c0.2,0.3,0.5,0.5,0.9,0.7c0.2,0,0.4,0.1,0.6,0.1
		c0.1,0,0.3,0,0.4-0.1c0.2,0,0.2-0.1,0.4-0.1c0.1-0.1,0.2-0.2,0.3-0.2c0.1-0.1,0.2-0.2,0.3-0.4c0.1-0.1,0.1-0.2,0.2-0.3
		c0.5-1,0.6-2.8,0.2-4c-0.1-0.4-0.3-0.8-0.5-1c-0.2-0.2-0.5-0.4-0.8-0.6C-428.9,496.9-429.1,496.8-429.5,496.8
		C-429.5,496.8-429.5,496.8-429.5,496.8C-429.5,496.8-429.5,496.8-429.5,496.8z"/>
	<path fill="#0269B3" d="M-423.2,496c0.5,0,1,0,1.4,0c0.1,0.1,0.1,0.3,0.1,0.5c0,2.2,0,4.5,0,6.8c0,0.2,0,0.4,0,0.5
		c0,0.1,0,0.3-0.1,0.4c-0.2,0.1-0.5,0-0.8,0c-0.3,0-0.6,0-0.7-0.1C-423.4,501.6-423.4,498.7-423.2,496
		C-423.3,496.1-423.3,496-423.2,496z"/>
	<path fill="#0269B3" d="M-419.7,496c0.5,0,0.9,0,1.4,0c0.1,0.2,0.2,0.4,0.2,0.7c0.4,1.6,0.8,3.2,1.2,4.8c0.1,0,0.1-0.1,0.1-0.1
		c0,0,0-0.1,0.1-0.2c0-0.1,0.1-0.2,0.1-0.4c0.1-0.2,0.1-0.5,0.2-0.7c0.1-0.5,0.3-0.9,0.4-1.4c0.1-0.5,0.3-0.9,0.4-1.4
		c0.2-0.4,0.2-1,0.5-1.3c0.2,0,0.4,0,0.6,0c0.2,0.4,0.3,0.9,0.5,1.4c0.1,0.5,0.3,0.9,0.4,1.4c0.3,0.9,0.6,1.8,0.9,2.8
		c0.1-0.2,0.1-0.5,0.2-0.7c0.1-0.2,0.1-0.5,0.2-0.7c0.2-0.9,0.4-1.9,0.7-2.8c0.1-0.5,0.2-1,0.4-1.4c0.3,0,0.9,0,1.2,0
		c0,0.3-0.1,0.7-0.2,1c-0.1,0.4-0.2,0.7-0.3,1c-0.2,0.7-0.4,1.4-0.6,2.1c-0.2,0.7-0.4,1.4-0.6,2.1c-0.1,0.3-0.2,0.7-0.3,1
		c-0.1,0.3-0.2,0.7-0.3,1c-0.3,0-0.6,0-0.8,0c-0.2-0.4-0.3-0.9-0.5-1.3c-0.4-1.3-0.9-2.6-1.3-3.9c-0.1,0.1-0.1,0.4-0.2,0.6
		c-0.1,0.2-0.1,0.4-0.2,0.7c-0.1,0.5-0.3,0.8-0.4,1.3c-0.2,0.4-0.3,0.9-0.4,1.3c-0.2,0.4-0.2,0.9-0.4,1.2c-0.2,0.1-0.6,0-0.8,0
		c-0.2-0.2-0.2-0.7-0.4-1c-0.1-0.3-0.2-0.7-0.3-1c-0.2-0.7-0.4-1.4-0.6-2.1c-0.2-0.7-0.4-1.4-0.6-2.1c-0.1-0.3-0.2-0.7-0.3-1
		C-419.6,496.8-419.8,496.5-419.7,496C-419.7,496-419.7,496-419.7,496z"/>
	<path fill="#0269B3" d="M-407.9,496c0.5,0,1,0,1.4,0c0.1,0.3,0.1,0.6,0.1,1c0,2,0,4.2,0,6.2c0,0.3,0,0.7-0.1,1c-0.3,0-0.8,0-1.2,0
		c-0.1,0-0.3,0-0.3-0.1c-0.1-0.3-0.1-0.6-0.1-1c0-2,0-4.1,0-6.2C-408.1,496.7-408.1,496.3-407.9,496C-408,496-408,496-407.9,496z"/>
	<path fill="#0269B3" d="M-416.3,507.7c0.2,0.1,0.4,0.2,0.5,0.3c0.1,0.2,0.2,0.5,0.1,0.7c-0.3,0.5-1.2,0.6-1.9,0.4
		c0-0.9,0-1.8,0-2.7c0.2-0.1,0.5-0.1,0.8-0.1c0.2,0,0.4,0.1,0.6,0.1c0.2,0.1,0.4,0.4,0.3,0.8C-416,507.5-416.1,507.6-416.3,507.7z
		 M-416.3,507.3c0.1-0.6-0.4-0.7-0.9-0.6c0,0.3,0,0.6,0,1C-416.7,507.7-416.4,507.6-416.3,507.3z M-416.1,508.7
		c0.2-0.6-0.4-0.9-1-0.8c-0.1,0.3,0,0.7,0,1.1C-416.7,509-416.3,509-416.1,508.7z"/>
	<path fill="#0269B3" d="M-423,506.4c0.1,0.3,0,0.8,0,1.1c0,0.1,0.1-0.1,0.1-0.1c0.1,0,0.1-0.1,0.1-0.1c0.1-0.1,0.2-0.2,0.2-0.3
		c0.2-0.2,0.3-0.4,0.5-0.6c0.1,0,0.3,0,0.3,0c-0.1,0.3-0.3,0.4-0.4,0.6c-0.1,0.2-0.3,0.4-0.4,0.6c0.2,0.3,0.4,0.5,0.5,0.8
		c0.2,0.2,0.4,0.5,0.5,0.8c-0.1,0.1-0.3,0-0.5,0c-0.2-0.2-0.3-0.5-0.5-0.7c-0.1-0.2-0.3-0.4-0.5-0.7c-0.1,0.4,0,0.9,0,1.4
		c-0.1,0.1-0.3,0-0.4,0c-0.1-0.9,0-2.1,0-2.8C-423.2,506.4-423.1,506.4-423,506.4z"/>
	<path fill="#0269B3" d="M-418.9,507.2C-418.9,507.2-418.9,507.2-418.9,507.2c-0.5,0.7-1,1.4-1.5,2c-0.1,0-0.2,0-0.4,0
		c0-0.9,0-2,0-2.8c0.1,0,0.2,0,0.3,0c0,0.7,0,1.4,0,2.1c0,0.1,0.1-0.1,0.1-0.1c0,0,0.1-0.1,0.1-0.1c0.1-0.1,0.1-0.2,0.2-0.3
		c0.1-0.2,0.3-0.4,0.4-0.6c0.2-0.2,0.3-0.4,0.4-0.6c0-0.1,0.1-0.2,0.2-0.3c0-0.2,0.2-0.2,0.4-0.1c0,0.9,0,1.9,0,2.8
		c-0.1,0-0.2,0-0.3,0C-419,508.6-418.9,507.9-418.9,507.2z"/>
	<path fill="#0269B3" d="M-414.5,506.5c0,0.7,0,1.3,0,2c0,0.1,0.1-0.1,0.1-0.1c0.1,0,0.1-0.1,0.1-0.1c0.1-0.1,0.1-0.2,0.2-0.2
		c0.1-0.2,0.2-0.3,0.4-0.5c0.3-0.3,0.5-0.7,0.7-1c0.1,0,0.2,0,0.4,0c0,0.9,0,2,0,2.8c-0.1,0-0.2,0-0.3,0c-0.1-0.7,0-1.4,0-2.1
		c0-0.1,0,0-0.1,0c0,0,0,0.1-0.1,0.1c0,0.1-0.1,0.1-0.1,0.1c-0.1,0.1-0.1,0.2-0.2,0.3c-0.1,0.2-0.3,0.4-0.4,0.6
		c-0.1,0.2-0.3,0.4-0.4,0.6c-0.2,0.1-0.2,0.5-0.6,0.4c0-0.9,0-2,0-2.8C-414.7,506.4-414.5,506.4-414.5,506.5z"/>
</g>
</svg>
