<?xml version="1.0" encoding="utf-8"?>
<!-- Generator: Adobe Illustrator 19.0.0, SVG Export Plug-In . SVG Version: 6.00 Build 0)  -->
<svg version="1.1" id="Layer_1" xmlns="http://www.w3.org/2000/svg" xmlns:xlink="http://www.w3.org/1999/xlink" x="0px" y="0px"
	 viewBox="-67 82 64 38" enable-background="new -67 82 64 38" xml:space="preserve">
<g>
	<path fill="#0072B8" d="M-13.4,94.4c1.1,0,2.2,0.2,3.2,0.8c0.1,0.1,0.3,0.1,0.4,0.2l-0.7,0.6l-1-1l-1.7,1.6l-1-1.1l-3.2,2.9l2,2.2
		l-0.8,0.7l2,2.2l-0.8,0.7l2.9,3.2l1.7-1.6l1.4,1.7c-0.3,0.2-0.7,0.4-1,0.7c-1.1,0.6-2.3,1-3.7,1c-4,0-7.3-3.3-7.3-7.3
		C-20.5,97.7-17.3,94.4-13.4,94.4L-13.4,94.4z"/>
	<polygon fill="#0072B8" points="-14.7,101.3 -12.9,99.7 -11.4,101.5 -13,103 	"/>
	<polygon fill="#0072B8" points="-13.4,104.3 -11.7,102.7 -10.1,104.5 -11.8,106 	"/>
	<polygon fill="#0072B8" points="-15.9,98.3 -14.1,96.7 -12.6,98.5 -14.3,100 	"/>
	<polygon fill="#0072B8" points="-12.7,97.5 -11.4,96.3 -10.3,97.6 -11.5,98.7 	"/>
	<polygon fill="#0072B8" points="-10.4,102.8 -9,101.6 -7.9,102.9 -9.3,104.1 	"/>
	<polygon fill="#0072B8" points="-9.3,105.5 -7.9,104.3 -6.7,105.6 -8,106.8 	"/>
	<polygon fill="#0072B8" points="-8.7,99.4 -7.8,98.6 -7,99.5 -7.9,100.3 	"/>
	<polygon fill="#0072B8" points="-9.8,96.8 -8.9,96.1 -8.1,96.9 -9,97.7 	"/>
	<polygon fill="#0072B8" points="-7.6,102 -6.7,101.3 -5.9,102 -6.8,102.9 	"/>
	<polygon fill="#0072B8" points="-11.5,100 -10.1,98.9 -9,100.2 -10.4,101.4 	"/>
</g>
<g>
	<path fill="#0072B8" d="M-61,100.5L-61,100.5l-1.1,4.2H-63l-1.3-5.9h0.9l0.9,4.4h0.1l1.1-4.4h0.8l1.1,4.4h0.1l0.9-4.4h1l-1.3,5.9
		h-0.9L-61,100.5z"/>
	<path fill="#0072B8" d="M-53.9,103.7v0.7c-0.3,0.2-0.9,0.3-1.4,0.3c-1.4,0-2-0.9-2-2.2c0-1.2,0.7-2.2,1.9-2.2c1,0,1.7,0.7,1.7,2
		v0.3h-2.8c0,1,0.4,1.4,1.2,1.4C-54.8,104.1-54.3,104-53.9,103.7z M-56.4,102.2h1.9c0-0.9-0.4-1.2-0.9-1.2
		C-56,100.9-56.3,101.3-56.4,102.2z"/>
	<path fill="#0072B8" d="M-52.1,100.7c0.2-0.1,0.7-0.3,1.1-0.3c1,0,1.6,0.7,1.6,2.1c0,1.6-0.8,2.3-2,2.3c-0.4,0-1.1-0.1-1.7-0.4
		v-5.9l0.9-0.2L-52.1,100.7L-52.1,100.7z M-52.1,104c0.2,0.1,0.6,0.1,0.8,0.1c0.7,0,1.1-0.3,1.1-1.8c0-1.1-0.3-1.4-0.9-1.4
		c-0.3,0-0.6,0.1-0.9,0.2C-52.1,101.3-52.1,104-52.1,104z"/>
	<path fill="#0072B8" d="M-45.6,103.4L-45.6,103.4l1.8-4.7h1v5.9h-0.9v-4.3h-0.1l-1.7,4.3H-46l-1.7-4.2h-0.1v4.2h-0.8v-5.9h1
		L-45.6,103.4z"/>
	<path fill="#0072B8" d="M-41.8,102.5c0-1.4,0.8-2.2,1.9-2.2c1.1,0,1.9,0.8,1.9,2.2s-0.8,2.2-1.9,2.2
		C-41,104.7-41.8,103.9-41.8,102.5z M-38.9,102.5c0-1.1-0.4-1.6-1-1.6c-0.6,0-1,0.4-1,1.6c0,1.1,0.4,1.6,1,1.6
		C-39.4,104.1-38.9,103.7-38.9,102.5z"/>
	<path fill="#0072B8" d="M-37.3,100.9c0.3-0.2,1.2-0.7,2.1-0.7c1,0,1.3,0.4,1.3,1.2v3h-0.9v-2.9c0-0.7-0.3-0.8-0.8-0.8
		c-0.3,0-0.8,0.1-1,0.3v3.3h-0.9C-37.3,104.6-37.3,100.9-37.3,100.9z"/>
	<path fill="#0072B8" d="M-29.5,103.7v0.7c-0.3,0.2-0.9,0.3-1.4,0.3c-1.4,0-2-0.9-2-2.2c0-1.2,0.7-2.2,1.9-2.2c1,0,1.7,0.7,1.7,2
		v0.3h-2.8c0,1,0.4,1.4,1.2,1.4C-30.4,104.1-30,104-29.5,103.7z M-32.1,102.2h1.9c0-0.9-0.4-1.2-0.9-1.2
		C-31.6,100.9-32,101.3-32.1,102.2z"/>
	<path fill="#0072B8" d="M-26.2,100.5h0.9l-1.6,4.2c-0.4,1.1-0.9,1.8-1.9,1.8v-0.7c0.6,0,0.9-0.4,1.1-1.1l-1.6-4.2h0.9l1.1,3.1l0,0
		L-26.2,100.5z"/>
</g>
</svg>
