<?xml version="1.0" encoding="utf-8"?>
<!-- Generator: Adobe Illustrator 20.1.0, SVG Export Plug-In . SVG Version: 6.00 Build 0)  -->
<svg version="1.1" id="Layer_1" xmlns="http://www.w3.org/2000/svg" xmlns:xlink="http://www.w3.org/1999/xlink" x="0px" y="0px"
	 viewBox="0 0 64 38" style="enable-background:new 0 0 64 38;" xml:space="preserve">
<style type="text/css">
	.st0{fill-rule:evenodd;clip-rule:evenodd;fill:#231F20;}
</style>
<path class="st0" d="M43.3,24l-5.6,0.2v3.8h5.6V24L43.3,24z M41.4,17.2l-3.7,0.3v3.9l3.7-0.2V17.2L41.4,17.2z M37,11l-3.8,0.5v16.4
	H37V11L37,11z M43.3,10.1l-5.6,0.8v3.8l5.6-0.6V10.1L43.3,10.1z M52.6,13.6c0.4,0.9,0,2.3-1.1,3.6c-1.7,2-6.2,6-6.2,6l6.4-0.2
	c3.9-3.8,5.3-6.1,5.6-9c0.1-1.6-0.4-3-1.5-4.1c-1.2-1.1-3-1.6-4.9-1.3v4.2C51.7,12.7,52.3,13,52.6,13.6L52.6,13.6L52.6,13.6z
	 M48.7,16.4c-0.2-2.5,0.6-3.2,1.4-3.5V8.7c-3.8,0.8-5.6,3.6-5.4,8.1L48.7,16.4L48.7,16.4z M57.6,27.9v-4.4l-13,0.4l0,4H57.6
	L57.6,27.9z M11.2,27.9V18l-2.8,0.3v9.6H11.2L11.2,27.9z M18,16.8l4.2-0.4V13L18,13.6V16.8L18,16.8z M18,27.9h4.2v-3.3L18,24.7V27.9
	L18,27.9z M26.7,12.4l-3.3,0.5v15h3.3V12.4L26.7,12.4z M27.3,27.9h4.8v-3.6l-4.8,0.1V27.9L27.3,27.9z M13.5,14.3L6,15.3l0,2.8
	l7.5-0.8V14.3L13.5,14.3z M20.8,18.9L18,19.2v3.2l2.8-0.2V18.9L20.8,18.9z M17.5,13.7l-2.9,0.4v13.8h2.9V13.7L17.5,13.7z"/>
</svg>
